{"glyphs":{"0":{"ha":872,"x_min":49,"x_max":824,"o":"m 436 -1 q 242 49 331 -1 q 101 203 154 99 q 49 465 49 307 q 99 745 49 643 q 238 890 150 847 q 436 932 325 933 q 631 883 543 933 q 771 728 718 832 q 824 465 824 625 q 770 197 824 300 q 629 46 717 93 q 436 -1 542 -1 m 435 192 q 543 228 504 192 q 598 329 582 265 q 614 471 614 393 q 598 607 614 547 q 543 702 582 667 q 435 738 504 738 q 328 701 367 738 q 274 604 289 665 q 258 467 258 543 q 274 328 258 390 q 328 228 289 265 q 435 192 367 192 z "},"1":{"ha":478,"x_min":69,"x_max":346,"o":"m 69 921 l 346 921 l 346 0 l 143 0 l 143 726 l 69 726 l 69 921 z "},"2":{"ha":810,"x_min":49,"x_max":740,"o":"m 75 0 q 240 169 161 88 q 383 326 319 250 q 483 472 446 401 q 519 610 519 543 q 501 678 519 650 q 452 722 483 707 q 378 738 421 738 q 305 722 335 738 q 260 683 275 707 q 244 633 244 658 q 259 555 244 589 q 299 494 274 521 l 175 382 q 106 447 135 401 q 63 544 78 493 q 49 628 49 594 q 91 774 49 704 q 215 888 133 843 q 413 932 296 932 q 579 889 508 932 q 690 776 650 846 q 729 626 729 706 q 695 467 729 543 q 607 317 661 390 q 490 168 553 244 l 399 194 l 740 194 l 740 0 l 75 0 z "},"3":{"ha":732,"x_min":56,"x_max":649,"o":"m 633 921 l 425 521 l 315 581 q 375 592 344 592 q 472 581 424 593 q 560 536 521 568 q 624 449 600 504 q 649 307 649 393 q 602 135 649 207 q 481 26 556 64 q 318 -11 406 -11 q 175 17 250 -11 q 56 93 100 46 l 158 260 q 222 208 179 233 q 313 183 265 183 q 399 218 358 183 q 440 319 440 253 q 406 417 440 381 q 311 453 372 453 q 248 449 269 453 q 206 440 226 446 l 201 446 l 364 750 l 422 726 l 132 726 l 132 921 l 633 921 z "},"4":{"ha":768,"x_min":14,"x_max":713,"o":"m 14 201 l 14 203 l 601 932 l 603 932 l 603 354 l 713 354 l 713 201 l 603 201 l 603 0 l 400 0 l 400 201 l 14 201 m 410 489 l 303 346 l 283 354 l 400 354 l 400 499 l 410 489 z "},"5":{"ha":719,"x_min":56,"x_max":650,"o":"m 336 -11 q 176 19 254 -11 q 56 93 99 50 l 160 254 q 231 203 185 224 q 321 183 278 183 q 406 215 369 183 q 442 307 442 246 q 403 415 442 374 q 297 456 364 456 q 215 444 254 456 q 124 404 176 432 l 122 404 l 122 921 l 582 921 l 582 726 l 296 726 l 296 578 l 272 619 q 310 624 292 622 q 346 625 328 625 q 510 582 443 625 q 614 468 578 539 q 650 314 650 397 q 608 149 650 222 q 495 32 567 75 q 336 -11 424 -11 z "},"6":{"ha":779,"x_min":42,"x_max":738,"o":"m 397 -11 q 217 36 297 -11 q 89 175 136 83 q 42 399 42 267 q 73 558 42 481 q 159 705 104 635 q 286 836 214 775 q 440 946 358 897 l 575 800 q 393 690 464 757 q 289 550 322 622 q 256 417 256 478 l 206 422 q 302 558 243 510 q 467 607 361 607 q 596 569 533 607 q 698 465 658 532 q 738 310 738 399 q 688 135 738 207 q 561 26 639 64 q 397 -11 483 -11 m 389 169 q 488 205 449 169 q 528 308 528 240 q 488 406 528 374 q 389 438 447 438 q 319 423 350 438 q 269 384 288 408 q 250 332 250 360 l 250 299 q 268 236 250 265 q 318 188 286 207 q 389 169 350 169 z "},"7":{"ha":699,"x_min":56,"x_max":678,"o":"m 678 921 l 335 0 l 110 0 l 394 750 l 460 726 l 56 726 l 56 921 l 678 921 z "},"8":{"ha":739,"x_min":21,"x_max":718,"o":"m 21 299 q 47 421 21 371 q 112 503 74 471 q 182 556 150 536 q 130 622 151 588 q 108 718 108 656 q 144 829 108 781 q 239 905 179 878 q 371 932 299 932 q 503 905 443 932 q 601 832 564 878 q 638 728 638 786 q 615 624 638 658 q 558 556 592 589 q 628 501 592 535 q 692 419 665 468 q 718 299 718 369 q 672 147 718 218 q 548 33 626 76 q 368 -11 469 -11 q 188 33 267 -11 q 65 147 110 76 q 21 299 21 218 l 21 299 m 228 307 q 247 233 228 267 q 299 178 267 199 q 369 158 331 158 q 443 178 410 158 q 497 233 476 199 q 517 307 517 267 q 498 380 517 347 q 448 433 479 413 q 378 456 417 454 q 305 438 339 457 q 249 384 271 418 q 228 307 228 350 l 228 307 m 304 693 q 327 644 304 665 q 375 624 350 624 q 422 644 400 624 q 444 693 444 665 q 423 742 444 721 q 375 764 401 764 q 326 742 349 764 q 304 693 304 721 l 304 693 z "},"9":{"ha":758,"x_min":42,"x_max":738,"o":"m 313 288 q 184 325 246 288 q 82 430 122 363 q 42 585 42 497 q 91 774 42 696 q 218 892 140 851 q 382 932 296 932 q 563 887 483 932 q 690 763 643 842 q 738 586 738 685 q 698 381 738 472 q 592 218 658 290 q 446 87 526 146 q 283 -24 365 28 l 149 122 q 344 227 260 168 q 476 351 429 286 q 524 478 524 415 l 574 472 q 478 336 536 385 q 313 288 419 288 m 390 457 q 489 494 449 457 q 529 579 529 532 l 529 611 q 511 679 529 647 q 462 731 493 711 q 390 751 431 751 q 291 713 331 751 q 251 601 251 675 q 292 493 251 529 q 390 457 332 457 z "},"ء":{"ha":722,"x_min":35,"x_max":688,"o":"m 192 64 l 192 189 q 219 331 192 269 q 293 428 246 393 q 401 464 340 464 q 508 440 463 464 q 582 372 554 417 q 614 265 610 328 q 538 319 579 301 q 464 338 497 338 q 408 315 428 338 q 388 269 388 293 q 398 233 388 250 q 429 205 408 215 q 483 194 450 194 l 557 194 l 558 64 l 192 64 m 35 0 l 150 194 l 688 194 l 572 0 l 35 0 z "},"ٴ":{"ha":722,"x_min":35,"x_max":688,"o":"m 192 619 l 192 744 q 219 887 192 825 q 293 984 246 949 q 401 1019 340 1019 q 508 996 463 1019 q 582 928 554 972 q 614 821 610 883 q 538 875 579 857 q 464 893 497 893 q 408 871 428 893 q 388 825 388 849 q 398 788 388 806 q 429 760 408 771 q 483 750 450 750 l 557 750 l 558 619 l 192 619 m 35 556 l 150 750 l 688 750 l 572 556 l 35 556 z "},"ا":{"ha":361,"x_min":35,"x_max":361,"o":"m 361 81 q 317 27 353 50 q 234 -4 282 4 q 141 -2 186 -12 q 65 42 96 8 q 35 139 35 76 l 35 1068 l 229 1111 l 229 139 q 244 88 229 104 q 282 69 260 72 q 326 70 304 65 q 361 81 349 75 z "},"ٮ":{"ha":1181,"x_min":35,"x_max":1146,"o":"m 35 0 l 151 194 l 951 194 l 951 0 l 35 0 m 840 0 l 840 194 l 951 194 l 951 429 l 1146 472 l 1146 32 q 1132 8 1146 15 q 1104 1 1118 1 q 1090 0 1090 0 l 840 0 z "},"ح":{"ha":715,"x_min":18,"x_max":682,"o":"m 183 -278 q 79 -204 124 -260 q 35 -51 35 -149 q 46 17 35 -19 q 79 87 57 53 q 133 146 101 121 q 90 193 111 168 q 50 245 68 218 q 18 297 32 272 l 110 475 q 224 333 161 397 q 346 232 286 269 q 449 194 406 194 l 682 194 l 599 0 l 301 0 q 261 -10 285 0 q 220 -42 238 -21 q 203 -100 203 -64 q 226 -172 203 -144 q 288 -210 250 -199 q 367 -224 325 -222 q 449 -219 410 -225 q 515 -204 489 -214 q 425 -264 483 -242 q 301 -290 367 -286 q 183 -278 236 -293 z "},"د":{"ha":1208,"x_min":35,"x_max":1174,"o":"m 35 0 l 151 194 l 979 194 q 956 255 981 232 q 854 278 932 278 l 188 278 l 404 639 l 418 629 l 346 472 l 854 472 q 1019 443 957 472 q 1115 365 1082 414 q 1160 258 1147 317 q 1173 141 1172 200 q 1174 32 1174 82 q 1160 8 1174 15 q 1132 1 1146 1 q 1118 0 1118 0 l 35 0 z "},"ر":{"ha":313,"x_min":-118,"x_max":278,"o":"m -118 -208 q -17 -221 -57 -225 q 44 -197 22 -217 q 75 -148 67 -178 q 83 -83 83 -118 l 83 429 l 278 472 l 278 -83 q 247 -203 278 -157 q 165 -272 215 -250 q 60 -292 115 -293 q -42 -269 6 -290 q -118 -208 -90 -247 z "},"س":{"ha":1208,"x_min":35,"x_max":1174,"o":"m 590 194 l 701 194 l 701 429 l 896 472 l 896 194 l 979 194 l 979 429 l 1174 472 l 1174 32 q 1160 8 1174 15 q 1132 1 1146 1 q 1118 0 1118 0 l 590 0 l 590 194 m 300 -278 q 163 -247 215 -278 q 82 -171 110 -217 q 44 -78 54 -125 q 35 0 35 -32 q 60 117 35 61 q 126 216 86 172 q 210 288 167 260 q 207 238 213 261 q 182 188 201 214 q 208 160 197 181 q 222 118 218 140 q 222 79 226 96 q 178 101 200 100 q 136 89 156 101 q 104 55 117 75 q 92 -1 92 35 q 117 -100 92 -56 q 183 -172 142 -144 q 275 -199 225 -199 q 362 -167 329 -199 q 409 -78 394 -136 q 424 56 424 -21 l 424 429 l 618 472 l 618 0 q 582 -141 618 -78 q 476 -241 546 -204 q 300 -278 406 -278 z "},"ص":{"ha":1625,"x_min":35,"x_max":1590,"o":"m 424 333 l 424 568 l 618 611 l 618 333 l 424 333 m 300 -278 q 163 -247 215 -278 q 82 -171 110 -217 q 44 -78 54 -125 q 35 0 35 -32 q 60 117 35 61 q 126 216 86 172 q 210 288 167 260 q 207 238 213 261 q 182 188 201 214 q 208 160 197 181 q 222 118 218 140 q 222 79 226 96 q 178 101 200 100 q 136 89 156 101 q 104 55 117 75 q 92 -1 92 35 q 117 -100 92 -56 q 183 -172 142 -144 q 275 -199 225 -199 q 362 -167 329 -199 q 409 -78 394 -136 q 424 56 424 -21 l 424 429 l 618 472 l 618 0 q 582 -141 618 -78 q 476 -241 546 -204 q 300 -278 406 -278 m 542 0 l 542 194 l 1396 194 q 1373 255 1397 232 q 1271 278 1349 278 l 542 278 l 542 472 l 1271 472 q 1436 443 1374 472 q 1531 365 1499 414 q 1576 258 1564 317 q 1590 141 1589 200 q 1590 32 1590 82 q 1576 8 1590 15 q 1549 1 1563 1 q 1535 0 1535 0 l 542 0 z "},"ط":{"ha":1403,"x_min":35,"x_max":1368,"o":"m 257 69 l 257 1068 l 451 1111 l 451 69 l 257 69 m 35 0 l 151 194 l 479 194 l 479 0 l 35 0 m 319 0 l 319 194 l 1174 194 q 1151 255 1175 232 q 1049 278 1126 278 l 319 278 l 319 472 l 1049 472 q 1214 443 1151 472 q 1309 365 1276 414 q 1354 258 1342 317 q 1367 141 1367 200 q 1368 32 1368 82 q 1354 8 1368 15 q 1326 1 1340 1 q 1313 0 1313 0 l 319 0 z "},"ع":{"ha":540,"x_min":26,"x_max":540,"o":"m 197 -278 q 92 -208 138 -258 q 47 -82 47 -158 q 61 6 47 -31 q 97 74 75 43 q 41 161 56 113 q 35 260 26 210 q 73 351 44 310 q 146 419 101 393 q 247 444 190 444 q 328 422 294 444 q 383 367 363 399 q 406 311 403 336 q 339 348 371 338 q 281 353 307 358 q 238 328 257 350 q 219 283 219 307 q 235 240 219 260 q 280 207 250 219 q 356 194 310 194 l 499 194 l 415 0 l 328 0 q 288 -10 311 0 q 247 -42 264 -21 q 229 -100 229 -64 q 253 -172 229 -144 q 313 -210 276 -199 q 392 -224 350 -222 q 474 -219 435 -225 q 540 -204 514 -214 q 475 -253 517 -233 q 384 -282 433 -272 q 286 -291 335 -292 q 197 -278 238 -290 z "},"ڡ":{"ha":1181,"x_min":35,"x_max":1146,"o":"m 35 0 l 118 194 l 604 194 l 604 0 l 35 0 m 563 0 l 563 194 l 951 194 l 951 372 l 1146 472 l 1146 32 q 1132 8 1146 15 q 1104 1 1118 1 q 1090 0 1090 0 l 563 0 m 911 236 q 793 268 847 236 q 706 354 739 300 q 674 472 674 408 q 706 591 674 538 q 793 676 739 644 q 913 708 847 708 q 1029 676 976 708 q 1114 591 1082 644 q 1146 472 1146 538 q 1114 353 1146 407 q 1029 268 1082 300 q 911 236 976 236 m 911 431 q 940 442 929 431 q 951 472 951 454 q 940 502 951 490 q 911 514 929 514 q 881 502 893 514 q 868 472 868 490 q 881 442 868 454 q 911 431 893 431 z "},"ٯ":{"ha":744,"x_min":50,"x_max":710,"o":"m 371 -299 q 225 -272 286 -299 q 125 -201 164 -244 q 68 -106 86 -157 q 50 -7 50 -54 q 82 158 50 85 q 164 275 114 231 q 173 224 167 249 q 160 174 179 200 q 190 158 171 175 q 217 101 210 140 q 174 103 188 106 q 144 92 160 101 q 115 53 125 79 q 106 -7 106 28 q 134 -105 106 -60 q 213 -178 163 -150 q 329 -206 264 -206 q 476 -153 436 -206 q 515 14 515 -101 l 515 108 l 710 236 l 710 69 q 705 3 710 47 q 683 -92 700 -40 q 628 -190 665 -143 q 529 -268 592 -237 q 371 -299 467 -299 m 475 0 q 358 32 411 0 q 273 117 304 64 q 242 236 242 171 q 273 355 242 301 q 358 440 304 408 q 475 472 411 472 q 593 440 540 472 q 678 355 646 408 q 710 236 710 301 q 678 117 710 171 q 593 32 646 64 q 475 0 540 0 m 475 193 q 506 206 493 193 q 519 236 519 218 q 506 267 519 254 q 475 279 493 279 q 444 267 457 279 q 432 236 432 254 q 444 206 432 218 q 475 193 457 193 z "},"ك":{"ha":1403,"x_min":35,"x_max":1368,"o":"m 35 0 l 151 194 l 1174 194 q 1151 255 1175 232 q 1049 278 1126 278 l 228 278 l 425 472 l 1049 472 q 1214 443 1151 472 q 1309 365 1276 414 q 1354 258 1342 317 q 1367 141 1367 200 q 1368 32 1368 82 q 1354 8 1368 15 q 1326 1 1340 1 q 1313 0 1313 0 l 35 0 m 483 290 l 385 432 l 890 932 l 890 642 q 871 657 881 657 q 853 649 861 657 l 483 290 z "},"ل":{"ha":653,"x_min":35,"x_max":618,"o":"m 424 56 l 424 1068 l 618 1111 l 618 0 l 424 56 m 300 -278 q 163 -247 215 -278 q 82 -171 110 -217 q 44 -78 54 -125 q 35 0 35 -32 q 60 117 35 61 q 126 216 86 172 q 210 288 167 260 q 207 238 213 261 q 182 188 201 214 q 208 160 197 181 q 222 118 218 140 q 222 79 226 96 q 178 101 200 100 q 136 89 156 101 q 104 55 117 75 q 92 -1 92 35 q 117 -100 92 -56 q 183 -172 142 -144 q 275 -199 225 -199 q 362 -167 329 -199 q 409 -78 394 -136 q 424 56 424 -21 l 424 429 l 618 472 l 618 0 q 582 -141 618 -78 q 476 -241 546 -204 q 300 -278 406 -278 z "},"م":{"ha":851,"x_min":35,"x_max":817,"o":"m 35 0 l 185 250 q 226 208 199 222 q 279 194 254 194 l 497 194 l 581 0 l 35 0 m 581 0 q 463 32 517 0 q 376 118 408 64 q 343 236 343 172 q 372 351 343 301 q 448 431 401 400 q 543 469 494 461 q 570 518 550 493 q 600 553 590 543 q 765 410 714 485 q 817 236 817 335 q 785 117 817 171 q 699 32 753 64 q 581 0 646 0 m 581 194 q 610 206 599 194 q 621 236 621 218 q 610 266 621 254 q 581 278 599 278 q 550 266 563 278 q 538 236 538 254 q 550 206 538 218 q 581 194 563 194 z "},"ں":{"ha":639,"x_min":35,"x_max":604,"o":"m 310 -283 q 209 -266 258 -283 q 120 -213 160 -249 q 58 -125 81 -178 q 35 0 35 -72 q 60 117 35 61 q 126 216 86 172 q 210 288 167 260 q 206 235 213 261 q 182 188 199 210 q 208 160 197 181 q 222 117 218 139 q 222 81 226 94 q 194 97 208 92 q 167 103 181 103 q 114 73 136 103 q 92 0 92 43 q 115 -102 92 -61 q 176 -162 139 -143 q 256 -182 214 -182 q 340 -160 300 -182 q 406 -97 381 -139 q 432 8 432 -54 q 423 69 432 39 q 401 126 414 99 q 374 175 388 154 l 468 364 q 563 215 521 300 q 604 7 604 129 q 561 -153 604 -87 q 451 -251 518 -218 q 310 -283 383 -283 z "},"ه":{"ha":542,"x_min":35,"x_max":507,"o":"m 313 507 l 313 643 l 507 722 l 507 592 q 464 550 496 569 q 392 519 432 531 q 313 507 351 507 m 313 685 l 313 1068 l 507 1111 l 507 764 l 313 685 m 507 236 l 272 472 q 324 474 290 472 q 394 484 357 476 q 462 508 431 492 q 507 550 493 524 l 507 236 m 272 0 q 154 32 208 0 q 67 118 100 64 q 35 236 35 172 q 67 355 35 301 q 154 440 100 408 q 274 472 208 472 q 390 440 338 472 q 475 355 443 408 q 507 236 507 301 q 475 117 507 171 q 390 32 443 64 q 272 0 338 0 m 272 194 q 301 206 290 194 q 313 236 313 218 q 301 266 313 254 q 272 278 290 278 q 242 266 254 278 q 229 236 229 254 q 242 206 229 218 q 272 194 254 194 z "},"ھ":{"ha":786,"x_min":35,"x_max":751,"o":"m 518 0 q 399 32 453 0 q 312 118 344 64 q 279 236 279 172 q 311 353 279 300 l 721 353 q 744 297 736 326 q 751 236 751 268 q 719 117 751 171 q 635 32 688 64 q 518 0 582 0 m 279 117 l 279 450 l 326 450 l 326 117 l 279 117 m 517 194 q 546 206 535 194 q 557 236 557 218 q 546 266 557 254 q 517 278 535 278 q 486 266 499 278 q 474 236 474 254 q 486 206 474 218 q 517 194 499 194 m 446 0 l 446 194 l 557 194 l 557 407 l 751 450 l 751 32 q 738 8 751 15 q 710 1 724 1 q 696 0 696 0 l 446 0 m 517 408 q 546 420 535 408 q 557 450 557 432 q 546 480 557 468 q 517 492 535 492 q 486 480 499 492 q 474 450 474 468 q 486 420 474 432 q 517 408 499 408 m 311 333 q 288 390 296 360 q 279 450 279 419 q 312 569 279 515 q 399 654 344 622 q 518 686 453 686 q 635 654 582 686 q 719 569 688 622 q 751 450 751 515 q 721 333 751 388 l 311 333 m 751 450 l 517 686 q 568 688 535 686 q 638 698 601 690 q 706 722 675 706 q 751 764 738 738 l 751 450 m 35 0 l 185 250 q 226 208 199 222 q 279 194 254 194 l 461 194 l 544 0 l 35 0 z "},"و":{"ha":542,"x_min":35,"x_max":507,"o":"m 83 -183 q 209 -195 163 -204 q 278 -161 256 -186 q 306 -110 300 -136 q 313 -72 313 -85 l 313 178 l 507 236 l 507 -31 q 472 -165 507 -112 q 384 -241 438 -217 q 272 -265 331 -265 q 162 -244 213 -265 q 83 -183 111 -222 m 507 236 l 272 472 q 324 474 290 472 q 394 484 357 476 q 462 508 431 492 q 507 550 493 524 l 507 236 m 272 0 q 154 32 208 0 q 67 118 100 64 q 35 236 35 172 q 67 355 35 301 q 154 440 100 408 q 274 472 208 472 q 390 440 338 472 q 475 355 443 408 q 507 236 507 301 q 475 117 507 171 q 390 32 443 64 q 272 0 338 0 m 272 194 q 301 206 290 194 q 313 236 313 218 q 301 266 313 254 q 272 278 290 278 q 242 266 254 278 q 229 236 229 254 q 242 206 229 218 q 272 194 254 194 z "},"ى":{"ha":1007,"x_min":35,"x_max":972,"o":"m 546 -278 l 225 282 q 172 456 169 381 q 214 587 174 531 q 310 685 254 643 q 376 742 353 717 q 400 821 400 767 l 871 0 l 654 0 l 381 472 q 373 430 372 457 q 388 378 374 403 l 761 -278 l 546 -278 m 732 0 l 635 194 l 728 194 q 781 208 753 194 q 822 250 808 222 l 972 0 l 732 0 m 35 -278 l 185 -28 q 226 -69 199 -56 q 279 -83 254 -83 l 497 -83 l 581 -278 l 35 -278 z "},"ے":{"ha":1451,"x_min":32,"x_max":1417,"o":"m 408 -278 l 88 282 q 34 456 32 381 q 76 587 36 531 q 172 685 117 643 q 239 742 215 717 q 263 821 263 767 l 733 0 l 517 0 l 243 472 q 235 430 235 457 q 250 378 236 403 l 624 -278 l 408 -278 m 444 -278 l 444 -83 l 1333 -83 l 1417 -278 l 444 -278 m 596 0 l 499 194 l 592 194 q 644 208 617 194 q 686 250 672 222 l 836 0 l 596 0 z "},"ە":{"ha":542,"x_min":35,"x_max":507,"o":"m 507 236 l 272 472 q 324 474 290 472 q 394 484 357 476 q 462 508 431 492 q 507 550 493 524 l 507 236 m 272 0 q 154 32 208 0 q 67 118 100 64 q 35 236 35 172 q 67 355 35 301 q 154 440 100 408 q 274 472 208 472 q 390 440 338 472 q 475 355 443 408 q 507 236 507 301 q 475 117 507 171 q 390 32 443 64 q 272 0 338 0 m 272 194 q 301 206 290 194 q 313 236 313 218 q 301 266 313 254 q 272 278 290 278 q 242 266 254 278 q 229 236 229 254 q 242 206 229 218 q 272 194 254 194 z "},"ـ":{"ha":417,"x_min":-28,"x_max":444,"o":"m -28 0 l -28 194 l 444 194 l 444 0 l -28 0 z "},"٠":{"ha":694,"x_min":203,"x_max":492,"o":"m 347 272 q 245 315 288 272 q 203 417 203 357 q 245 519 203 476 q 347 561 288 561 q 449 519 407 561 q 492 417 492 476 q 449 315 492 357 q 347 272 407 272 z "},"١":{"ha":694,"x_min":250,"x_max":444,"o":"m 250 0 l 250 790 l 444 833 l 444 0 l 250 0 z "},"٢":{"ha":694,"x_min":125,"x_max":569,"o":"m 125 0 l 125 542 q 155 702 125 643 q 234 790 185 761 q 343 826 283 818 q 462 833 403 835 q 569 833 521 832 l 569 639 l 431 639 q 365 630 390 639 q 330 599 340 621 q 319 542 319 578 l 319 0 l 125 0 z "},"٣":{"ha":694,"x_min":28,"x_max":667,"o":"m 69 389 l 69 583 l 250 583 l 250 789 l 444 833 l 444 583 l 472 583 l 472 790 l 667 833 l 667 421 q 653 397 667 404 q 625 390 639 390 q 611 389 611 389 l 69 389 m 28 0 l 28 790 l 222 833 l 222 0 l 28 0 z "},"٤":{"ha":694,"x_min":83,"x_max":639,"o":"m 211 0 q 136 20 164 0 q 96 71 108 40 q 83 129 83 101 q 99 197 83 163 q 144 263 114 232 l 249 368 l 172 424 q 123 483 142 446 q 104 557 104 519 q 126 630 104 597 q 179 686 147 663 l 421 864 l 538 708 l 250 497 l 253 614 l 525 385 l 276 121 l 257 194 l 639 194 l 639 0 l 211 0 z "},"٥":{"ha":694,"x_min":111,"x_max":583,"o":"m 349 69 q 231 101 285 69 q 144 188 176 133 q 111 306 111 242 l 111 528 q 144 647 111 593 q 231 732 176 700 q 350 764 285 764 q 467 732 414 764 q 551 647 519 700 q 583 528 583 593 l 583 306 q 551 187 583 240 q 467 101 519 133 q 349 69 414 69 m 167 69 q 153 70 167 69 q 125 78 139 71 q 111 101 111 85 l 111 390 l 349 69 l 167 69 m 306 264 l 346 264 q 376 276 364 264 q 389 306 389 288 l 389 569 l 349 569 q 318 558 331 569 q 306 528 306 546 l 306 264 m 583 528 l 349 764 q 400 766 367 764 q 470 776 433 768 q 538 799 507 783 q 583 842 569 815 l 583 528 z "},"٦":{"ha":694,"x_min":76,"x_max":611,"o":"m 418 -28 l 418 639 l 119 639 l 76 833 l 551 833 q 585 822 572 833 q 605 792 599 811 q 611 750 611 774 l 611 -28 l 418 -28 z "},"٧":{"ha":694,"x_min":56,"x_max":639,"o":"m 436 0 l 249 51 l 465 849 l 639 758 l 436 0 m 260 0 l 260 26 l 436 26 l 436 0 l 260 0 m 260 0 l 56 757 l 232 849 l 447 51 l 260 0 z "},"٨":{"ha":694,"x_min":35,"x_max":660,"o":"m 458 0 l 247 782 l 435 833 l 660 0 l 458 0 m 35 0 l 258 833 l 446 782 l 233 0 l 35 0 m 258 807 l 258 833 l 435 833 l 435 807 l 258 807 z "},"٩":{"ha":694,"x_min":56,"x_max":639,"o":"m 444 0 l 444 283 q 415 281 431 282 q 383 281 399 281 q 212 317 286 281 q 97 417 138 353 q 56 567 56 482 q 95 713 56 649 q 202 816 135 778 q 354 854 269 854 q 501 818 438 854 q 602 719 565 782 q 639 576 639 657 l 639 0 l 444 0 m 444 478 l 444 563 q 421 630 444 603 q 351 657 397 657 q 277 631 306 657 q 249 564 249 606 q 284 498 249 521 q 388 475 319 475 q 418 476 403 475 q 444 478 433 476 z "},"۲":{"ha":694,"x_min":69,"x_max":625,"o":"m 139 458 l 139 653 l 431 653 l 431 790 l 625 833 l 625 490 q 611 467 625 474 q 583 459 597 460 q 569 458 569 458 l 139 458 m 69 0 l 69 790 l 264 833 l 264 0 l 69 0 z "},"۴":{"ha":694,"x_min":28,"x_max":667,"o":"m 261 425 l 261 550 q 288 692 261 631 q 363 790 315 754 q 471 825 410 825 q 558 803 522 825 q 617 744 594 782 q 649 656 639 706 q 590 688 619 676 q 533 699 560 699 q 477 676 497 699 q 457 631 457 654 q 467 594 457 611 q 499 566 478 576 q 553 556 519 556 l 626 556 l 628 425 l 261 425 m 69 361 l 69 556 l 667 556 l 624 361 l 69 361 m 28 0 l 28 790 l 222 833 l 222 0 l 28 0 z "},"۶":{"ha":694,"x_min":82,"x_max":625,"o":"m 83 0 q 83 67 82 17 q 94 188 83 118 q 136 335 106 258 q 225 482 167 413 q 165 567 182 518 q 153 668 147 617 q 186 763 160 719 q 256 834 213 807 q 360 861 300 861 q 478 814 435 861 q 532 704 522 767 q 458 740 496 732 q 393 742 421 747 q 351 717 369 739 q 332 672 332 696 q 347 624 332 647 q 381 589 361 601 q 419 582 401 576 l 625 644 l 549 442 q 390 383 463 419 q 258 292 317 346 q 155 166 199 239 q 83 0 111 93 z "},"۷":{"ha":694,"x_min":56,"x_max":639,"o":"m 436 0 l 249 51 l 465 849 l 639 758 l 436 0 m 260 0 l 260 26 l 436 26 l 436 0 l 260 0 m 260 0 l 56 757 l 232 849 l 447 51 l 260 0 z "}," ":{"ha":181,"x_min":0,"x_max":0,"o":""},"۔":{"ha":447,"x_min":43,"x_max":404,"o":"m 43 0 l 126 194 l 404 194 l 321 0 l 43 0 z "},"،":{"ha":307,"x_min":42,"x_max":272,"o":"m 250 307 q 197 265 219 293 q 163 206 174 236 q 158 157 153 176 l 142 185 q 205 181 175 193 q 253 142 235 168 q 272 82 272 117 q 241 3 272 35 q 163 -28 210 -28 q 98 -9 125 -28 q 56 45 71 10 q 42 129 42 81 q 60 224 42 179 q 115 308 79 269 q 199 376 150 347 l 250 307 z "},"؛":{"ha":307,"x_min":42,"x_max":272,"o":"m 164 0 q 88 32 119 0 q 56 108 56 64 q 88 185 56 153 q 164 217 119 217 q 240 185 208 217 q 272 108 272 153 q 240 32 272 64 q 164 0 208 0 m 250 597 q 197 555 219 583 q 163 497 174 526 q 158 447 153 467 l 142 475 q 205 471 175 483 q 253 433 235 458 q 272 372 272 407 q 241 294 272 325 q 163 263 210 263 q 98 281 125 263 q 56 335 71 300 q 42 419 42 371 q 60 515 42 469 q 115 599 79 560 q 199 667 150 638 l 250 597 z "},"؟":{"ha":751,"x_min":33,"x_max":738,"o":"m 268 260 l 268 314 q 257 392 268 363 q 225 444 246 422 q 175 492 204 467 q 67 624 100 558 q 35 769 33 689 q 78 914 36 847 q 190 1022 121 981 q 338 1064 258 1064 q 446 1047 394 1065 q 542 995 497 1029 q 621 911 586 961 q 657 881 632 897 q 738 843 682 864 l 500 686 q 488 762 497 733 q 471 804 479 790 q 417 860 446 842 q 351 878 388 878 q 256 843 294 878 q 218 757 218 808 q 234 697 218 722 q 276 649 250 671 q 331 601 301 626 q 391 542 363 575 q 438 463 419 510 q 456 344 456 417 l 456 260 l 268 260 m 360 0 q 283 32 315 0 q 251 108 251 64 q 283 185 251 153 q 360 217 315 217 q 436 185 404 217 q 468 108 468 153 q 436 32 468 64 q 360 0 404 0 z "},"◌":{"ha":813,"x_min":64,"x_max":750,"o":"m 700 286 q 665 300 679 286 q 651 338 651 314 q 665 375 651 363 q 700 388 679 388 q 735 375 719 388 q 750 338 750 363 q 736 300 750 314 q 700 286 722 286 m 258 21 q 225 34 239 21 q 211 74 211 47 q 225 110 211 97 q 258 122 239 122 q 294 110 279 122 q 308 74 308 97 q 294 34 308 47 q 258 21 281 21 m 150 135 q 117 149 132 135 q 103 185 103 163 q 117 224 103 210 q 150 238 132 238 q 186 224 172 238 q 200 185 200 210 q 187 149 200 163 q 150 135 174 135 m 406 -17 q 372 -3 386 -17 q 358 35 358 10 q 372 72 358 58 q 406 85 386 85 q 442 72 428 85 q 456 35 456 58 q 442 -3 456 10 q 406 -17 428 -17 m 111 286 q 78 300 93 286 q 64 338 64 314 q 78 375 64 363 q 111 388 93 388 q 148 375 133 388 q 163 338 163 363 q 149 300 163 314 q 111 286 135 286 m 553 21 q 520 34 535 21 q 506 74 506 47 q 520 110 506 97 q 553 122 535 122 q 588 110 574 122 q 603 74 603 97 q 553 21 603 21 m 150 439 q 117 453 132 439 q 103 492 103 467 q 117 529 103 517 q 150 542 132 542 q 186 529 172 542 q 200 492 200 517 q 150 439 200 439 m 663 135 q 628 149 643 135 q 614 185 614 163 q 628 224 614 210 q 663 238 643 238 q 697 224 683 238 q 711 185 711 210 q 663 135 711 135 m 258 553 q 225 567 239 553 q 211 603 211 581 q 225 642 211 629 q 258 654 239 654 q 294 642 279 654 q 308 603 308 629 q 294 567 308 581 q 258 553 281 553 m 406 589 q 372 603 386 589 q 358 642 358 617 q 372 678 358 665 q 406 692 386 692 q 442 678 428 692 q 456 642 456 665 q 442 603 456 617 q 406 589 428 589 m 663 439 q 628 452 643 439 q 614 490 614 465 q 628 527 614 514 q 663 540 643 540 q 697 527 683 540 q 711 490 711 514 q 663 439 711 439 m 553 551 q 520 566 535 551 q 506 603 506 581 q 520 641 506 628 q 553 654 535 654 q 588 641 574 654 q 603 603 603 628 q 590 566 603 581 q 553 551 576 551 z "},"ؕ":{"ha":0,"x_min":0,"x_max":417,"o":"m 0 0 l 33 69 l 347 69 q 341 109 346 93 q 304 125 336 125 l 114 125 l 114 194 l 311 194 q 376 176 354 194 q 407 128 399 157 q 416 69 415 100 q 417 13 417 38 q 406 1 417 3 q 394 0 394 0 l 0 0 m 89 28 l 89 404 l 158 417 l 158 28 l 89 28 z "},"ٰ":{"ha":0,"x_min":0,"x_max":96,"o":"m 29 0 l 29 215 q 22 231 29 225 q 0 229 14 236 l 96 324 l 96 0 l 29 0 z "},"ٖ":{"ha":0,"x_min":0,"x_max":96,"o":"m 29 -319 l 29 -104 q 22 -89 29 -94 q 0 -90 14 -83 l 96 4 l 96 -319 l 29 -319 z "},"ٔ":{"ha":0,"x_min":0,"x_max":375,"o":"m 101 13 l 101 58 q 103 101 101 85 q 110 138 104 117 q 147 206 121 179 q 228 233 174 233 q 274 222 247 233 q 315 178 301 210 q 279 189 307 182 q 232 190 251 196 q 200 170 210 185 q 189 142 190 156 q 188 124 188 129 q 202 85 188 96 q 237 72 217 74 q 274 69 257 69 l 310 69 l 311 13 l 101 13 m 0 0 l 42 69 l 375 69 l 333 0 l 0 0 z "},"ٕ":{"ha":0,"x_min":0,"x_max":375,"o":"m 101 -221 l 101 -175 q 103 -133 101 -149 q 110 -96 104 -117 q 147 -27 121 -54 q 228 0 174 0 q 274 -12 247 0 q 315 -56 301 -24 q 279 -44 307 -51 q 232 -43 251 -37 q 200 -63 210 -49 q 189 -91 190 -78 q 188 -110 188 -104 q 202 -149 188 -137 q 237 -162 217 -160 q 274 -164 257 -164 l 310 -164 l 311 -221 l 101 -221 m 0 -233 l 42 -164 l 375 -164 l 333 -233 l 0 -233 z "},"ً":{"ha":0,"x_min":0,"x_max":383,"o":"m 71 89 l 47 131 l 360 311 l 383 269 l 71 89 m 24 168 l 0 210 l 313 390 l 336 349 l 24 168 z "},"ٌ":{"ha":0,"x_min":0,"x_max":356,"o":"m 32 88 l 0 271 l 46 279 l 79 97 l 32 88 m 285 217 q 195 206 243 193 q 122 263 147 219 q 109 356 97 307 q 163 428 121 404 q 256 441 207 454 q 332 383 306 428 q 342 291 356 340 q 285 217 329 242 m 79 97 l 56 139 l 264 258 l 285 217 l 79 97 m 264 258 q 299 303 292 274 q 290 360 306 333 q 247 395 275 388 q 189 388 218 403 q 156 344 163 374 q 164 286 150 314 q 208 251 179 260 q 264 258 238 243 z "},"ٍ":{"ha":0,"x_min":0,"x_max":383,"o":"m 71 -24 l 47 18 l 360 199 l 383 157 l 71 -24 m 24 56 l 0 97 l 313 278 l 336 236 l 24 56 z "},"َ":{"ha":0,"x_min":0,"x_max":336,"o":"m 24 89 l 0 131 l 313 311 l 336 269 l 24 89 z "},"ُ":{"ha":0,"x_min":0,"x_max":300,"o":"m 229 208 q 140 198 188 185 q 67 254 92 211 q 53 347 42 299 q 107 419 65 396 q 201 433 151 446 q 276 375 250 419 q 287 283 300 332 q 229 208 274 233 m 24 89 l 0 131 l 208 250 l 229 208 l 24 89 m 208 250 q 243 295 236 265 q 235 351 250 325 q 191 387 219 379 q 133 379 163 394 q 101 335 107 365 q 108 278 94 306 q 153 243 124 251 q 208 250 182 235 z "},"ِ":{"ha":0,"x_min":0,"x_max":336,"o":"m 24 56 l 0 97 l 313 278 l 336 236 l 24 56 z "},"ّ":{"ha":0,"x_min":0,"x_max":361,"o":"m 257 103 q 187 133 217 103 q 157 206 157 164 l 204 206 q 221 167 204 183 q 258 150 238 150 q 297 167 281 150 q 314 206 314 183 l 361 206 q 331 133 361 164 q 257 103 301 103 m 100 103 q 30 133 60 103 q 0 206 0 164 l 47 206 q 64 167 47 183 q 101 150 81 150 q 140 167 124 150 q 157 206 157 183 l 204 206 q 174 133 204 164 q 100 103 144 103 m 0 206 l 0 278 l 47 278 l 47 206 l 0 206 m 157 206 l 157 278 l 204 278 l 204 206 l 157 206 m 314 206 l 314 278 l 361 278 l 361 206 l 314 206 z "},"ْ":{"ha":0,"x_min":0,"x_max":275,"o":"m 136 103 q 40 144 81 103 q 0 242 0 185 q 40 340 0 299 q 136 381 81 381 q 234 340 193 381 q 275 242 275 299 q 234 144 275 185 q 136 103 193 103 m 138 151 q 203 178 176 151 q 229 243 229 204 q 203 308 229 282 q 138 336 178 335 q 72 310 99 338 q 46 243 46 282 q 72 178 46 204 q 138 151 99 151 z "},"ٓ":{"ha":0,"x_min":0,"x_max":438,"o":"m 0 -53 q 35 -28 32 -49 q 39 22 39 -7 l 39 100 l 108 111 l 108 22 q 94 -33 108 -15 q 61 -55 81 -50 q 24 -57 42 -60 q 0 -53 7 -54 m 64 0 l 64 69 l 325 69 l 325 0 l 64 0 m 299 0 l 299 69 l 347 69 q 369 75 358 69 q 385 92 379 81 l 438 0 l 299 0 z "},"ٚ":{"ha":0,"x_min":0,"x_max":344,"o":"m 0 107 l 65 172 l 192 40 l 151 31 l 279 172 l 344 106 l 174 -69 l 0 107 z "},"ۡ":{"ha":0,"x_min":0,"x_max":318,"o":"m 43 332 l 43 381 l 318 381 l 318 332 l 43 332 m 43 272 l 0 293 l 43 381 l 86 360 l 43 272 m 46 107 l 38 156 q 129 192 83 164 q 213 261 175 219 q 274 351 251 303 l 318 332 q 252 233 294 281 q 156 151 210 185 q 46 107 103 117 z "},"A":{"ha":967,"x_min":17,"x_max":950,"o":"m 17 0 l 478 1063 l 489 1063 l 950 0 l 717 0 l 422 747 l 568 847 l 215 0 l 17 0 m 332 369 l 639 369 l 710 200 l 269 200 l 332 369 z "},"Á":{"ha":967,"x_min":17,"x_max":950,"o":"m 17 0 l 478 1063 l 489 1063 l 950 0 l 717 0 l 422 747 l 568 847 l 215 0 l 17 0 m 332 369 l 639 369 l 710 200 l 269 200 l 332 369 m 742 1304 l 536 1117 l 418 1117 l 526 1304 l 742 1304 z "},"Ă":{"ha":967,"x_min":17,"x_max":950,"o":"m 17 0 l 478 1063 l 489 1063 l 950 0 l 717 0 l 422 747 l 568 847 l 215 0 l 17 0 m 332 369 l 639 369 l 710 200 l 269 200 l 332 369 m 483 1117 q 330 1181 386 1117 q 250 1376 274 1246 l 379 1376 q 413 1281 392 1317 q 483 1246 435 1246 q 553 1281 532 1246 q 586 1376 574 1317 l 715 1376 q 637 1179 693 1242 q 483 1117 581 1117 z "},"Ắ":{"ha":967,"x_min":17,"x_max":950,"o":"m 17 0 l 478 1063 l 489 1063 l 950 0 l 717 0 l 422 747 l 568 847 l 215 0 l 17 0 m 332 369 l 639 369 l 710 200 l 269 200 l 332 369 m 483 1117 q 330 1181 386 1117 q 250 1376 274 1246 l 379 1376 q 413 1281 392 1317 q 483 1246 435 1246 q 553 1281 532 1246 q 586 1376 574 1317 l 715 1376 q 637 1179 693 1242 q 483 1117 581 1117 m 740 1614 l 535 1426 l 417 1426 l 525 1614 l 740 1614 z "},"Ặ":{"ha":967,"x_min":17,"x_max":950,"o":"m 17 0 l 478 1063 l 489 1063 l 950 0 l 717 0 l 422 747 l 568 847 l 215 0 l 17 0 m 332 369 l 639 369 l 710 200 l 269 200 l 332 369 m 374 -162 q 408 -92 374 -119 q 481 -64 442 -64 q 552 -92 519 -64 q 585 -162 585 -119 q 552 -233 585 -206 q 481 -260 519 -260 q 408 -233 442 -260 q 374 -162 374 -206 m 483 1117 q 330 1181 386 1117 q 250 1376 274 1246 l 379 1376 q 413 1281 392 1317 q 483 1246 435 1246 q 553 1281 532 1246 q 586 1376 574 1317 l 715 1376 q 637 1179 693 1242 q 483 1117 581 1117 z "},"Ằ":{"ha":967,"x_min":17,"x_max":950,"o":"m 17 0 l 478 1063 l 489 1063 l 950 0 l 717 0 l 422 747 l 568 847 l 215 0 l 17 0 m 332 369 l 639 369 l 710 200 l 269 200 l 332 369 m 483 1117 q 330 1181 386 1117 q 250 1376 274 1246 l 379 1376 q 413 1281 392 1317 q 483 1246 435 1246 q 553 1281 532 1246 q 586 1376 574 1317 l 715 1376 q 637 1179 693 1242 q 483 1117 581 1117 m 224 1619 l 439 1619 l 525 1432 l 407 1432 l 224 1619 z "},"Ẳ":{"ha":967,"x_min":17,"x_max":950,"o":"m 17 0 l 478 1063 l 489 1063 l 950 0 l 717 0 l 422 747 l 568 847 l 215 0 l 17 0 m 332 369 l 639 369 l 710 200 l 269 200 l 332 369 m 483 1117 q 330 1181 386 1117 q 250 1376 274 1246 l 379 1376 q 413 1281 392 1317 q 483 1246 435 1246 q 553 1281 532 1246 q 586 1376 574 1317 l 715 1376 q 637 1179 693 1242 q 483 1117 581 1117 m 468 1501 q 507 1535 492 1518 q 522 1575 522 1551 q 513 1608 522 1594 q 482 1621 504 1621 q 449 1610 464 1621 q 428 1583 435 1599 l 358 1625 q 424 1701 382 1676 q 508 1725 465 1725 q 579 1706 553 1725 q 617 1659 606 1688 q 629 1603 629 1631 q 593 1513 629 1549 q 508 1450 557 1476 l 468 1501 z "},"Ẵ":{"ha":967,"x_min":17,"x_max":950,"o":"m 17 0 l 478 1063 l 489 1063 l 950 0 l 717 0 l 422 747 l 568 847 l 215 0 l 17 0 m 332 369 l 639 369 l 710 200 l 269 200 l 332 369 m 483 1117 q 330 1181 386 1117 q 250 1376 274 1246 l 379 1376 q 413 1281 392 1317 q 483 1246 435 1246 q 553 1281 532 1246 q 586 1376 574 1317 l 715 1376 q 637 1179 693 1242 q 483 1117 581 1117 m 590 1481 q 511 1501 543 1481 q 453 1542 479 1521 q 423 1564 438 1554 q 392 1574 408 1574 q 355 1544 364 1574 q 350 1483 346 1514 l 253 1483 q 262 1586 246 1538 q 313 1665 278 1635 q 403 1696 349 1696 q 465 1676 438 1696 q 517 1638 493 1657 q 553 1608 536 1621 q 586 1596 569 1596 q 617 1627 613 1596 q 621 1692 622 1658 l 718 1692 q 713 1584 728 1632 q 665 1508 697 1536 q 590 1481 632 1481 z "},"Â":{"ha":967,"x_min":17,"x_max":950,"o":"m 17 0 l 478 1063 l 489 1063 l 950 0 l 717 0 l 422 747 l 568 847 l 215 0 l 17 0 m 332 369 l 639 369 l 710 200 l 269 200 l 332 369 m 557 1133 l 449 1236 l 496 1250 l 386 1133 l 211 1133 l 468 1389 l 469 1389 l 732 1133 l 557 1133 z "},"Ấ":{"ha":967,"x_min":17,"x_max":950,"o":"m 17 0 l 478 1063 l 489 1063 l 950 0 l 717 0 l 422 747 l 568 847 l 215 0 l 17 0 m 332 369 l 639 369 l 710 200 l 269 200 l 332 369 m 575 1150 l 467 1253 l 514 1267 l 404 1150 l 229 1150 l 486 1406 l 488 1406 l 750 1150 l 575 1150 m 932 1486 l 726 1299 l 608 1299 l 717 1486 l 932 1486 z "},"Ậ":{"ha":967,"x_min":17,"x_max":950,"o":"m 17 0 l 478 1063 l 489 1063 l 950 0 l 717 0 l 422 747 l 568 847 l 215 0 l 17 0 m 332 369 l 639 369 l 710 200 l 269 200 l 332 369 m 374 -162 q 408 -92 374 -119 q 481 -64 442 -64 q 552 -92 519 -64 q 585 -162 585 -119 q 552 -233 585 -206 q 481 -260 519 -260 q 408 -233 442 -260 q 374 -162 374 -206 m 557 1133 l 449 1236 l 496 1250 l 386 1133 l 211 1133 l 468 1389 l 469 1389 l 732 1133 l 557 1133 z "},"Ầ":{"ha":967,"x_min":-10,"x_max":950,"o":"m 17 0 l 478 1063 l 489 1063 l 950 0 l 717 0 l 422 747 l 568 847 l 215 0 l 17 0 m 332 369 l 639 369 l 710 200 l 269 200 l 332 369 m 564 1150 l 456 1253 l 503 1267 l 393 1150 l 218 1150 l 475 1406 l 476 1406 l 739 1150 l 564 1150 m -10 1492 l 206 1492 l 292 1304 l 174 1304 l -10 1492 z "},"Ẩ":{"ha":967,"x_min":17,"x_max":950,"o":"m 17 0 l 478 1063 l 489 1063 l 950 0 l 717 0 l 422 747 l 568 847 l 215 0 l 17 0 m 332 369 l 639 369 l 710 200 l 269 200 l 332 369 m 569 1150 l 461 1253 l 508 1267 l 399 1150 l 224 1150 l 481 1406 l 482 1406 l 744 1150 l 569 1150 m 746 1304 q 785 1338 769 1321 q 800 1378 800 1354 q 791 1410 800 1397 q 760 1424 782 1424 q 727 1413 742 1424 q 706 1386 713 1401 l 636 1428 q 701 1503 660 1479 q 786 1528 743 1528 q 857 1509 831 1528 q 895 1462 883 1490 q 907 1406 907 1433 q 871 1315 907 1351 q 786 1253 835 1279 l 746 1304 z "},"Ẫ":{"ha":967,"x_min":17,"x_max":950,"o":"m 17 0 l 478 1063 l 489 1063 l 950 0 l 717 0 l 422 747 l 568 847 l 215 0 l 17 0 m 332 369 l 639 369 l 710 200 l 269 200 l 332 369 m 558 1150 l 450 1253 l 497 1267 l 388 1150 l 213 1150 l 469 1406 l 471 1406 l 733 1150 l 558 1150 m 585 1446 q 506 1466 538 1446 q 447 1507 474 1486 q 417 1529 432 1519 q 386 1539 403 1539 q 349 1509 358 1539 q 344 1449 340 1479 l 247 1449 q 256 1551 240 1503 q 308 1631 272 1600 q 397 1661 343 1661 q 460 1642 432 1661 q 511 1603 488 1622 q 547 1574 531 1586 q 581 1561 564 1561 q 612 1592 607 1561 q 615 1657 617 1624 l 713 1657 q 707 1549 722 1597 q 659 1474 692 1501 q 585 1446 626 1446 z "},"Ȁ":{"ha":967,"x_min":17,"x_max":950,"o":"m 17 0 l 478 1063 l 489 1063 l 950 0 l 717 0 l 422 747 l 568 847 l 215 0 l 17 0 m 332 369 l 639 369 l 710 200 l 269 200 l 332 369 m 156 1314 l 371 1314 l 457 1126 l 339 1126 l 156 1314 m 392 1314 l 607 1314 l 693 1126 l 575 1126 l 392 1314 z "},"Ä":{"ha":967,"x_min":17,"x_max":950,"o":"m 17 0 l 478 1063 l 489 1063 l 950 0 l 717 0 l 422 747 l 568 847 l 215 0 l 17 0 m 332 369 l 639 369 l 710 200 l 269 200 l 332 369 m 236 1214 q 267 1287 236 1258 q 336 1315 299 1315 q 402 1287 371 1315 q 433 1214 433 1258 q 402 1142 433 1169 q 336 1114 371 1114 q 267 1142 299 1114 q 236 1214 236 1169 l 236 1214 m 514 1214 q 545 1287 514 1258 q 614 1315 576 1315 q 680 1287 649 1315 q 711 1214 711 1258 q 680 1142 711 1169 q 614 1114 649 1114 q 545 1142 576 1114 q 514 1214 514 1169 l 514 1214 z "},"Ạ":{"ha":967,"x_min":17,"x_max":950,"o":"m 17 0 l 478 1063 l 489 1063 l 950 0 l 717 0 l 422 747 l 568 847 l 215 0 l 17 0 m 332 369 l 639 369 l 710 200 l 269 200 l 332 369 m 374 -162 q 408 -92 374 -119 q 481 -64 442 -64 q 552 -92 519 -64 q 585 -162 585 -119 q 552 -233 585 -206 q 481 -260 519 -260 q 408 -233 442 -260 q 374 -162 374 -206 z "},"À":{"ha":967,"x_min":17,"x_max":950,"o":"m 17 0 l 478 1063 l 489 1063 l 950 0 l 717 0 l 422 747 l 568 847 l 215 0 l 17 0 m 332 369 l 639 369 l 710 200 l 269 200 l 332 369 m 225 1310 l 440 1310 l 526 1122 l 408 1122 l 225 1310 z "},"Ả":{"ha":967,"x_min":17,"x_max":950,"o":"m 17 0 l 478 1063 l 489 1063 l 950 0 l 717 0 l 422 747 l 568 847 l 215 0 l 17 0 m 332 369 l 639 369 l 710 200 l 269 200 l 332 369 m 469 1192 q 508 1225 493 1208 q 524 1265 524 1242 q 515 1298 524 1285 q 483 1311 506 1311 q 451 1300 465 1311 q 429 1274 436 1289 l 360 1315 q 425 1391 383 1367 q 510 1415 467 1415 q 581 1397 554 1415 q 619 1349 607 1378 q 631 1293 631 1321 q 594 1203 631 1239 q 510 1140 558 1167 l 469 1192 z "},"Ȃ":{"ha":967,"x_min":17,"x_max":950,"o":"m 17 0 l 478 1063 l 489 1063 l 950 0 l 717 0 l 422 747 l 568 847 l 215 0 l 17 0 m 332 369 l 639 369 l 710 200 l 269 200 l 332 369 m 475 1339 q 630 1275 574 1339 q 708 1079 686 1211 l 579 1079 q 545 1174 567 1139 q 475 1210 524 1210 q 406 1174 426 1210 q 372 1079 385 1139 l 243 1079 q 322 1277 267 1215 q 475 1339 378 1339 z "},"Ā":{"ha":967,"x_min":17,"x_max":950,"o":"m 17 0 l 478 1063 l 489 1063 l 950 0 l 717 0 l 422 747 l 568 847 l 215 0 l 17 0 m 332 369 l 639 369 l 710 200 l 269 200 l 332 369 m 300 1260 l 654 1260 l 654 1125 l 300 1125 l 300 1260 z "},"Ą":{"ha":967,"x_min":17,"x_max":1003,"o":"m 17 0 l 478 1063 l 489 1063 l 950 0 l 717 0 l 422 747 l 568 847 l 215 0 l 17 0 m 332 369 l 639 369 l 710 200 l 269 200 l 332 369 m 815 -322 q 672 -273 731 -322 q 613 -143 613 -224 q 643 -53 613 -97 q 731 14 674 -8 l 950 0 q 822 -59 871 -31 q 772 -128 772 -87 q 791 -174 772 -162 q 833 -186 810 -186 q 933 -118 888 -186 l 1003 -218 q 918 -293 972 -264 q 815 -322 864 -322 z "},"Å":{"ha":967,"x_min":17,"x_max":950,"o":"m 17 0 l 478 1063 l 489 1063 l 950 0 l 717 0 l 422 747 l 568 847 l 215 0 l 17 0 m 332 369 l 639 369 l 710 200 l 269 200 l 332 369 m 333 1250 q 377 1356 333 1317 q 489 1394 421 1394 q 599 1356 554 1394 q 643 1250 643 1317 q 599 1144 643 1185 q 489 1104 554 1104 q 378 1144 422 1104 q 333 1250 333 1185 m 435 1247 q 449 1206 435 1221 q 489 1190 464 1190 q 528 1206 514 1190 q 543 1247 543 1221 q 528 1291 543 1276 q 489 1306 514 1306 q 449 1291 464 1306 q 435 1247 435 1276 z "},"Ǻ":{"ha":967,"x_min":17,"x_max":950,"o":"m 17 0 l 478 1063 l 489 1063 l 950 0 l 717 0 l 422 747 l 568 847 l 215 0 l 17 0 m 332 369 l 639 369 l 710 200 l 269 200 l 332 369 m 333 1250 q 377 1356 333 1317 q 489 1394 421 1394 q 599 1356 554 1394 q 643 1250 643 1317 q 599 1144 643 1185 q 489 1104 554 1104 q 378 1144 422 1104 q 333 1250 333 1185 m 435 1247 q 449 1206 435 1221 q 489 1190 464 1190 q 528 1206 514 1190 q 543 1247 543 1221 q 528 1291 543 1276 q 489 1306 514 1306 q 449 1291 464 1306 q 435 1247 435 1276 m 742 1635 l 536 1447 l 418 1447 l 526 1635 l 742 1635 z "},"Ã":{"ha":967,"x_min":17,"x_max":950,"o":"m 17 0 l 478 1063 l 489 1063 l 950 0 l 717 0 l 422 747 l 568 847 l 215 0 l 17 0 m 332 369 l 639 369 l 710 200 l 269 200 l 332 369 m 592 1171 q 513 1191 544 1171 q 454 1232 481 1211 q 424 1254 439 1244 q 393 1264 410 1264 q 356 1234 365 1264 q 351 1174 347 1204 l 254 1174 q 263 1276 247 1228 q 315 1356 279 1325 q 404 1386 350 1386 q 467 1367 439 1386 q 518 1328 494 1347 q 554 1299 538 1311 q 588 1286 571 1286 q 619 1317 614 1286 q 622 1382 624 1349 l 719 1382 q 714 1274 729 1322 q 666 1199 699 1226 q 592 1171 633 1171 z "},"Æ":{"ha":1343,"x_min":7,"x_max":1267,"o":"m 675 1022 l 1247 1022 l 1247 828 l 876 828 l 876 607 l 1190 607 l 1190 413 l 876 413 l 876 194 l 1267 194 l 1267 0 l 675 0 l 675 1022 m 696 785 q 687 749 693 769 q 681 728 681 728 l 240 0 l 7 0 l 675 1022 l 696 785 m 378 383 l 699 383 l 699 224 l 315 224 l 378 383 z "},"Ǽ":{"ha":1343,"x_min":7,"x_max":1267,"o":"m 675 1022 l 1247 1022 l 1247 828 l 876 828 l 876 607 l 1190 607 l 1190 413 l 876 413 l 876 194 l 1267 194 l 1267 0 l 675 0 l 675 1022 m 696 785 q 687 749 693 769 q 681 728 681 728 l 240 0 l 7 0 l 675 1022 l 696 785 m 378 383 l 699 383 l 699 224 l 315 224 l 378 383 m 1193 1276 l 988 1089 l 869 1089 l 978 1276 l 1193 1276 z "},"B":{"ha":899,"x_min":132,"x_max":829,"o":"m 432 1022 q 686 958 592 1022 q 781 765 781 893 q 734 608 781 671 q 608 513 688 544 q 425 482 528 482 l 393 590 q 617 556 519 590 q 772 456 715 521 q 829 301 829 392 q 799 160 829 218 q 719 67 769 103 q 604 16 668 32 q 472 0 540 0 l 132 0 l 132 1022 l 432 1022 m 456 604 q 544 640 515 604 q 572 722 572 676 q 537 801 572 775 q 442 828 501 828 l 333 828 l 333 604 l 456 604 m 463 188 q 575 215 529 188 q 621 301 621 242 q 596 369 621 346 q 531 401 571 392 q 449 410 492 410 l 333 410 l 333 188 l 463 188 z "},"C":{"ha":968,"x_min":69,"x_max":899,"o":"m 899 85 q 837 47 882 71 q 726 6 792 24 q 582 -11 661 -12 q 366 33 461 -8 q 205 144 271 74 q 104 307 139 215 q 69 503 69 399 q 105 717 69 619 q 206 885 140 814 q 364 994 272 956 q 567 1033 456 1033 q 749 1006 669 1033 q 878 946 828 978 l 799 756 q 706 810 764 782 q 574 839 649 839 q 428 796 496 839 q 320 680 361 753 q 279 514 279 607 q 317 341 279 415 q 424 225 354 267 q 586 183 493 183 q 726 210 668 183 q 815 265 785 236 l 899 85 z "},"Ć":{"ha":968,"x_min":69,"x_max":899,"o":"m 899 85 q 837 47 882 71 q 726 6 792 24 q 582 -11 661 -12 q 366 33 461 -8 q 205 144 271 74 q 104 307 139 215 q 69 503 69 399 q 105 717 69 619 q 206 885 140 814 q 364 994 272 956 q 567 1033 456 1033 q 749 1006 669 1033 q 878 946 828 978 l 799 756 q 706 810 764 782 q 574 839 649 839 q 428 796 496 839 q 320 680 361 753 q 279 514 279 607 q 317 341 279 415 q 424 225 354 267 q 586 183 493 183 q 726 210 668 183 q 815 265 785 236 l 899 85 m 799 1276 l 593 1089 l 475 1089 l 583 1276 l 799 1276 z "},"Č":{"ha":968,"x_min":69,"x_max":899,"o":"m 899 85 q 837 47 882 71 q 726 6 792 24 q 582 -11 661 -12 q 366 33 461 -8 q 205 144 271 74 q 104 307 139 215 q 69 503 69 399 q 105 717 69 619 q 206 885 140 814 q 364 994 272 956 q 567 1033 456 1033 q 749 1006 669 1033 q 878 946 828 978 l 799 756 q 706 810 764 782 q 574 839 649 839 q 428 796 496 839 q 320 680 361 753 q 279 514 279 607 q 317 341 279 415 q 424 225 354 267 q 586 183 493 183 q 726 210 668 183 q 815 265 785 236 l 899 85 m 451 1329 l 560 1226 l 513 1213 l 622 1329 l 797 1329 l 540 1074 l 539 1074 l 276 1329 l 451 1329 z "},"Ç":{"ha":968,"x_min":69,"x_max":899,"o":"m 899 85 q 837 47 882 71 q 726 6 792 24 q 582 -11 661 -12 q 366 33 461 -8 q 205 144 271 74 q 104 307 139 215 q 69 503 69 399 q 105 717 69 619 q 206 885 140 814 q 364 994 272 956 q 567 1033 456 1033 q 749 1006 669 1033 q 878 946 828 978 l 799 756 q 706 810 764 782 q 574 839 649 839 q 428 796 496 839 q 320 680 361 753 q 279 514 279 607 q 317 341 279 415 q 424 225 354 267 q 586 183 493 183 q 726 210 668 183 q 815 265 785 236 l 899 85 m 440 -189 q 476 -216 454 -206 q 524 -226 497 -226 q 573 -214 547 -226 q 599 -176 599 -201 q 585 -146 599 -161 q 525 -131 571 -131 q 482 -135 503 -131 q 442 -146 461 -140 l 415 -54 l 511 17 l 660 17 l 553 -103 l 517 -54 q 547 -50 532 -51 q 575 -47 561 -49 q 706 -76 653 -44 q 760 -174 760 -108 q 728 -260 760 -226 q 648 -311 697 -294 q 543 -328 599 -328 q 443 -309 482 -328 q 381 -265 404 -290 l 440 -189 z "},"Ĉ":{"ha":968,"x_min":69,"x_max":899,"o":"m 899 85 q 837 47 882 71 q 726 6 792 24 q 582 -11 661 -12 q 366 33 461 -8 q 205 144 271 74 q 104 307 139 215 q 69 503 69 399 q 105 717 69 619 q 206 885 140 814 q 364 994 272 956 q 567 1033 456 1033 q 749 1006 669 1033 q 878 946 828 978 l 799 756 q 706 810 764 782 q 574 839 649 839 q 428 796 496 839 q 320 680 361 753 q 279 514 279 607 q 317 341 279 415 q 424 225 354 267 q 586 183 493 183 q 726 210 668 183 q 815 265 785 236 l 899 85 m 614 1106 l 506 1208 l 553 1222 l 443 1106 l 268 1106 l 525 1361 l 526 1361 l 789 1106 l 614 1106 z "},"Ċ":{"ha":968,"x_min":69,"x_max":899,"o":"m 899 85 q 837 47 882 71 q 726 6 792 24 q 582 -11 661 -12 q 366 33 461 -8 q 205 144 271 74 q 104 307 139 215 q 69 503 69 399 q 105 717 69 619 q 206 885 140 814 q 364 994 272 956 q 567 1033 456 1033 q 749 1006 669 1033 q 878 946 828 978 l 799 756 q 706 810 764 782 q 574 839 649 839 q 428 796 496 839 q 320 680 361 753 q 279 514 279 607 q 317 341 279 415 q 424 225 354 267 q 586 183 493 183 q 726 210 668 183 q 815 265 785 236 l 899 85 m 435 1182 q 469 1253 435 1225 q 542 1281 503 1281 q 613 1253 581 1281 q 646 1182 646 1225 q 613 1112 646 1139 q 542 1085 581 1085 q 469 1112 503 1085 q 435 1182 435 1139 z "},"D":{"ha":1071,"x_min":132,"x_max":1001,"o":"m 132 0 l 132 1022 l 438 1022 q 700 976 592 1022 q 874 854 808 931 q 971 683 940 778 q 1001 493 1001 589 q 960 288 1001 379 q 849 133 919 197 q 685 34 778 68 q 488 0 592 0 l 132 0 m 333 194 l 453 194 q 632 230 556 194 q 751 335 708 265 q 793 507 793 404 q 760 670 793 607 q 680 768 728 733 q 582 816 632 803 q 497 829 532 829 l 333 829 l 333 194 z "},"Ǆ":{"ha":1942,"x_min":132,"x_max":1872,"o":"m 132 0 l 132 1022 l 438 1022 q 700 976 592 1022 q 874 854 808 931 q 971 683 940 778 q 1001 493 1001 589 q 960 288 1001 379 q 849 133 919 197 q 685 34 778 68 q 488 0 592 0 l 132 0 m 333 194 l 453 194 q 632 230 556 194 q 751 335 708 265 q 793 507 793 404 q 760 670 793 607 q 680 768 728 733 q 582 816 632 803 q 497 829 532 829 l 333 829 l 333 194 m 1001 0 q 1025 38 1001 0 q 1088 138 1049 75 q 1177 279 1128 200 q 1278 442 1226 358 q 1380 604 1331 525 q 1469 746 1429 683 q 1532 846 1508 808 q 1556 883 1556 883 l 1578 828 l 1210 828 q 1149 841 1181 828 q 1097 877 1118 854 q 1075 928 1075 900 l 1075 1074 l 1260 1074 l 1260 1054 q 1269 1023 1260 1024 q 1304 1022 1279 1022 l 1872 1022 l 1333 172 l 1322 194 l 1871 194 l 1871 0 l 1001 0 m 1351 1301 l 1460 1199 l 1413 1185 l 1522 1301 l 1697 1301 l 1440 1046 l 1439 1046 l 1176 1301 l 1351 1301 z "},"Ð":{"ha":1071,"x_min":28,"x_max":1001,"o":"m 132 0 l 132 1022 l 438 1022 q 700 976 592 1022 q 874 854 808 931 q 971 683 940 778 q 1001 493 1001 589 q 960 288 1001 379 q 849 133 919 197 q 685 34 778 68 q 488 0 592 0 l 132 0 m 333 194 l 453 194 q 632 230 556 194 q 751 335 708 265 q 793 507 793 404 q 760 670 793 607 q 680 768 728 733 q 582 816 632 803 q 497 829 532 829 l 333 829 l 333 194 m 28 596 l 465 596 l 465 415 l 28 415 l 28 596 z "},"Ď":{"ha":1071,"x_min":132,"x_max":1001,"o":"m 132 0 l 132 1022 l 438 1022 q 700 976 592 1022 q 874 854 808 931 q 971 683 940 778 q 1001 493 1001 589 q 960 288 1001 379 q 849 133 919 197 q 685 34 778 68 q 488 0 592 0 l 132 0 m 333 194 l 453 194 q 632 230 556 194 q 751 335 708 265 q 793 507 793 404 q 760 670 793 607 q 680 768 728 733 q 582 816 632 803 q 497 829 532 829 l 333 829 l 333 194 m 353 1301 l 461 1199 l 414 1185 l 524 1301 l 699 1301 l 442 1046 l 440 1046 l 178 1301 l 353 1301 z "},"Đ":{"ha":1090,"x_min":47,"x_max":1021,"o":"m 151 0 l 151 1022 l 457 1022 q 719 976 611 1022 q 894 854 828 931 q 990 683 960 778 q 1021 493 1021 589 q 980 288 1021 379 q 868 133 939 197 q 704 34 797 68 q 507 0 611 0 l 151 0 m 353 194 l 472 194 q 651 230 575 194 q 770 335 728 265 q 813 507 813 404 q 780 670 813 607 q 699 768 747 733 q 601 816 651 803 q 517 829 551 829 l 353 829 l 353 194 m 47 596 l 485 596 l 485 415 l 47 415 l 47 596 z "},"ǅ":{"ha":1796,"x_min":132,"x_max":1718,"o":"m 132 0 l 132 1022 l 438 1022 q 700 976 592 1022 q 874 854 808 931 q 971 683 940 778 q 1001 493 1001 589 q 960 288 1001 379 q 849 133 919 197 q 685 34 778 68 q 488 0 592 0 l 132 0 m 333 194 l 453 194 q 632 230 556 194 q 751 335 708 265 q 793 507 793 404 q 760 670 793 607 q 680 768 728 733 q 582 816 632 803 q 497 829 532 829 l 333 829 l 333 194 m 1265 449 q 1178 485 1215 449 q 1140 582 1140 521 l 1140 665 l 1286 665 l 1286 646 q 1297 612 1286 617 q 1333 607 1307 607 l 1718 607 l 1382 118 l 1346 158 l 1714 158 l 1714 0 l 1099 0 l 1444 504 l 1474 449 l 1265 449 m 1363 935 l 1471 832 l 1424 818 l 1533 935 l 1708 935 l 1451 679 l 1450 679 l 1188 935 l 1363 935 z "},"E":{"ha":925,"x_min":132,"x_max":849,"o":"m 132 1022 l 829 1022 l 829 828 l 333 828 l 333 610 l 772 610 l 772 415 l 333 415 l 333 194 l 849 194 l 849 0 l 132 0 l 132 1022 z "},"É":{"ha":925,"x_min":132,"x_max":849,"o":"m 132 1022 l 829 1022 l 829 828 l 333 828 l 333 610 l 772 610 l 772 415 l 333 415 l 333 194 l 849 194 l 849 0 l 132 0 l 132 1022 m 739 1276 l 533 1089 l 415 1089 l 524 1276 l 739 1276 z "},"Ĕ":{"ha":925,"x_min":132,"x_max":849,"o":"m 132 1022 l 829 1022 l 829 828 l 333 828 l 333 610 l 772 610 l 772 415 l 333 415 l 333 194 l 849 194 l 849 0 l 132 0 l 132 1022 m 481 1089 q 327 1153 383 1089 q 247 1349 271 1218 l 376 1349 q 410 1253 389 1289 q 481 1218 432 1218 q 550 1253 529 1218 q 583 1349 571 1289 l 713 1349 q 634 1151 690 1214 q 481 1089 578 1089 z "},"Ě":{"ha":925,"x_min":132,"x_max":849,"o":"m 132 1022 l 829 1022 l 829 828 l 333 828 l 333 610 l 772 610 l 772 415 l 333 415 l 333 194 l 849 194 l 849 0 l 132 0 l 132 1022 m 392 1329 l 500 1226 l 453 1213 l 563 1329 l 738 1329 l 481 1074 l 479 1074 l 217 1329 l 392 1329 z "},"Ê":{"ha":925,"x_min":132,"x_max":849,"o":"m 132 1022 l 829 1022 l 829 828 l 333 828 l 333 610 l 772 610 l 772 415 l 333 415 l 333 194 l 849 194 l 849 0 l 132 0 l 132 1022 m 554 1106 l 446 1208 l 493 1222 l 383 1106 l 208 1106 l 465 1361 l 467 1361 l 729 1106 l 554 1106 z "},"Ế":{"ha":925,"x_min":132,"x_max":929,"o":"m 132 1022 l 829 1022 l 829 828 l 333 828 l 333 610 l 772 610 l 772 415 l 333 415 l 333 194 l 849 194 l 849 0 l 132 0 l 132 1022 m 572 1122 l 464 1225 l 511 1239 l 401 1122 l 226 1122 l 483 1378 l 485 1378 l 747 1122 l 572 1122 m 929 1458 l 724 1271 l 606 1271 l 714 1458 l 929 1458 z "},"Ệ":{"ha":925,"x_min":132,"x_max":849,"o":"m 132 1022 l 829 1022 l 829 828 l 333 828 l 333 610 l 772 610 l 772 415 l 333 415 l 333 194 l 849 194 l 849 0 l 132 0 l 132 1022 m 371 -162 q 405 -92 371 -119 q 478 -64 439 -64 q 549 -92 517 -64 q 582 -162 582 -119 q 549 -233 582 -206 q 478 -260 517 -260 q 405 -233 439 -260 q 371 -162 371 -206 m 554 1106 l 446 1208 l 493 1222 l 383 1106 l 208 1106 l 465 1361 l 467 1361 l 729 1106 l 554 1106 z "},"Ề":{"ha":925,"x_min":-12,"x_max":849,"o":"m 132 1022 l 829 1022 l 829 828 l 333 828 l 333 610 l 772 610 l 772 415 l 333 415 l 333 194 l 849 194 l 849 0 l 132 0 l 132 1022 m 561 1122 l 453 1225 l 500 1239 l 390 1122 l 215 1122 l 472 1378 l 474 1378 l 736 1122 l 561 1122 m -12 1464 l 203 1464 l 289 1276 l 171 1276 l -12 1464 z "},"Ể":{"ha":925,"x_min":132,"x_max":904,"o":"m 132 1022 l 829 1022 l 829 828 l 333 828 l 333 610 l 772 610 l 772 415 l 333 415 l 333 194 l 849 194 l 849 0 l 132 0 l 132 1022 m 567 1122 l 458 1225 l 506 1239 l 396 1122 l 221 1122 l 478 1378 l 479 1378 l 742 1122 l 567 1122 m 743 1276 q 782 1310 767 1293 q 797 1350 797 1326 q 788 1383 797 1369 q 757 1396 779 1396 q 724 1385 739 1396 q 703 1358 710 1374 l 633 1400 q 699 1476 657 1451 q 783 1500 740 1500 q 854 1481 828 1500 q 892 1434 881 1463 q 904 1378 904 1406 q 868 1288 904 1324 q 783 1225 832 1251 l 743 1276 z "},"Ễ":{"ha":925,"x_min":132,"x_max":849,"o":"m 132 1022 l 829 1022 l 829 828 l 333 828 l 333 610 l 772 610 l 772 415 l 333 415 l 333 194 l 849 194 l 849 0 l 132 0 l 132 1022 m 556 1122 l 447 1225 l 494 1239 l 385 1122 l 210 1122 l 467 1378 l 468 1378 l 731 1122 l 556 1122 m 582 1418 q 503 1438 535 1418 q 444 1479 471 1458 q 415 1501 429 1492 q 383 1511 400 1511 q 347 1481 356 1511 q 342 1421 338 1451 l 244 1421 q 253 1524 238 1475 q 305 1603 269 1572 q 394 1633 340 1633 q 457 1614 429 1633 q 508 1575 485 1594 q 544 1546 528 1558 q 578 1533 561 1533 q 609 1565 604 1533 q 613 1629 614 1596 l 710 1629 q 704 1522 719 1569 q 656 1446 689 1474 q 582 1418 624 1418 z "},"Ȅ":{"ha":925,"x_min":132,"x_max":849,"o":"m 132 1022 l 829 1022 l 829 828 l 333 828 l 333 610 l 772 610 l 772 415 l 333 415 l 333 194 l 849 194 l 849 0 l 132 0 l 132 1022 m 153 1286 l 368 1286 l 454 1099 l 336 1099 l 153 1286 m 389 1286 l 604 1286 l 690 1099 l 572 1099 l 389 1286 z "},"Ë":{"ha":925,"x_min":132,"x_max":849,"o":"m 132 1022 l 829 1022 l 829 828 l 333 828 l 333 610 l 772 610 l 772 415 l 333 415 l 333 194 l 849 194 l 849 0 l 132 0 l 132 1022 m 233 1186 q 265 1259 233 1231 q 333 1288 296 1288 q 399 1259 368 1288 q 431 1186 431 1231 q 399 1114 431 1142 q 333 1086 368 1086 q 265 1114 296 1086 q 233 1186 233 1142 l 233 1186 m 511 1186 q 542 1259 511 1231 q 611 1288 574 1288 q 677 1259 646 1288 q 708 1186 708 1231 q 677 1114 708 1142 q 611 1086 646 1086 q 542 1114 574 1086 q 511 1186 511 1142 l 511 1186 z "},"Ė":{"ha":925,"x_min":132,"x_max":849,"o":"m 132 1022 l 829 1022 l 829 828 l 333 828 l 333 610 l 772 610 l 772 415 l 333 415 l 333 194 l 849 194 l 849 0 l 132 0 l 132 1022 m 375 1182 q 409 1253 375 1225 q 482 1281 443 1281 q 553 1253 521 1281 q 586 1182 586 1225 q 553 1112 586 1139 q 482 1085 521 1085 q 409 1112 443 1085 q 375 1182 375 1139 z "},"Ẹ":{"ha":925,"x_min":132,"x_max":849,"o":"m 132 1022 l 829 1022 l 829 828 l 333 828 l 333 610 l 772 610 l 772 415 l 333 415 l 333 194 l 849 194 l 849 0 l 132 0 l 132 1022 m 371 -162 q 405 -92 371 -119 q 478 -64 439 -64 q 549 -92 517 -64 q 582 -162 582 -119 q 549 -233 582 -206 q 478 -260 517 -260 q 405 -233 439 -260 q 371 -162 371 -206 z "},"È":{"ha":925,"x_min":132,"x_max":849,"o":"m 132 1022 l 829 1022 l 829 828 l 333 828 l 333 610 l 772 610 l 772 415 l 333 415 l 333 194 l 849 194 l 849 0 l 132 0 l 132 1022 m 222 1282 l 438 1282 l 524 1094 l 406 1094 l 222 1282 z "},"Ẻ":{"ha":925,"x_min":132,"x_max":849,"o":"m 132 1022 l 829 1022 l 829 828 l 333 828 l 333 610 l 772 610 l 772 415 l 333 415 l 333 194 l 849 194 l 849 0 l 132 0 l 132 1022 m 467 1164 q 506 1197 490 1181 q 521 1238 521 1214 q 512 1270 521 1257 q 481 1283 503 1283 q 448 1272 463 1283 q 426 1246 433 1261 l 357 1288 q 422 1363 381 1339 q 507 1388 464 1388 q 578 1369 551 1388 q 616 1322 604 1350 q 628 1265 628 1293 q 592 1175 628 1211 q 507 1113 556 1139 l 467 1164 z "},"Ȇ":{"ha":925,"x_min":132,"x_max":849,"o":"m 132 1022 l 829 1022 l 829 828 l 333 828 l 333 610 l 772 610 l 772 415 l 333 415 l 333 194 l 849 194 l 849 0 l 132 0 l 132 1022 m 472 1311 q 627 1247 571 1311 q 706 1051 683 1183 l 576 1051 q 542 1147 564 1111 q 472 1182 521 1182 q 403 1147 424 1182 q 369 1051 382 1111 l 240 1051 q 319 1249 264 1188 q 472 1311 375 1311 z "},"Ē":{"ha":925,"x_min":132,"x_max":849,"o":"m 132 1022 l 829 1022 l 829 828 l 333 828 l 333 610 l 772 610 l 772 415 l 333 415 l 333 194 l 849 194 l 849 0 l 132 0 l 132 1022 m 297 1232 l 651 1232 l 651 1097 l 297 1097 l 297 1232 z "},"Ę":{"ha":925,"x_min":132,"x_max":901,"o":"m 132 1022 l 829 1022 l 829 828 l 333 828 l 333 610 l 772 610 l 772 415 l 333 415 l 333 194 l 849 194 l 849 0 l 132 0 l 132 1022 m 714 -322 q 570 -273 629 -322 q 511 -143 511 -224 q 542 -53 511 -97 q 629 14 572 -8 l 849 0 q 720 -59 769 -31 q 671 -128 671 -87 q 690 -174 671 -162 q 732 -186 708 -186 q 832 -118 786 -186 l 901 -218 q 817 -293 871 -264 q 714 -322 763 -322 z "},"Ẽ":{"ha":925,"x_min":132,"x_max":849,"o":"m 132 1022 l 829 1022 l 829 828 l 333 828 l 333 610 l 772 610 l 772 415 l 333 415 l 333 194 l 849 194 l 849 0 l 132 0 l 132 1022 m 589 1143 q 510 1163 542 1143 q 451 1204 478 1183 q 422 1226 436 1217 q 390 1236 407 1236 q 353 1206 363 1236 q 349 1146 344 1176 l 251 1146 q 260 1249 244 1200 q 312 1328 276 1297 q 401 1358 347 1358 q 464 1339 436 1358 q 515 1300 492 1319 q 551 1271 535 1283 q 585 1258 568 1258 q 616 1290 611 1258 q 619 1354 621 1321 l 717 1354 q 711 1247 726 1294 q 663 1171 696 1199 q 589 1143 631 1143 z "},"F":{"ha":833,"x_min":132,"x_max":771,"o":"m 132 1022 l 771 1022 l 771 828 l 333 828 l 333 596 l 713 596 l 713 401 l 333 401 l 333 0 l 132 0 l 132 1022 z "},"G":{"ha":1058,"x_min":69,"x_max":961,"o":"m 961 103 q 904 63 943 83 q 815 26 865 43 q 711 -1 764 10 q 611 -11 658 -11 q 324 53 446 -11 q 135 228 201 117 q 69 482 69 339 q 112 726 69 622 q 227 898 154 829 q 395 1000 300 967 q 594 1033 490 1033 q 775 1012 693 1033 q 914 958 857 990 l 849 771 q 782 799 824 785 q 697 822 740 813 q 621 831 654 831 q 434 794 511 831 q 317 683 357 757 q 278 500 278 610 q 321 335 278 404 q 441 228 364 265 q 617 190 518 190 q 696 197 660 190 q 757 217 732 203 l 757 340 l 581 340 l 581 535 l 961 535 l 961 103 z "},"Ğ":{"ha":1058,"x_min":69,"x_max":961,"o":"m 961 103 q 904 63 943 83 q 815 26 865 43 q 711 -1 764 10 q 611 -11 658 -11 q 324 53 446 -11 q 135 228 201 117 q 69 482 69 339 q 112 726 69 622 q 227 898 154 829 q 395 1000 300 967 q 594 1033 490 1033 q 775 1012 693 1033 q 914 958 857 990 l 849 771 q 782 799 824 785 q 697 822 740 813 q 621 831 654 831 q 434 794 511 831 q 317 683 357 757 q 278 500 278 610 q 321 335 278 404 q 441 228 364 265 q 617 190 518 190 q 696 197 660 190 q 757 217 732 203 l 757 340 l 581 340 l 581 535 l 961 535 l 961 103 m 571 1061 q 417 1126 474 1061 q 338 1321 361 1190 l 467 1321 q 501 1226 479 1261 q 571 1190 522 1190 q 640 1226 619 1190 q 674 1321 661 1261 l 803 1321 q 724 1124 781 1186 q 571 1061 668 1061 z "},"Ǧ":{"ha":1058,"x_min":69,"x_max":961,"o":"m 961 103 q 904 63 943 83 q 815 26 865 43 q 711 -1 764 10 q 611 -11 658 -11 q 324 53 446 -11 q 135 228 201 117 q 69 482 69 339 q 112 726 69 622 q 227 898 154 829 q 395 1000 300 967 q 594 1033 490 1033 q 775 1012 693 1033 q 914 958 857 990 l 849 771 q 782 799 824 785 q 697 822 740 813 q 621 831 654 831 q 434 794 511 831 q 317 683 357 757 q 278 500 278 610 q 321 335 278 404 q 441 228 364 265 q 617 190 518 190 q 696 197 660 190 q 757 217 732 203 l 757 340 l 581 340 l 581 535 l 961 535 l 961 103 m 482 1301 l 590 1199 l 543 1185 l 653 1301 l 828 1301 l 571 1046 l 569 1046 l 307 1301 l 482 1301 z "},"Ĝ":{"ha":1058,"x_min":69,"x_max":961,"o":"m 961 103 q 904 63 943 83 q 815 26 865 43 q 711 -1 764 10 q 611 -11 658 -11 q 324 53 446 -11 q 135 228 201 117 q 69 482 69 339 q 112 726 69 622 q 227 898 154 829 q 395 1000 300 967 q 594 1033 490 1033 q 775 1012 693 1033 q 914 958 857 990 l 849 771 q 782 799 824 785 q 697 822 740 813 q 621 831 654 831 q 434 794 511 831 q 317 683 357 757 q 278 500 278 610 q 321 335 278 404 q 441 228 364 265 q 617 190 518 190 q 696 197 660 190 q 757 217 732 203 l 757 340 l 581 340 l 581 535 l 961 535 l 961 103 m 644 1078 l 536 1181 l 583 1194 l 474 1078 l 299 1078 l 556 1333 l 557 1333 l 819 1078 l 644 1078 z "},"Ģ":{"ha":1058,"x_min":69,"x_max":961,"o":"m 961 103 q 904 63 943 83 q 815 26 865 43 q 711 -1 764 10 q 611 -11 658 -11 q 324 53 446 -11 q 135 228 201 117 q 69 482 69 339 q 112 726 69 622 q 227 898 154 829 q 395 1000 300 967 q 594 1033 490 1033 q 775 1012 693 1033 q 914 958 857 990 l 849 771 q 782 799 824 785 q 697 822 740 813 q 621 831 654 831 q 434 794 511 831 q 317 683 357 757 q 278 500 278 610 q 321 335 278 404 q 441 228 364 265 q 617 190 518 190 q 696 197 660 190 q 757 217 732 203 l 757 340 l 581 340 l 581 535 l 961 535 l 961 103 m 494 -325 l 394 -258 q 438 -173 425 -229 q 442 -68 451 -117 l 611 -69 q 606 -158 619 -108 q 565 -252 593 -207 q 494 -325 536 -297 z "},"Ġ":{"ha":1058,"x_min":69,"x_max":961,"o":"m 961 103 q 904 63 943 83 q 815 26 865 43 q 711 -1 764 10 q 611 -11 658 -11 q 324 53 446 -11 q 135 228 201 117 q 69 482 69 339 q 112 726 69 622 q 227 898 154 829 q 395 1000 300 967 q 594 1033 490 1033 q 775 1012 693 1033 q 914 958 857 990 l 849 771 q 782 799 824 785 q 697 822 740 813 q 621 831 654 831 q 434 794 511 831 q 317 683 357 757 q 278 500 278 610 q 321 335 278 404 q 441 228 364 265 q 617 190 518 190 q 696 197 660 190 q 757 217 732 203 l 757 340 l 581 340 l 581 535 l 961 535 l 961 103 m 465 1154 q 499 1225 465 1197 q 572 1253 533 1253 q 644 1225 611 1253 q 676 1154 676 1197 q 644 1084 676 1111 q 572 1057 611 1057 q 499 1084 533 1057 q 465 1154 465 1111 z "},"H":{"ha":1124,"x_min":132,"x_max":992,"o":"m 992 1022 l 992 0 l 790 0 l 790 415 l 333 415 l 333 0 l 132 0 l 132 1022 l 333 1022 l 333 610 l 790 610 l 790 1022 l 992 1022 z "},"Ħ":{"ha":1354,"x_min":132,"x_max":1222,"o":"m 132 842 l 1222 842 l 1222 693 l 132 693 l 132 842 m 1119 1022 l 1119 0 l 918 0 l 918 415 l 461 415 l 461 0 l 260 0 l 260 1022 l 461 1022 l 461 610 l 918 610 l 918 1022 l 1119 1022 z "},"Ĥ":{"ha":1124,"x_min":132,"x_max":992,"o":"m 992 1022 l 992 0 l 790 0 l 790 415 l 333 415 l 333 0 l 132 0 l 132 1022 l 333 1022 l 333 610 l 790 610 l 790 1022 l 992 1022 m 636 1078 l 528 1181 l 575 1194 l 465 1078 l 290 1078 l 547 1333 l 549 1333 l 811 1078 l 636 1078 z "},"I":{"ha":465,"x_min":132,"x_max":333,"o":"m 132 1022 l 333 1022 l 333 0 l 132 0 l 132 1022 z "},"Ĳ":{"ha":1021,"x_min":132,"x_max":889,"o":"m 132 1022 l 333 1022 l 333 0 l 132 0 l 132 1022 m 889 215 q 836 -12 889 82 q 690 -158 783 -107 q 472 -212 596 -208 l 472 -212 l 472 -17 q 626 42 567 -11 q 686 219 686 94 l 686 1022 l 889 1022 l 889 215 z "},"Í":{"ha":465,"x_min":132,"x_max":492,"o":"m 132 1022 l 333 1022 l 333 0 l 132 0 l 132 1022 m 492 1276 l 286 1089 l 168 1089 l 276 1276 l 492 1276 z "},"Ĭ":{"ha":465,"x_min":0,"x_max":465,"o":"m 132 1022 l 333 1022 l 333 0 l 132 0 l 132 1022 m 233 1089 q 80 1153 136 1089 q 0 1349 24 1218 l 129 1349 q 163 1253 142 1289 q 233 1218 185 1218 q 303 1253 282 1218 q 336 1349 324 1289 l 465 1349 q 387 1151 443 1214 q 233 1089 331 1089 z "},"Î":{"ha":465,"x_min":-39,"x_max":482,"o":"m 132 1022 l 333 1022 l 333 0 l 132 0 l 132 1022 m 307 1106 l 199 1208 l 246 1222 l 136 1106 l -39 1106 l 218 1361 l 219 1361 l 482 1106 l 307 1106 z "},"Ȉ":{"ha":465,"x_min":-94,"x_max":443,"o":"m 132 1022 l 333 1022 l 333 0 l 132 0 l 132 1022 m -94 1286 l 121 1286 l 207 1099 l 89 1099 l -94 1286 m 142 1286 l 357 1286 l 443 1099 l 325 1099 l 142 1286 z "},"Ï":{"ha":465,"x_min":-14,"x_max":461,"o":"m 132 1022 l 333 1022 l 333 0 l 132 0 l 132 1022 m -14 1186 q 17 1259 -14 1231 q 86 1288 49 1288 q 152 1259 121 1288 q 183 1186 183 1231 q 152 1114 183 1142 q 86 1086 121 1086 q 17 1114 49 1086 q -14 1186 -14 1142 l -14 1186 m 264 1186 q 295 1259 264 1231 q 364 1288 326 1288 q 430 1259 399 1288 q 461 1186 461 1231 q 430 1114 461 1142 q 364 1086 399 1086 q 295 1114 326 1086 q 264 1186 264 1142 l 264 1186 z "},"İ":{"ha":465,"x_min":128,"x_max":339,"o":"m 132 1022 l 333 1022 l 333 0 l 132 0 l 132 1022 m 128 1182 q 162 1253 128 1225 q 235 1281 196 1281 q 306 1253 274 1281 q 339 1182 339 1225 q 306 1112 339 1139 q 235 1085 274 1085 q 162 1112 196 1085 q 128 1182 128 1139 z "},"Ị":{"ha":465,"x_min":124,"x_max":335,"o":"m 132 1022 l 333 1022 l 333 0 l 132 0 l 132 1022 m 124 -162 q 158 -92 124 -119 q 231 -64 192 -64 q 302 -92 269 -64 q 335 -162 335 -119 q 302 -233 335 -206 q 231 -260 269 -260 q 158 -233 192 -260 q 124 -162 124 -206 z "},"Ì":{"ha":465,"x_min":-25,"x_max":333,"o":"m 132 1022 l 333 1022 l 333 0 l 132 0 l 132 1022 m -25 1282 l 190 1282 l 276 1094 l 158 1094 l -25 1282 z "},"Ỉ":{"ha":465,"x_min":110,"x_max":381,"o":"m 132 1022 l 333 1022 l 333 0 l 132 0 l 132 1022 m 219 1164 q 258 1197 243 1181 q 274 1238 274 1214 q 265 1270 274 1257 q 233 1283 256 1283 q 201 1272 215 1283 q 179 1246 186 1261 l 110 1288 q 175 1363 133 1339 q 260 1388 217 1388 q 331 1369 304 1388 q 369 1322 357 1350 q 381 1265 381 1293 q 344 1175 381 1211 q 260 1113 308 1139 l 219 1164 z "},"Ȋ":{"ha":465,"x_min":-7,"x_max":458,"o":"m 132 1022 l 333 1022 l 333 0 l 132 0 l 132 1022 m 225 1311 q 380 1247 324 1311 q 458 1051 436 1183 l 329 1051 q 295 1147 317 1111 q 225 1182 274 1182 q 156 1147 176 1182 q 122 1051 135 1111 l -7 1051 q 72 1249 17 1188 q 225 1311 128 1311 z "},"Ī":{"ha":465,"x_min":50,"x_max":404,"o":"m 132 1022 l 333 1022 l 333 0 l 132 0 l 132 1022 m 50 1232 l 404 1232 l 404 1097 l 50 1097 l 50 1232 z "},"Į":{"ha":396,"x_min":10,"x_max":400,"o":"m 213 -322 q 69 -280 128 -322 q 10 -157 10 -237 q 40 -67 10 -111 q 128 0 71 -22 l 292 8 l 326 0 q 213 -55 256 -26 q 169 -128 169 -83 q 188 -174 169 -162 q 231 -186 207 -186 q 331 -118 285 -186 l 400 -218 q 315 -293 369 -264 q 213 -322 261 -322 m 132 1022 l 333 1022 l 333 0 l 132 0 l 132 1022 z "},"Ĩ":{"ha":465,"x_min":-3,"x_max":479,"o":"m 132 1022 l 333 1022 l 333 0 l 132 0 l 132 1022 m 342 1143 q 263 1163 294 1143 q 204 1204 231 1183 q 174 1226 189 1217 q 143 1236 160 1236 q 106 1206 115 1236 q 101 1146 97 1176 l 4 1146 q 13 1249 -3 1200 q 65 1328 29 1297 q 154 1358 100 1358 q 217 1339 189 1358 q 268 1300 244 1319 q 304 1271 288 1283 q 338 1258 321 1258 q 369 1290 364 1258 q 372 1354 374 1321 l 469 1354 q 464 1247 479 1294 q 416 1171 449 1199 q 342 1143 383 1143 z "},"J":{"ha":556,"x_min":7,"x_max":424,"o":"m 424 215 q 371 -12 424 82 q 224 -158 318 -107 q 7 -212 131 -208 l 7 -212 l 7 -17 q 161 42 101 -11 q 221 219 221 94 l 221 1022 l 424 1022 l 424 215 z "},"Ĵ":{"ha":556,"x_min":7,"x_max":579,"o":"m 424 215 q 371 -12 424 82 q 224 -158 318 -107 q 7 -212 131 -208 l 7 -212 l 7 -17 q 161 42 101 -11 q 221 219 221 94 l 221 1022 l 424 1022 l 424 215 m 404 1106 l 296 1208 l 343 1222 l 233 1106 l 58 1106 l 315 1361 l 317 1361 l 579 1106 l 404 1106 z "},"K":{"ha":978,"x_min":132,"x_max":957,"o":"m 336 658 l 331 607 l 361 646 l 694 1022 l 956 1022 l 533 564 l 957 0 l 701 0 l 386 436 l 336 386 l 336 0 l 132 0 l 132 1022 l 336 1022 l 336 658 z "},"Ķ":{"ha":978,"x_min":132,"x_max":957,"o":"m 336 658 l 331 607 l 361 646 l 694 1022 l 956 1022 l 533 564 l 957 0 l 701 0 l 386 436 l 336 386 l 336 0 l 132 0 l 132 1022 l 336 1022 l 336 658 m 424 -325 l 324 -258 q 367 -173 354 -229 q 371 -68 381 -117 l 540 -69 q 535 -158 549 -108 q 494 -252 522 -207 q 424 -325 465 -297 z "},"L":{"ha":890,"x_min":132,"x_max":814,"o":"m 132 1022 l 333 1022 l 333 194 l 814 194 l 814 0 l 132 0 l 132 1022 z "},"Ǉ":{"ha":1446,"x_min":132,"x_max":1314,"o":"m 132 1022 l 333 1022 l 333 194 l 814 194 l 814 0 l 132 0 l 132 1022 m 1314 215 q 1261 -12 1314 82 q 1115 -158 1208 -107 q 897 -212 1021 -208 l 897 -212 l 897 -17 q 1051 42 992 -11 q 1111 219 1111 94 l 1111 1022 l 1314 1022 l 1314 215 z "},"Ĺ":{"ha":890,"x_min":132,"x_max":814,"o":"m 132 1022 l 333 1022 l 333 194 l 814 194 l 814 0 l 132 0 l 132 1022 m 488 1276 l 282 1089 l 164 1089 l 272 1276 l 488 1276 z "},"Ľ":{"ha":889,"x_min":132,"x_max":814,"o":"m 132 1022 l 333 1022 l 333 194 l 814 194 l 814 0 l 132 0 l 132 1022 m 696 776 l 596 815 q 646 896 626 843 q 656 997 665 949 l 804 1007 q 798 921 813 968 q 756 835 783 874 q 696 776 729 796 l 696 776 z "},"Ļ":{"ha":890,"x_min":132,"x_max":814,"o":"m 132 1022 l 333 1022 l 333 194 l 814 194 l 814 0 l 132 0 l 132 1022 m 421 -325 l 321 -258 q 365 -173 351 -229 q 368 -68 378 -117 l 538 -69 q 533 -158 546 -108 q 491 -252 519 -207 q 421 -325 463 -297 z "},"Ŀ":{"ha":881,"x_min":132,"x_max":818,"o":"m 132 1022 l 333 1022 l 333 194 l 814 194 l 814 0 l 132 0 l 132 1022 m 621 546 q 652 618 621 589 q 721 647 683 647 q 787 618 756 647 q 818 546 818 589 q 787 473 818 500 q 721 446 756 446 q 652 473 683 446 q 621 546 621 500 l 621 546 z "},"ǈ":{"ha":1300,"x_min":132,"x_max":1210,"o":"m 132 1022 l 333 1022 l 333 194 l 814 194 l 814 0 l 132 0 l 132 1022 m 1031 -293 l 918 -172 q 983 -97 960 -142 q 1006 11 1006 -53 l 1006 607 l 1200 607 l 1200 0 q 1161 -180 1200 -108 q 1031 -293 1122 -251 m 999 822 q 1033 893 999 865 q 1106 921 1067 921 q 1177 893 1144 921 q 1210 822 1210 865 q 1177 752 1210 779 q 1106 725 1144 725 q 1033 752 1067 725 q 999 822 999 779 z "},"Ł":{"ha":889,"x_min":7,"x_max":814,"o":"m 571 686 l 613 529 l 49 354 l 7 511 l 571 686 m 132 1022 l 333 1022 l 333 194 l 814 194 l 814 0 l 132 0 l 132 1022 z "},"M":{"ha":1317,"x_min":132,"x_max":1185,"o":"m 132 0 l 132 1064 l 133 1064 l 701 258 l 615 278 l 1182 1064 l 1185 1064 l 1185 0 l 983 0 l 983 610 l 996 506 l 650 14 l 647 14 l 292 506 l 326 601 l 326 0 l 132 0 z "},"N":{"ha":1185,"x_min":132,"x_max":1053,"o":"m 1047 -42 l 272 658 l 332 625 l 336 0 l 132 0 l 132 1063 l 140 1063 l 899 365 l 854 385 l 850 1022 l 1053 1022 l 1053 -42 l 1047 -42 z "},"Ǌ":{"ha":1740,"x_min":132,"x_max":1608,"o":"m 1047 -42 l 272 658 l 332 625 l 336 0 l 132 0 l 132 1063 l 140 1063 l 899 365 l 854 385 l 850 1022 l 1053 1022 l 1053 -42 l 1047 -42 m 1608 215 q 1556 -12 1608 82 q 1409 -158 1503 -107 q 1192 -212 1315 -208 l 1192 -212 l 1192 -17 q 1346 42 1286 -11 q 1406 219 1406 94 l 1406 1022 l 1608 1022 l 1608 215 z "},"Ń":{"ha":1185,"x_min":132,"x_max":1053,"o":"m 1047 -42 l 272 658 l 332 625 l 336 0 l 132 0 l 132 1063 l 140 1063 l 899 365 l 854 385 l 850 1022 l 1053 1022 l 1053 -42 l 1047 -42 m 824 1249 l 618 1061 l 500 1061 l 608 1249 l 824 1249 z "},"Ň":{"ha":1185,"x_min":132,"x_max":1053,"o":"m 1047 -42 l 272 658 l 332 625 l 336 0 l 132 0 l 132 1063 l 140 1063 l 899 365 l 854 385 l 850 1022 l 1053 1022 l 1053 -42 l 1047 -42 m 476 1301 l 585 1199 l 538 1185 l 647 1301 l 822 1301 l 565 1046 l 564 1046 l 301 1301 l 476 1301 z "},"Ņ":{"ha":1185,"x_min":132,"x_max":1053,"o":"m 1047 -42 l 272 658 l 332 625 l 336 0 l 132 0 l 132 1063 l 140 1063 l 899 365 l 854 385 l 850 1022 l 1053 1022 l 1053 -42 l 1047 -42 m 558 -325 l 458 -258 q 502 -173 489 -229 q 506 -68 515 -117 l 675 -69 q 670 -158 683 -108 q 628 -252 657 -207 q 558 -325 600 -297 z "},"Ŋ":{"ha":1115,"x_min":97,"x_max":1018,"o":"m 1013 -42 l 238 658 l 297 625 l 301 0 l 97 0 l 97 1063 l 106 1063 l 864 365 l 819 385 l 815 1022 l 1018 1022 l 1018 6 l 1013 -42 m 1018 42 l 1018 0 q 977 -174 1018 -100 q 849 -293 936 -247 l 738 -172 q 802 -97 779 -142 q 825 11 825 -53 l 825 226 l 1018 42 z "},"Ɲ":{"ha":1150,"x_min":10,"x_max":1018,"o":"m 1013 -42 l 238 658 l 297 625 l 301 0 l 97 0 l 97 1063 l 106 1063 l 864 365 l 819 385 l 815 1022 l 1018 1022 l 1018 6 l 1013 -42 m 301 42 l 301 0 q 260 -174 301 -100 q 132 -293 219 -247 l 10 -172 q 74 -97 51 -142 q 97 11 97 -53 l 97 226 l 301 42 z "},"ǋ":{"ha":1594,"x_min":132,"x_max":1504,"o":"m 1047 -42 l 272 658 l 332 625 l 336 0 l 132 0 l 132 1063 l 140 1063 l 899 365 l 854 385 l 850 1022 l 1053 1022 l 1053 -42 l 1047 -42 m 1325 -293 l 1213 -172 q 1277 -97 1254 -142 q 1300 11 1300 -53 l 1300 607 l 1494 607 l 1494 0 q 1456 -180 1494 -108 q 1325 -293 1417 -251 m 1293 822 q 1327 893 1293 865 q 1400 921 1361 921 q 1472 893 1439 921 q 1504 822 1504 865 q 1472 752 1504 779 q 1400 725 1439 725 q 1327 752 1361 725 q 1293 822 1293 779 z "},"Ñ":{"ha":1185,"x_min":132,"x_max":1053,"o":"m 1047 -42 l 272 658 l 332 625 l 336 0 l 132 0 l 132 1063 l 140 1063 l 899 365 l 854 385 l 850 1022 l 1053 1022 l 1053 -42 l 1047 -42 m 674 1115 q 594 1135 626 1115 q 536 1176 563 1156 q 506 1199 521 1189 q 475 1208 492 1208 q 438 1178 447 1208 q 433 1118 429 1149 l 336 1118 q 345 1221 329 1172 q 397 1300 361 1269 q 486 1331 432 1331 q 549 1311 521 1331 q 600 1272 576 1292 q 636 1243 619 1256 q 669 1231 653 1231 q 701 1262 696 1231 q 704 1326 706 1293 l 801 1326 q 796 1219 811 1267 q 748 1143 781 1171 q 674 1115 715 1115 z "},"O":{"ha":1183,"x_min":69,"x_max":1114,"o":"m 69 510 q 110 710 69 615 q 222 877 150 804 q 388 992 293 950 q 590 1033 482 1033 q 792 992 697 1033 q 959 877 886 950 q 1073 710 1032 804 q 1114 510 1114 615 q 1073 307 1114 401 q 959 141 1032 213 q 792 29 886 69 q 590 -11 697 -11 q 388 29 482 -11 q 222 141 293 69 q 110 307 150 213 q 69 510 69 401 m 278 510 q 320 345 278 419 q 435 227 363 271 q 597 183 507 183 q 755 227 685 183 q 865 345 825 271 q 906 510 906 419 q 864 677 906 603 q 751 795 822 751 q 592 839 681 839 q 432 795 503 839 q 319 677 361 751 q 278 510 278 603 z "},"Ó":{"ha":1183,"x_min":69,"x_max":1114,"o":"m 69 510 q 110 710 69 615 q 222 877 150 804 q 388 992 293 950 q 590 1033 482 1033 q 792 992 697 1033 q 959 877 886 950 q 1073 710 1032 804 q 1114 510 1114 615 q 1073 307 1114 401 q 959 141 1032 213 q 792 29 886 69 q 590 -11 697 -11 q 388 29 482 -11 q 222 141 293 69 q 110 307 150 213 q 69 510 69 401 m 278 510 q 320 345 278 419 q 435 227 363 271 q 597 183 507 183 q 755 227 685 183 q 865 345 825 271 q 906 510 906 419 q 864 677 906 603 q 751 795 822 751 q 592 839 681 839 q 432 795 503 839 q 319 677 361 751 q 278 510 278 603 m 850 1263 l 644 1075 l 526 1075 l 635 1263 l 850 1263 z "},"Ŏ":{"ha":1183,"x_min":69,"x_max":1114,"o":"m 69 510 q 110 710 69 615 q 222 877 150 804 q 388 992 293 950 q 590 1033 482 1033 q 792 992 697 1033 q 959 877 886 950 q 1073 710 1032 804 q 1114 510 1114 615 q 1073 307 1114 401 q 959 141 1032 213 q 792 29 886 69 q 590 -11 697 -11 q 388 29 482 -11 q 222 141 293 69 q 110 307 150 213 q 69 510 69 401 m 278 510 q 320 345 278 419 q 435 227 363 271 q 597 183 507 183 q 755 227 685 183 q 865 345 825 271 q 906 510 906 419 q 864 677 906 603 q 751 795 822 751 q 592 839 681 839 q 432 795 503 839 q 319 677 361 751 q 278 510 278 603 m 592 1075 q 438 1140 494 1075 q 358 1335 382 1204 l 488 1335 q 522 1240 500 1275 q 592 1204 543 1204 q 661 1240 640 1204 q 694 1335 682 1275 l 824 1335 q 745 1138 801 1200 q 592 1075 689 1075 z "},"Ô":{"ha":1183,"x_min":69,"x_max":1114,"o":"m 69 510 q 110 710 69 615 q 222 877 150 804 q 388 992 293 950 q 590 1033 482 1033 q 792 992 697 1033 q 959 877 886 950 q 1073 710 1032 804 q 1114 510 1114 615 q 1073 307 1114 401 q 959 141 1032 213 q 792 29 886 69 q 590 -11 697 -11 q 388 29 482 -11 q 222 141 293 69 q 110 307 150 213 q 69 510 69 401 m 278 510 q 320 345 278 419 q 435 227 363 271 q 597 183 507 183 q 755 227 685 183 q 865 345 825 271 q 906 510 906 419 q 864 677 906 603 q 751 795 822 751 q 592 839 681 839 q 432 795 503 839 q 319 677 361 751 q 278 510 278 603 m 665 1092 l 557 1194 l 604 1208 l 494 1092 l 319 1092 l 576 1347 l 578 1347 l 840 1092 l 665 1092 z "},"Ố":{"ha":1183,"x_min":69,"x_max":1114,"o":"m 69 510 q 110 710 69 615 q 222 877 150 804 q 388 992 293 950 q 590 1033 482 1033 q 792 992 697 1033 q 959 877 886 950 q 1073 710 1032 804 q 1114 510 1114 615 q 1073 307 1114 401 q 959 141 1032 213 q 792 29 886 69 q 590 -11 697 -11 q 388 29 482 -11 q 222 141 293 69 q 110 307 150 213 q 69 510 69 401 m 278 510 q 320 345 278 419 q 435 227 363 271 q 597 183 507 183 q 755 227 685 183 q 865 345 825 271 q 906 510 906 419 q 864 677 906 603 q 751 795 822 751 q 592 839 681 839 q 432 795 503 839 q 319 677 361 751 q 278 510 278 603 m 683 1108 l 575 1211 l 622 1225 l 513 1108 l 338 1108 l 594 1364 l 596 1364 l 858 1108 l 683 1108 m 1040 1444 l 835 1257 l 717 1257 l 825 1444 l 1040 1444 z "},"Ộ":{"ha":1183,"x_min":69,"x_max":1114,"o":"m 69 510 q 110 710 69 615 q 222 877 150 804 q 388 992 293 950 q 590 1033 482 1033 q 792 992 697 1033 q 959 877 886 950 q 1073 710 1032 804 q 1114 510 1114 615 q 1073 307 1114 401 q 959 141 1032 213 q 792 29 886 69 q 590 -11 697 -11 q 388 29 482 -11 q 222 141 293 69 q 110 307 150 213 q 69 510 69 401 m 278 510 q 320 345 278 419 q 435 227 363 271 q 597 183 507 183 q 755 227 685 183 q 865 345 825 271 q 906 510 906 419 q 864 677 906 603 q 751 795 822 751 q 592 839 681 839 q 432 795 503 839 q 319 677 361 751 q 278 510 278 603 m 482 -162 q 516 -92 482 -119 q 589 -64 550 -64 q 660 -92 628 -64 q 693 -162 693 -119 q 660 -233 693 -206 q 589 -260 628 -260 q 516 -233 550 -260 q 482 -162 482 -206 m 665 1092 l 557 1194 l 604 1208 l 494 1092 l 319 1092 l 576 1347 l 578 1347 l 840 1092 l 665 1092 z "},"Ồ":{"ha":1183,"x_min":69,"x_max":1114,"o":"m 69 510 q 110 710 69 615 q 222 877 150 804 q 388 992 293 950 q 590 1033 482 1033 q 792 992 697 1033 q 959 877 886 950 q 1073 710 1032 804 q 1114 510 1114 615 q 1073 307 1114 401 q 959 141 1032 213 q 792 29 886 69 q 590 -11 697 -11 q 388 29 482 -11 q 222 141 293 69 q 110 307 150 213 q 69 510 69 401 m 278 510 q 320 345 278 419 q 435 227 363 271 q 597 183 507 183 q 755 227 685 183 q 865 345 825 271 q 906 510 906 419 q 864 677 906 603 q 751 795 822 751 q 592 839 681 839 q 432 795 503 839 q 319 677 361 751 q 278 510 278 603 m 672 1108 l 564 1211 l 611 1225 l 501 1108 l 326 1108 l 583 1364 l 585 1364 l 847 1108 l 672 1108 m 99 1450 l 314 1450 l 400 1263 l 282 1263 l 99 1450 z "},"Ổ":{"ha":1183,"x_min":69,"x_max":1114,"o":"m 69 510 q 110 710 69 615 q 222 877 150 804 q 388 992 293 950 q 590 1033 482 1033 q 792 992 697 1033 q 959 877 886 950 q 1073 710 1032 804 q 1114 510 1114 615 q 1073 307 1114 401 q 959 141 1032 213 q 792 29 886 69 q 590 -11 697 -11 q 388 29 482 -11 q 222 141 293 69 q 110 307 150 213 q 69 510 69 401 m 278 510 q 320 345 278 419 q 435 227 363 271 q 597 183 507 183 q 755 227 685 183 q 865 345 825 271 q 906 510 906 419 q 864 677 906 603 q 751 795 822 751 q 592 839 681 839 q 432 795 503 839 q 319 677 361 751 q 278 510 278 603 m 678 1108 l 569 1211 l 617 1225 l 507 1108 l 332 1108 l 589 1364 l 590 1364 l 853 1108 l 678 1108 m 854 1263 q 893 1296 878 1279 q 908 1336 908 1313 q 899 1369 908 1356 q 868 1382 890 1382 q 835 1371 850 1382 q 814 1344 821 1360 l 744 1386 q 810 1462 768 1438 q 894 1486 851 1486 q 965 1467 939 1486 q 1003 1420 992 1449 q 1015 1364 1015 1392 q 979 1274 1015 1310 q 894 1211 943 1238 l 854 1263 z "},"Ỗ":{"ha":1183,"x_min":69,"x_max":1114,"o":"m 69 510 q 110 710 69 615 q 222 877 150 804 q 388 992 293 950 q 590 1033 482 1033 q 792 992 697 1033 q 959 877 886 950 q 1073 710 1032 804 q 1114 510 1114 615 q 1073 307 1114 401 q 959 141 1032 213 q 792 29 886 69 q 590 -11 697 -11 q 388 29 482 -11 q 222 141 293 69 q 110 307 150 213 q 69 510 69 401 m 278 510 q 320 345 278 419 q 435 227 363 271 q 597 183 507 183 q 755 227 685 183 q 865 345 825 271 q 906 510 906 419 q 864 677 906 603 q 751 795 822 751 q 592 839 681 839 q 432 795 503 839 q 319 677 361 751 q 278 510 278 603 m 667 1108 l 558 1211 l 606 1225 l 496 1108 l 321 1108 l 578 1364 l 579 1364 l 842 1108 l 667 1108 m 693 1404 q 614 1424 646 1404 q 556 1465 582 1444 q 526 1488 540 1478 q 494 1497 511 1497 q 458 1467 467 1497 q 453 1407 449 1438 l 356 1407 q 365 1510 349 1461 q 416 1589 381 1558 q 506 1619 451 1619 q 568 1600 540 1619 q 619 1561 596 1581 q 656 1532 639 1544 q 689 1519 672 1519 q 720 1551 715 1519 q 724 1615 725 1582 l 821 1615 q 815 1508 831 1556 q 767 1432 800 1460 q 693 1404 735 1404 z "},"Ȍ":{"ha":1183,"x_min":69,"x_max":1114,"o":"m 69 510 q 110 710 69 615 q 222 877 150 804 q 388 992 293 950 q 590 1033 482 1033 q 792 992 697 1033 q 959 877 886 950 q 1073 710 1032 804 q 1114 510 1114 615 q 1073 307 1114 401 q 959 141 1032 213 q 792 29 886 69 q 590 -11 697 -11 q 388 29 482 -11 q 222 141 293 69 q 110 307 150 213 q 69 510 69 401 m 278 510 q 320 345 278 419 q 435 227 363 271 q 597 183 507 183 q 755 227 685 183 q 865 345 825 271 q 906 510 906 419 q 864 677 906 603 q 751 795 822 751 q 592 839 681 839 q 432 795 503 839 q 319 677 361 751 q 278 510 278 603 m 264 1272 l 479 1272 l 565 1085 l 447 1085 l 264 1272 m 500 1272 l 715 1272 l 801 1085 l 683 1085 l 500 1272 z "},"Ö":{"ha":1183,"x_min":69,"x_max":1114,"o":"m 69 510 q 110 710 69 615 q 222 877 150 804 q 388 992 293 950 q 590 1033 482 1033 q 792 992 697 1033 q 959 877 886 950 q 1073 710 1032 804 q 1114 510 1114 615 q 1073 307 1114 401 q 959 141 1032 213 q 792 29 886 69 q 590 -11 697 -11 q 388 29 482 -11 q 222 141 293 69 q 110 307 150 213 q 69 510 69 401 m 278 510 q 320 345 278 419 q 435 227 363 271 q 597 183 507 183 q 755 227 685 183 q 865 345 825 271 q 906 510 906 419 q 864 677 906 603 q 751 795 822 751 q 592 839 681 839 q 432 795 503 839 q 319 677 361 751 q 278 510 278 603 m 344 1172 q 376 1245 344 1217 q 444 1274 407 1274 q 510 1245 479 1274 q 542 1172 542 1217 q 510 1100 542 1128 q 444 1072 479 1072 q 376 1100 407 1072 q 344 1172 344 1128 l 344 1172 m 622 1172 q 653 1245 622 1217 q 722 1274 685 1274 q 788 1245 757 1274 q 819 1172 819 1217 q 788 1100 819 1128 q 722 1072 757 1072 q 653 1100 685 1072 q 622 1172 622 1128 l 622 1172 z "},"Ȫ":{"ha":1183,"x_min":69,"x_max":1114,"o":"m 69 510 q 110 710 69 615 q 222 877 150 804 q 388 992 293 950 q 590 1033 482 1033 q 792 992 697 1033 q 959 877 886 950 q 1073 710 1032 804 q 1114 510 1114 615 q 1073 307 1114 401 q 959 141 1032 213 q 792 29 886 69 q 590 -11 697 -11 q 388 29 482 -11 q 222 141 293 69 q 110 307 150 213 q 69 510 69 401 m 278 510 q 320 345 278 419 q 435 227 363 271 q 597 183 507 183 q 755 227 685 183 q 865 345 825 271 q 906 510 906 419 q 864 677 906 603 q 751 795 822 751 q 592 839 681 839 q 432 795 503 839 q 319 677 361 751 q 278 510 278 603 m 344 1172 q 376 1245 344 1217 q 444 1274 407 1274 q 510 1245 479 1274 q 542 1172 542 1217 q 510 1100 542 1128 q 444 1072 479 1072 q 376 1100 407 1072 q 344 1172 344 1128 l 344 1172 m 622 1172 q 653 1245 622 1217 q 722 1274 685 1274 q 788 1245 757 1274 q 819 1172 819 1217 q 788 1100 819 1128 q 722 1072 757 1072 q 653 1100 685 1072 q 622 1172 622 1128 l 622 1172 m 408 1457 l 763 1457 l 763 1322 l 408 1322 l 408 1457 z "},"Ȱ":{"ha":1183,"x_min":69,"x_max":1114,"o":"m 69 510 q 110 710 69 615 q 222 877 150 804 q 388 992 293 950 q 590 1033 482 1033 q 792 992 697 1033 q 959 877 886 950 q 1073 710 1032 804 q 1114 510 1114 615 q 1073 307 1114 401 q 959 141 1032 213 q 792 29 886 69 q 590 -11 697 -11 q 388 29 482 -11 q 222 141 293 69 q 110 307 150 213 q 69 510 69 401 m 278 510 q 320 345 278 419 q 435 227 363 271 q 597 183 507 183 q 755 227 685 183 q 865 345 825 271 q 906 510 906 419 q 864 677 906 603 q 751 795 822 751 q 592 839 681 839 q 432 795 503 839 q 319 677 361 751 q 278 510 278 603 m 486 1168 q 520 1239 486 1211 q 593 1267 554 1267 q 665 1239 632 1267 q 697 1168 697 1211 q 665 1098 697 1125 q 593 1071 632 1071 q 520 1098 554 1071 q 486 1168 486 1125 m 410 1449 l 764 1449 l 764 1314 l 410 1314 l 410 1449 z "},"Ọ":{"ha":1183,"x_min":69,"x_max":1114,"o":"m 69 510 q 110 710 69 615 q 222 877 150 804 q 388 992 293 950 q 590 1033 482 1033 q 792 992 697 1033 q 959 877 886 950 q 1073 710 1032 804 q 1114 510 1114 615 q 1073 307 1114 401 q 959 141 1032 213 q 792 29 886 69 q 590 -11 697 -11 q 388 29 482 -11 q 222 141 293 69 q 110 307 150 213 q 69 510 69 401 m 278 510 q 320 345 278 419 q 435 227 363 271 q 597 183 507 183 q 755 227 685 183 q 865 345 825 271 q 906 510 906 419 q 864 677 906 603 q 751 795 822 751 q 592 839 681 839 q 432 795 503 839 q 319 677 361 751 q 278 510 278 603 m 482 -162 q 516 -92 482 -119 q 589 -64 550 -64 q 660 -92 628 -64 q 693 -162 693 -119 q 660 -233 693 -206 q 589 -260 628 -260 q 516 -233 550 -260 q 482 -162 482 -206 z "},"Ò":{"ha":1183,"x_min":69,"x_max":1114,"o":"m 69 510 q 110 710 69 615 q 222 877 150 804 q 388 992 293 950 q 590 1033 482 1033 q 792 992 697 1033 q 959 877 886 950 q 1073 710 1032 804 q 1114 510 1114 615 q 1073 307 1114 401 q 959 141 1032 213 q 792 29 886 69 q 590 -11 697 -11 q 388 29 482 -11 q 222 141 293 69 q 110 307 150 213 q 69 510 69 401 m 278 510 q 320 345 278 419 q 435 227 363 271 q 597 183 507 183 q 755 227 685 183 q 865 345 825 271 q 906 510 906 419 q 864 677 906 603 q 751 795 822 751 q 592 839 681 839 q 432 795 503 839 q 319 677 361 751 q 278 510 278 603 m 333 1268 l 549 1268 l 635 1081 l 517 1081 l 333 1268 z "},"Ỏ":{"ha":1183,"x_min":69,"x_max":1114,"o":"m 69 510 q 110 710 69 615 q 222 877 150 804 q 388 992 293 950 q 590 1033 482 1033 q 792 992 697 1033 q 959 877 886 950 q 1073 710 1032 804 q 1114 510 1114 615 q 1073 307 1114 401 q 959 141 1032 213 q 792 29 886 69 q 590 -11 697 -11 q 388 29 482 -11 q 222 141 293 69 q 110 307 150 213 q 69 510 69 401 m 278 510 q 320 345 278 419 q 435 227 363 271 q 597 183 507 183 q 755 227 685 183 q 865 345 825 271 q 906 510 906 419 q 864 677 906 603 q 751 795 822 751 q 592 839 681 839 q 432 795 503 839 q 319 677 361 751 q 278 510 278 603 m 578 1150 q 617 1183 601 1167 q 632 1224 632 1200 q 623 1256 632 1243 q 592 1269 614 1269 q 559 1258 574 1269 q 538 1232 544 1247 l 468 1274 q 533 1349 492 1325 q 618 1374 575 1374 q 689 1355 663 1374 q 727 1308 715 1336 q 739 1251 739 1279 q 703 1161 739 1197 q 618 1099 667 1125 l 578 1150 z "},"Ơ":{"ha":1183,"x_min":69,"x_max":1114,"o":"m 69 510 q 110 710 69 615 q 222 877 150 804 q 388 992 293 950 q 590 1033 482 1033 q 792 992 697 1033 q 959 877 886 950 q 1073 710 1032 804 q 1114 510 1114 615 q 1073 307 1114 401 q 959 141 1032 213 q 792 29 886 69 q 590 -11 697 -11 q 388 29 482 -11 q 222 141 293 69 q 110 307 150 213 q 69 510 69 401 m 278 510 q 320 345 278 419 q 435 227 363 271 q 597 183 507 183 q 755 227 685 183 q 865 345 825 271 q 906 510 906 419 q 864 677 906 603 q 751 795 822 751 q 592 839 681 839 q 432 795 503 839 q 319 677 361 751 q 278 510 278 603 m 690 1024 q 756 1045 739 1024 q 786 1126 774 1067 l 929 1126 q 883 989 914 1036 q 803 925 851 942 q 690 908 756 908 l 690 1024 z "},"Ớ":{"ha":1183,"x_min":69,"x_max":1114,"o":"m 69 510 q 110 710 69 615 q 222 877 150 804 q 388 992 293 950 q 590 1033 482 1033 q 792 992 697 1033 q 959 877 886 950 q 1073 710 1032 804 q 1114 510 1114 615 q 1073 307 1114 401 q 959 141 1032 213 q 792 29 886 69 q 590 -11 697 -11 q 388 29 482 -11 q 222 141 293 69 q 110 307 150 213 q 69 510 69 401 m 278 510 q 320 345 278 419 q 435 227 363 271 q 597 183 507 183 q 755 227 685 183 q 865 345 825 271 q 906 510 906 419 q 864 677 906 603 q 751 795 822 751 q 592 839 681 839 q 432 795 503 839 q 319 677 361 751 q 278 510 278 603 m 690 1024 q 756 1045 739 1024 q 786 1126 774 1067 l 929 1126 q 883 989 914 1036 q 803 925 851 942 q 690 908 756 908 l 690 1024 m 850 1263 l 644 1075 l 526 1075 l 635 1263 l 850 1263 z "},"Ợ":{"ha":1183,"x_min":69,"x_max":1114,"o":"m 69 510 q 110 710 69 615 q 222 877 150 804 q 388 992 293 950 q 590 1033 482 1033 q 792 992 697 1033 q 959 877 886 950 q 1073 710 1032 804 q 1114 510 1114 615 q 1073 307 1114 401 q 959 141 1032 213 q 792 29 886 69 q 590 -11 697 -11 q 388 29 482 -11 q 222 141 293 69 q 110 307 150 213 q 69 510 69 401 m 278 510 q 320 345 278 419 q 435 227 363 271 q 597 183 507 183 q 755 227 685 183 q 865 345 825 271 q 906 510 906 419 q 864 677 906 603 q 751 795 822 751 q 592 839 681 839 q 432 795 503 839 q 319 677 361 751 q 278 510 278 603 m 690 1024 q 756 1045 739 1024 q 786 1126 774 1067 l 929 1126 q 883 989 914 1036 q 803 925 851 942 q 690 908 756 908 l 690 1024 m 482 -162 q 516 -92 482 -119 q 589 -64 550 -64 q 660 -92 628 -64 q 693 -162 693 -119 q 660 -233 693 -206 q 589 -260 628 -260 q 516 -233 550 -260 q 482 -162 482 -206 z "},"Ờ":{"ha":1183,"x_min":69,"x_max":1114,"o":"m 69 510 q 110 710 69 615 q 222 877 150 804 q 388 992 293 950 q 590 1033 482 1033 q 792 992 697 1033 q 959 877 886 950 q 1073 710 1032 804 q 1114 510 1114 615 q 1073 307 1114 401 q 959 141 1032 213 q 792 29 886 69 q 590 -11 697 -11 q 388 29 482 -11 q 222 141 293 69 q 110 307 150 213 q 69 510 69 401 m 278 510 q 320 345 278 419 q 435 227 363 271 q 597 183 507 183 q 755 227 685 183 q 865 345 825 271 q 906 510 906 419 q 864 677 906 603 q 751 795 822 751 q 592 839 681 839 q 432 795 503 839 q 319 677 361 751 q 278 510 278 603 m 690 1024 q 756 1045 739 1024 q 786 1126 774 1067 l 929 1126 q 883 989 914 1036 q 803 925 851 942 q 690 908 756 908 l 690 1024 m 386 1268 l 601 1268 l 688 1081 l 569 1081 l 386 1268 z "},"Ở":{"ha":1183,"x_min":69,"x_max":1114,"o":"m 69 510 q 110 710 69 615 q 222 877 150 804 q 388 992 293 950 q 590 1033 482 1033 q 792 992 697 1033 q 959 877 886 950 q 1073 710 1032 804 q 1114 510 1114 615 q 1073 307 1114 401 q 959 141 1032 213 q 792 29 886 69 q 590 -11 697 -11 q 388 29 482 -11 q 222 141 293 69 q 110 307 150 213 q 69 510 69 401 m 278 510 q 320 345 278 419 q 435 227 363 271 q 597 183 507 183 q 755 227 685 183 q 865 345 825 271 q 906 510 906 419 q 864 677 906 603 q 751 795 822 751 q 592 839 681 839 q 432 795 503 839 q 319 677 361 751 q 278 510 278 603 m 690 1024 q 756 1045 739 1024 q 786 1126 774 1067 l 929 1126 q 883 989 914 1036 q 803 925 851 942 q 690 908 756 908 l 690 1024 m 578 1150 q 617 1183 601 1167 q 632 1224 632 1200 q 623 1256 632 1243 q 592 1269 614 1269 q 559 1258 574 1269 q 538 1232 544 1247 l 468 1274 q 533 1349 492 1325 q 618 1374 575 1374 q 689 1355 663 1374 q 727 1308 715 1336 q 739 1251 739 1279 q 703 1161 739 1197 q 618 1099 667 1125 l 578 1150 z "},"Ỡ":{"ha":1183,"x_min":69,"x_max":1114,"o":"m 69 510 q 110 710 69 615 q 222 877 150 804 q 388 992 293 950 q 590 1033 482 1033 q 792 992 697 1033 q 959 877 886 950 q 1073 710 1032 804 q 1114 510 1114 615 q 1073 307 1114 401 q 959 141 1032 213 q 792 29 886 69 q 590 -11 697 -11 q 388 29 482 -11 q 222 141 293 69 q 110 307 150 213 q 69 510 69 401 m 278 510 q 320 345 278 419 q 435 227 363 271 q 597 183 507 183 q 755 227 685 183 q 865 345 825 271 q 906 510 906 419 q 864 677 906 603 q 751 795 822 751 q 592 839 681 839 q 432 795 503 839 q 319 677 361 751 q 278 510 278 603 m 690 1024 q 756 1045 739 1024 q 786 1126 774 1067 l 929 1126 q 883 989 914 1036 q 803 925 851 942 q 690 908 756 908 l 690 1024 m 700 1129 q 621 1149 653 1129 q 563 1190 589 1169 q 533 1213 547 1203 q 501 1222 518 1222 q 465 1192 474 1222 q 460 1132 456 1163 l 363 1132 q 372 1235 356 1186 q 423 1314 388 1283 q 513 1344 458 1344 q 575 1325 547 1344 q 626 1286 603 1306 q 663 1257 646 1269 q 696 1244 679 1244 q 727 1276 722 1244 q 731 1340 732 1307 l 828 1340 q 822 1233 838 1281 q 774 1157 807 1185 q 700 1129 742 1129 z "},"Ő":{"ha":1183,"x_min":69,"x_max":1114,"o":"m 69 510 q 110 710 69 615 q 222 877 150 804 q 388 992 293 950 q 590 1033 482 1033 q 792 992 697 1033 q 959 877 886 950 q 1073 710 1032 804 q 1114 510 1114 615 q 1073 307 1114 401 q 959 141 1032 213 q 792 29 886 69 q 590 -11 697 -11 q 388 29 482 -11 q 222 141 293 69 q 110 307 150 213 q 69 510 69 401 m 278 510 q 320 345 278 419 q 435 227 363 271 q 597 183 507 183 q 755 227 685 183 q 865 345 825 271 q 906 510 906 419 q 864 677 906 603 q 751 795 822 751 q 592 839 681 839 q 432 795 503 839 q 319 677 361 751 q 278 510 278 603 m 665 1271 l 460 1083 l 342 1083 l 450 1271 l 665 1271 m 921 1268 l 715 1081 l 597 1081 l 706 1268 l 921 1268 z "},"Ȏ":{"ha":1183,"x_min":69,"x_max":1114,"o":"m 69 510 q 110 710 69 615 q 222 877 150 804 q 388 992 293 950 q 590 1033 482 1033 q 792 992 697 1033 q 959 877 886 950 q 1073 710 1032 804 q 1114 510 1114 615 q 1073 307 1114 401 q 959 141 1032 213 q 792 29 886 69 q 590 -11 697 -11 q 388 29 482 -11 q 222 141 293 69 q 110 307 150 213 q 69 510 69 401 m 278 510 q 320 345 278 419 q 435 227 363 271 q 597 183 507 183 q 755 227 685 183 q 865 345 825 271 q 906 510 906 419 q 864 677 906 603 q 751 795 822 751 q 592 839 681 839 q 432 795 503 839 q 319 677 361 751 q 278 510 278 603 m 583 1297 q 738 1233 682 1297 q 817 1038 794 1169 l 688 1038 q 653 1133 675 1097 q 583 1168 632 1168 q 514 1133 535 1168 q 481 1038 493 1097 l 351 1038 q 431 1235 375 1174 q 583 1297 486 1297 z "},"Ō":{"ha":1183,"x_min":69,"x_max":1114,"o":"m 69 510 q 110 710 69 615 q 222 877 150 804 q 388 992 293 950 q 590 1033 482 1033 q 792 992 697 1033 q 959 877 886 950 q 1073 710 1032 804 q 1114 510 1114 615 q 1073 307 1114 401 q 959 141 1032 213 q 792 29 886 69 q 590 -11 697 -11 q 388 29 482 -11 q 222 141 293 69 q 110 307 150 213 q 69 510 69 401 m 278 510 q 320 345 278 419 q 435 227 363 271 q 597 183 507 183 q 755 227 685 183 q 865 345 825 271 q 906 510 906 419 q 864 677 906 603 q 751 795 822 751 q 592 839 681 839 q 432 795 503 839 q 319 677 361 751 q 278 510 278 603 m 408 1218 l 763 1218 l 763 1083 l 408 1083 l 408 1218 z "},"Ǫ":{"ha":1183,"x_min":69,"x_max":1114,"o":"m 590 -11 q 388 29 482 -11 q 222 141 293 69 q 110 307 150 213 q 69 510 69 401 q 110 710 69 615 q 222 877 150 804 q 388 992 293 950 q 590 1033 482 1033 q 792 992 697 1033 q 959 877 886 950 q 1073 710 1032 804 q 1114 510 1114 615 q 1086 326 1114 404 q 1015 190 1058 247 q 921 89 971 132 q 821 8 869 43 q 741 -58 772 -26 q 710 -125 710 -89 q 728 -174 710 -162 q 771 -186 747 -186 q 871 -118 825 -186 l 940 -218 q 856 -293 910 -264 q 753 -322 801 -322 q 609 -280 668 -322 q 550 -157 550 -237 q 581 -67 550 -111 q 668 0 611 -22 l 851 65 q 728 9 792 29 q 590 -11 664 -11 m 597 185 q 755 228 685 185 q 865 346 825 272 q 906 510 906 419 q 881 635 906 576 q 815 739 857 694 q 715 808 772 783 q 592 833 658 833 q 432 790 503 833 q 319 673 361 746 q 278 510 278 600 q 320 347 278 421 q 435 228 363 272 q 597 185 507 185 z "},"Ø":{"ha":1192,"x_min":69,"x_max":1114,"o":"m 1071 938 l 233 -32 l 106 83 l 946 1054 l 1071 938 m 69 510 q 110 710 69 615 q 222 877 150 804 q 388 992 293 950 q 590 1033 482 1033 q 792 992 697 1033 q 959 877 886 950 q 1073 710 1032 804 q 1114 510 1114 615 q 1073 307 1114 401 q 959 141 1032 213 q 792 29 886 69 q 590 -11 697 -11 q 388 29 482 -11 q 222 141 293 69 q 110 307 150 213 q 69 510 69 401 m 278 510 q 320 345 278 419 q 435 227 363 271 q 597 183 507 183 q 755 227 685 183 q 865 345 825 271 q 906 510 906 419 q 864 677 906 603 q 751 795 822 751 q 592 839 681 839 q 432 795 503 839 q 319 677 361 751 q 278 510 278 603 z "},"Ǿ":{"ha":1192,"x_min":69,"x_max":1114,"o":"m 1071 938 l 233 -32 l 106 83 l 946 1054 l 1071 938 m 69 510 q 110 710 69 615 q 222 877 150 804 q 388 992 293 950 q 590 1033 482 1033 q 792 992 697 1033 q 959 877 886 950 q 1073 710 1032 804 q 1114 510 1114 615 q 1073 307 1114 401 q 959 141 1032 213 q 792 29 886 69 q 590 -11 697 -11 q 388 29 482 -11 q 222 141 293 69 q 110 307 150 213 q 69 510 69 401 m 278 510 q 320 345 278 419 q 435 227 363 271 q 597 183 507 183 q 755 227 685 183 q 865 345 825 271 q 906 510 906 419 q 864 677 906 603 q 751 795 822 751 q 592 839 681 839 q 432 795 503 839 q 319 677 361 751 q 278 510 278 603 m 850 1263 l 644 1075 l 526 1075 l 635 1263 l 850 1263 z "},"Õ":{"ha":1183,"x_min":69,"x_max":1114,"o":"m 69 510 q 110 710 69 615 q 222 877 150 804 q 388 992 293 950 q 590 1033 482 1033 q 792 992 697 1033 q 959 877 886 950 q 1073 710 1032 804 q 1114 510 1114 615 q 1073 307 1114 401 q 959 141 1032 213 q 792 29 886 69 q 590 -11 697 -11 q 388 29 482 -11 q 222 141 293 69 q 110 307 150 213 q 69 510 69 401 m 278 510 q 320 345 278 419 q 435 227 363 271 q 597 183 507 183 q 755 227 685 183 q 865 345 825 271 q 906 510 906 419 q 864 677 906 603 q 751 795 822 751 q 592 839 681 839 q 432 795 503 839 q 319 677 361 751 q 278 510 278 603 m 700 1129 q 621 1149 653 1129 q 563 1190 589 1169 q 533 1213 547 1203 q 501 1222 518 1222 q 465 1192 474 1222 q 460 1132 456 1163 l 363 1132 q 372 1235 356 1186 q 423 1314 388 1283 q 513 1344 458 1344 q 575 1325 547 1344 q 626 1286 603 1306 q 663 1257 646 1269 q 696 1244 679 1244 q 727 1276 722 1244 q 731 1340 732 1307 l 828 1340 q 822 1233 838 1281 q 774 1157 807 1185 q 700 1129 742 1129 z "},"Ȭ":{"ha":1183,"x_min":69,"x_max":1114,"o":"m 69 510 q 110 710 69 615 q 222 877 150 804 q 388 992 293 950 q 590 1033 482 1033 q 792 992 697 1033 q 959 877 886 950 q 1073 710 1032 804 q 1114 510 1114 615 q 1073 307 1114 401 q 959 141 1032 213 q 792 29 886 69 q 590 -11 697 -11 q 388 29 482 -11 q 222 141 293 69 q 110 307 150 213 q 69 510 69 401 m 278 510 q 320 345 278 419 q 435 227 363 271 q 597 183 507 183 q 755 227 685 183 q 865 345 825 271 q 906 510 906 419 q 864 677 906 603 q 751 795 822 751 q 592 839 681 839 q 432 795 503 839 q 319 677 361 751 q 278 510 278 603 m 700 1129 q 621 1149 653 1129 q 563 1190 589 1169 q 533 1213 547 1203 q 501 1222 518 1222 q 465 1192 474 1222 q 460 1132 456 1163 l 363 1132 q 372 1235 356 1186 q 423 1314 388 1283 q 513 1344 458 1344 q 575 1325 547 1344 q 626 1286 603 1306 q 663 1257 646 1269 q 696 1244 679 1244 q 727 1276 722 1244 q 731 1340 732 1307 l 828 1340 q 822 1233 838 1281 q 774 1157 807 1185 q 700 1129 742 1129 m 408 1563 l 763 1563 l 763 1428 l 408 1428 l 408 1563 z "},"Œ":{"ha":1418,"x_min":82,"x_max":1338,"o":"m 672 825 q 604 833 639 833 q 482 808 539 833 q 382 739 425 783 q 315 635 339 694 q 290 510 290 576 q 315 384 290 443 q 383 280 339 325 q 485 210 428 235 q 610 185 543 185 q 679 193 646 185 l 731 6 q 603 -11 668 -11 q 400 29 494 -11 q 234 141 306 69 q 122 307 163 213 q 82 510 82 401 q 122 710 82 615 q 234 877 163 804 q 400 992 306 950 q 603 1033 494 1033 q 671 1028 638 1033 q 735 1015 704 1024 l 672 825 m 663 1022 l 1318 1022 l 1318 835 l 871 835 l 871 607 l 1261 607 l 1261 415 l 871 415 l 871 193 l 1338 193 l 1338 0 l 663 0 l 663 1022 z "},"P":{"ha":883,"x_min":132,"x_max":835,"o":"m 442 1022 q 733 928 632 1022 q 835 678 835 835 q 816 552 835 615 q 756 438 797 489 q 647 355 715 386 q 478 324 578 324 l 333 324 l 333 0 l 132 0 l 132 1022 l 442 1022 m 476 519 q 553 535 522 519 q 601 576 583 551 q 626 626 618 600 q 633 672 633 653 q 628 713 633 688 q 608 765 624 739 q 562 810 593 792 q 478 828 531 828 l 333 828 l 333 519 l 476 519 z "},"Þ":{"ha":883,"x_min":132,"x_max":835,"o":"m 483 856 q 687 813 610 856 q 799 694 764 771 q 835 511 835 617 q 818 385 835 449 q 763 271 801 322 q 658 188 725 219 q 492 157 592 157 l 340 157 l 340 0 l 132 0 l 132 1017 l 340 1017 l 340 856 l 483 856 m 469 353 q 557 374 522 353 q 609 431 592 396 q 626 506 626 465 q 614 576 626 540 q 567 636 601 611 q 471 661 533 661 l 340 661 l 340 353 l 469 353 z "},"Q":{"ha":1240,"x_min":69,"x_max":1171,"o":"m 854 197 l 1171 197 l 1171 0 l 590 0 l 854 197 m 69 510 q 110 710 69 615 q 222 877 150 804 q 388 992 293 950 q 590 1033 482 1033 q 792 992 697 1033 q 959 877 886 950 q 1073 710 1032 804 q 1114 510 1114 615 q 1073 307 1114 401 q 959 141 1032 213 q 792 29 886 69 q 590 -11 697 -11 q 388 29 482 -11 q 222 141 293 69 q 110 307 150 213 q 69 510 69 401 m 278 511 q 320 347 278 421 q 435 228 363 272 q 597 185 507 185 q 755 228 685 185 q 865 346 825 272 q 906 510 906 419 q 881 635 906 576 q 815 739 857 694 q 715 808 772 783 q 592 833 658 833 q 432 790 503 833 q 319 673 361 746 q 278 511 278 600 z "},"R":{"ha":953,"x_min":132,"x_max":918,"o":"m 442 1022 q 660 980 571 1022 q 795 860 749 938 q 842 678 842 783 q 823 553 842 615 q 762 439 804 490 q 650 356 719 388 q 478 325 581 325 l 333 325 l 333 0 l 132 0 l 132 1022 l 442 1022 m 476 519 q 572 545 538 519 q 619 606 606 571 q 633 671 633 642 q 628 713 633 688 q 608 765 624 739 q 562 810 593 792 q 478 828 531 828 l 333 828 l 333 519 l 476 519 m 665 394 l 918 0 l 683 0 l 425 389 l 665 394 z "},"Ŕ":{"ha":953,"x_min":132,"x_max":918,"o":"m 442 1022 q 660 980 571 1022 q 795 860 749 938 q 842 678 842 783 q 823 553 842 615 q 762 439 804 490 q 650 356 719 388 q 478 325 581 325 l 333 325 l 333 0 l 132 0 l 132 1022 l 442 1022 m 476 519 q 572 545 538 519 q 619 606 606 571 q 633 671 633 642 q 628 713 633 688 q 608 765 624 739 q 562 810 593 792 q 478 828 531 828 l 333 828 l 333 519 l 476 519 m 665 394 l 918 0 l 683 0 l 425 389 l 665 394 m 704 1276 l 499 1089 l 381 1089 l 489 1276 l 704 1276 z "},"Ř":{"ha":953,"x_min":132,"x_max":918,"o":"m 442 1022 q 660 980 571 1022 q 795 860 749 938 q 842 678 842 783 q 823 553 842 615 q 762 439 804 490 q 650 356 719 388 q 478 325 581 325 l 333 325 l 333 0 l 132 0 l 132 1022 l 442 1022 m 476 519 q 572 545 538 519 q 619 606 606 571 q 633 671 633 642 q 628 713 633 688 q 608 765 624 739 q 562 810 593 792 q 478 828 531 828 l 333 828 l 333 519 l 476 519 m 665 394 l 918 0 l 683 0 l 425 389 l 665 394 m 357 1329 l 465 1226 l 418 1213 l 528 1329 l 703 1329 l 446 1074 l 444 1074 l 182 1329 l 357 1329 z "},"Ŗ":{"ha":953,"x_min":132,"x_max":918,"o":"m 442 1022 q 660 980 571 1022 q 795 860 749 938 q 842 678 842 783 q 823 553 842 615 q 762 439 804 490 q 650 356 719 388 q 478 325 581 325 l 333 325 l 333 0 l 132 0 l 132 1022 l 442 1022 m 476 519 q 572 545 538 519 q 619 606 606 571 q 633 671 633 642 q 628 713 633 688 q 608 765 624 739 q 562 810 593 792 q 478 828 531 828 l 333 828 l 333 519 l 476 519 m 665 394 l 918 0 l 683 0 l 425 389 l 665 394 m 467 -325 l 367 -258 q 410 -173 397 -229 q 414 -68 424 -117 l 583 -69 q 578 -158 592 -108 q 537 -252 565 -207 q 467 -325 508 -297 z "},"Ȑ":{"ha":953,"x_min":118,"x_max":918,"o":"m 442 1022 q 660 980 571 1022 q 795 860 749 938 q 842 678 842 783 q 823 553 842 615 q 762 439 804 490 q 650 356 719 388 q 478 325 581 325 l 333 325 l 333 0 l 132 0 l 132 1022 l 442 1022 m 476 519 q 572 545 538 519 q 619 606 606 571 q 633 671 633 642 q 628 713 633 688 q 608 765 624 739 q 562 810 593 792 q 478 828 531 828 l 333 828 l 333 519 l 476 519 m 665 394 l 918 0 l 683 0 l 425 389 l 665 394 m 118 1286 l 333 1286 l 419 1099 l 301 1099 l 118 1286 m 354 1286 l 569 1286 l 656 1099 l 538 1099 l 354 1286 z "},"Ȓ":{"ha":953,"x_min":132,"x_max":918,"o":"m 442 1022 q 660 980 571 1022 q 795 860 749 938 q 842 678 842 783 q 823 553 842 615 q 762 439 804 490 q 650 356 719 388 q 478 325 581 325 l 333 325 l 333 0 l 132 0 l 132 1022 l 442 1022 m 476 519 q 572 545 538 519 q 619 606 606 571 q 633 671 633 642 q 628 713 633 688 q 608 765 624 739 q 562 810 593 792 q 478 828 531 828 l 333 828 l 333 519 l 476 519 m 665 394 l 918 0 l 683 0 l 425 389 l 665 394 m 438 1311 q 592 1247 536 1311 q 671 1051 649 1183 l 542 1051 q 508 1147 529 1111 q 438 1182 486 1182 q 368 1147 389 1182 q 335 1051 347 1111 l 206 1051 q 285 1249 229 1188 q 438 1311 340 1311 z "},"S":{"ha":810,"x_min":44,"x_max":754,"o":"m 678 775 q 559 828 619 807 q 446 849 499 849 q 343 822 381 849 q 306 743 306 796 q 334 678 306 707 q 408 628 363 650 q 501 588 453 606 q 617 531 561 565 q 708 438 672 497 q 744 282 744 379 q 704 138 744 204 q 586 30 664 71 q 394 -11 508 -11 q 216 15 307 -11 q 44 99 125 42 l 133 256 q 254 192 186 217 q 376 167 322 167 q 449 177 413 167 q 510 213 486 188 q 535 282 535 238 q 515 338 535 313 q 460 383 494 363 q 386 419 426 404 q 289 461 339 438 q 195 519 239 485 q 124 603 151 553 q 97 728 97 654 q 137 882 97 817 q 249 985 176 947 q 415 1028 321 1024 q 616 999 539 1028 q 754 929 693 969 l 678 775 z "},"Ś":{"ha":810,"x_min":44,"x_max":754,"o":"m 678 775 q 559 828 619 807 q 446 849 499 849 q 343 822 381 849 q 306 743 306 796 q 334 678 306 707 q 408 628 363 650 q 501 588 453 606 q 617 531 561 565 q 708 438 672 497 q 744 282 744 379 q 704 138 744 204 q 586 30 664 71 q 394 -11 508 -11 q 216 15 307 -11 q 44 99 125 42 l 133 256 q 254 192 186 217 q 376 167 322 167 q 449 177 413 167 q 510 213 486 188 q 535 282 535 238 q 515 338 535 313 q 460 383 494 363 q 386 419 426 404 q 289 461 339 438 q 195 519 239 485 q 124 603 151 553 q 97 728 97 654 q 137 882 97 817 q 249 985 176 947 q 415 1028 321 1024 q 616 999 539 1028 q 754 929 693 969 l 678 775 m 660 1249 l 454 1061 l 336 1061 l 444 1249 l 660 1249 z "},"Š":{"ha":810,"x_min":44,"x_max":754,"o":"m 678 775 q 559 828 619 807 q 446 849 499 849 q 343 822 381 849 q 306 743 306 796 q 334 678 306 707 q 408 628 363 650 q 501 588 453 606 q 617 531 561 565 q 708 438 672 497 q 744 282 744 379 q 704 138 744 204 q 586 30 664 71 q 394 -11 508 -11 q 216 15 307 -11 q 44 99 125 42 l 133 256 q 254 192 186 217 q 376 167 322 167 q 449 177 413 167 q 510 213 486 188 q 535 282 535 238 q 515 338 535 313 q 460 383 494 363 q 386 419 426 404 q 289 461 339 438 q 195 519 239 485 q 124 603 151 553 q 97 728 97 654 q 137 882 97 817 q 249 985 176 947 q 415 1028 321 1024 q 616 999 539 1028 q 754 929 693 969 l 678 775 m 313 1301 l 421 1199 l 374 1185 l 483 1301 l 658 1301 l 401 1046 l 400 1046 l 138 1301 l 313 1301 z "},"Ş":{"ha":810,"x_min":44,"x_max":754,"o":"m 678 775 q 559 828 619 807 q 446 849 499 849 q 343 822 381 849 q 306 743 306 796 q 334 678 306 707 q 408 628 363 650 q 501 588 453 606 q 617 531 561 565 q 708 438 672 497 q 744 282 744 379 q 704 138 744 204 q 586 30 664 71 q 394 -11 508 -11 q 216 15 307 -11 q 44 99 125 42 l 133 256 q 254 192 186 217 q 376 167 322 167 q 449 177 413 167 q 510 213 486 188 q 535 282 535 238 q 515 338 535 313 q 460 383 494 363 q 386 419 426 404 q 289 461 339 438 q 195 519 239 485 q 124 603 151 553 q 97 728 97 654 q 137 882 97 817 q 249 985 176 947 q 415 1028 321 1024 q 616 999 539 1028 q 754 929 693 969 l 678 775 m 288 -203 q 323 -230 301 -219 q 371 -240 344 -240 q 420 -228 394 -240 q 446 -190 446 -215 q 432 -160 446 -175 q 372 -144 418 -144 q 329 -149 350 -144 q 289 -160 308 -154 l 263 -68 l 358 3 l 507 3 l 400 -117 l 364 -68 q 394 -64 379 -65 q 422 -61 408 -62 q 553 -90 500 -58 q 607 -187 607 -122 q 576 -274 607 -240 q 495 -325 544 -308 q 390 -342 446 -342 q 290 -323 329 -342 q 228 -279 251 -304 l 288 -203 z "},"Ŝ":{"ha":810,"x_min":44,"x_max":754,"o":"m 678 775 q 559 828 619 807 q 446 849 499 849 q 343 822 381 849 q 306 743 306 796 q 334 678 306 707 q 408 628 363 650 q 501 588 453 606 q 617 531 561 565 q 708 438 672 497 q 744 282 744 379 q 704 138 744 204 q 586 30 664 71 q 394 -11 508 -11 q 216 15 307 -11 q 44 99 125 42 l 133 256 q 254 192 186 217 q 376 167 322 167 q 449 177 413 167 q 510 213 486 188 q 535 282 535 238 q 515 338 535 313 q 460 383 494 363 q 386 419 426 404 q 289 461 339 438 q 195 519 239 485 q 124 603 151 553 q 97 728 97 654 q 137 882 97 817 q 249 985 176 947 q 415 1028 321 1024 q 616 999 539 1028 q 754 929 693 969 l 678 775 m 475 1078 l 367 1181 l 414 1194 l 304 1078 l 129 1078 l 386 1333 l 388 1333 l 650 1078 l 475 1078 z "},"Ș":{"ha":810,"x_min":44,"x_max":754,"o":"m 678 775 q 559 828 619 807 q 446 849 499 849 q 343 822 381 849 q 306 743 306 796 q 334 678 306 707 q 408 628 363 650 q 501 588 453 606 q 617 531 561 565 q 708 438 672 497 q 744 282 744 379 q 704 138 744 204 q 586 30 664 71 q 394 -11 508 -11 q 216 15 307 -11 q 44 99 125 42 l 133 256 q 254 192 186 217 q 376 167 322 167 q 449 177 413 167 q 510 213 486 188 q 535 282 535 238 q 515 338 535 313 q 460 383 494 363 q 386 419 426 404 q 289 461 339 438 q 195 519 239 485 q 124 603 151 553 q 97 728 97 654 q 137 882 97 817 q 249 985 176 947 q 415 1028 321 1024 q 616 999 539 1028 q 754 929 693 969 l 678 775 m 367 -339 l 267 -272 q 310 -187 297 -243 q 314 -82 324 -131 l 483 -83 q 478 -172 492 -122 q 437 -266 465 -221 q 367 -339 408 -311 z "},"ẞ":{"ha":1165,"x_min":132,"x_max":1110,"o":"m 788 -11 q 609 15 700 -11 q 438 99 518 42 l 526 256 q 647 192 579 217 q 769 167 715 167 q 829 177 799 167 q 880 213 860 188 q 900 282 900 238 q 881 336 900 313 q 832 380 863 360 q 765 419 801 400 q 666 483 717 446 q 581 575 615 521 q 546 703 546 629 q 613 888 546 822 q 793 963 681 954 q 847 954 825 963 q 885 929 869 946 l 822 829 q 707 908 771 883 q 574 932 643 932 q 399 848 464 932 q 335 579 335 764 l 335 0 l 132 0 l 132 585 q 182 849 132 735 q 326 1028 232 964 q 553 1092 421 1092 q 703 1072 626 1092 q 844 1020 781 1051 q 940 954 908 989 l 888 806 q 863 819 878 813 q 825 826 847 826 q 767 801 788 826 q 746 736 746 776 q 766 674 746 700 q 817 628 786 649 q 881 588 849 608 q 960 540 919 565 q 1034 480 1000 514 q 1089 398 1068 446 q 1110 282 1110 350 q 1073 138 1110 204 q 965 30 1036 71 q 788 -11 893 -11 z "},"Ə":{"ha":1090,"x_min":56,"x_max":1021,"o":"m 522 1032 q 731 994 639 1032 q 888 890 824 957 q 987 732 953 822 q 1021 535 1021 642 q 981 322 1021 419 q 872 153 942 225 q 711 40 801 81 q 518 0 621 0 q 212 122 332 0 q 56 461 92 243 l 844 717 l 888 569 l 229 349 l 292 408 q 374 245 315 311 q 533 179 433 179 q 668 224 606 179 q 769 347 731 269 q 807 524 807 425 q 764 690 807 621 q 654 797 721 760 q 518 835 588 835 q 422 819 472 835 q 328 778 371 804 q 258 718 285 751 l 158 882 q 262 956 197 922 q 397 1011 326 990 q 522 1032 467 1032 z "},"T":{"ha":814,"x_min":63,"x_max":751,"o":"m 63 1022 l 751 1022 l 751 828 l 503 828 l 503 0 l 301 0 l 301 828 l 63 828 l 63 1022 z "},"Ŧ":{"ha":814,"x_min":63,"x_max":751,"o":"m 63 1022 l 751 1022 l 751 828 l 503 828 l 503 0 l 301 0 l 301 828 l 63 828 l 63 1022 m 182 596 l 619 596 l 619 415 l 182 415 l 182 596 z "},"Ť":{"ha":814,"x_min":63,"x_max":751,"o":"m 63 1022 l 751 1022 l 751 828 l 503 828 l 503 0 l 301 0 l 301 828 l 63 828 l 63 1022 m 318 1301 l 426 1199 l 379 1185 l 489 1301 l 664 1301 l 407 1046 l 406 1046 l 143 1301 l 318 1301 z "},"Ţ":{"ha":814,"x_min":63,"x_max":751,"o":"m 63 1022 l 751 1022 l 751 828 l 503 828 l 503 0 l 301 0 l 301 828 l 63 828 l 63 1022 m 293 -189 q 328 -216 307 -206 q 376 -226 350 -226 q 426 -214 400 -226 q 451 -176 451 -201 q 438 -146 451 -161 q 378 -131 424 -131 q 335 -135 356 -131 q 294 -146 314 -140 l 268 -54 l 364 17 l 513 17 l 406 -103 l 369 -54 q 399 -50 385 -51 q 428 -47 414 -49 q 559 -76 506 -44 q 613 -174 613 -108 q 581 -260 613 -226 q 501 -311 550 -294 q 396 -328 451 -328 q 296 -309 335 -328 q 233 -265 257 -290 l 293 -189 z "},"Ț":{"ha":814,"x_min":63,"x_max":751,"o":"m 63 1022 l 751 1022 l 751 828 l 503 828 l 503 0 l 301 0 l 301 828 l 63 828 l 63 1022 m 372 -325 l 272 -258 q 316 -173 303 -229 q 319 -68 329 -117 l 489 -69 q 484 -158 497 -108 q 442 -252 471 -207 q 372 -325 414 -297 z "},"U":{"ha":1050,"x_min":111,"x_max":939,"o":"m 313 378 q 342 285 313 329 q 419 213 371 240 q 524 185 467 185 q 635 213 586 185 q 712 285 683 240 q 740 378 740 329 l 740 1022 l 939 1022 l 939 374 q 883 174 939 261 q 733 38 828 88 q 524 -11 639 -11 l 524 -11 q 316 38 410 -11 q 167 174 222 88 q 111 374 111 261 l 111 1022 l 313 1022 l 313 378 z "},"Ú":{"ha":1050,"x_min":111,"x_max":939,"o":"m 313 378 q 342 285 313 329 q 419 213 371 240 q 524 185 467 185 q 635 213 586 185 q 712 285 683 240 q 740 378 740 329 l 740 1022 l 939 1022 l 939 374 q 883 174 939 261 q 733 38 828 88 q 524 -11 639 -11 l 524 -11 q 316 38 410 -11 q 167 174 222 88 q 111 374 111 261 l 111 1022 l 313 1022 l 313 378 m 783 1276 l 578 1089 l 460 1089 l 568 1276 l 783 1276 z "},"Ŭ":{"ha":1050,"x_min":111,"x_max":939,"o":"m 313 378 q 342 285 313 329 q 419 213 371 240 q 524 185 467 185 q 635 213 586 185 q 712 285 683 240 q 740 378 740 329 l 740 1022 l 939 1022 l 939 374 q 883 174 939 261 q 733 38 828 88 q 524 -11 639 -11 l 524 -11 q 316 38 410 -11 q 167 174 222 88 q 111 374 111 261 l 111 1022 l 313 1022 l 313 378 m 525 1089 q 372 1153 428 1089 q 292 1349 315 1218 l 421 1349 q 455 1253 433 1289 q 525 1218 476 1218 q 594 1253 574 1218 q 628 1349 615 1289 l 757 1349 q 678 1151 735 1214 q 525 1089 622 1089 z "},"Ǔ":{"ha":1050,"x_min":111,"x_max":939,"o":"m 313 378 q 342 285 313 329 q 419 213 371 240 q 524 185 467 185 q 635 213 586 185 q 712 285 683 240 q 740 378 740 329 l 740 1022 l 939 1022 l 939 374 q 883 174 939 261 q 733 38 828 88 q 524 -11 639 -11 l 524 -11 q 316 38 410 -11 q 167 174 222 88 q 111 374 111 261 l 111 1022 l 313 1022 l 313 378 m 436 1329 l 544 1226 l 497 1213 l 607 1329 l 782 1329 l 525 1074 l 524 1074 l 261 1329 l 436 1329 z "},"Û":{"ha":1050,"x_min":111,"x_max":939,"o":"m 313 378 q 342 285 313 329 q 419 213 371 240 q 524 185 467 185 q 635 213 586 185 q 712 285 683 240 q 740 378 740 329 l 740 1022 l 939 1022 l 939 374 q 883 174 939 261 q 733 38 828 88 q 524 -11 639 -11 l 524 -11 q 316 38 410 -11 q 167 174 222 88 q 111 374 111 261 l 111 1022 l 313 1022 l 313 378 m 599 1106 l 490 1208 l 538 1222 l 428 1106 l 253 1106 l 510 1361 l 511 1361 l 774 1106 l 599 1106 z "},"Ȕ":{"ha":1050,"x_min":111,"x_max":939,"o":"m 313 378 q 342 285 313 329 q 419 213 371 240 q 524 185 467 185 q 635 213 586 185 q 712 285 683 240 q 740 378 740 329 l 740 1022 l 939 1022 l 939 374 q 883 174 939 261 q 733 38 828 88 q 524 -11 639 -11 l 524 -11 q 316 38 410 -11 q 167 174 222 88 q 111 374 111 261 l 111 1022 l 313 1022 l 313 378 m 197 1286 l 413 1286 l 499 1099 l 381 1099 l 197 1286 m 433 1286 l 649 1286 l 735 1099 l 617 1099 l 433 1286 z "},"Ü":{"ha":1050,"x_min":111,"x_max":939,"o":"m 313 378 q 342 285 313 329 q 419 213 371 240 q 524 185 467 185 q 635 213 586 185 q 712 285 683 240 q 740 378 740 329 l 740 1022 l 939 1022 l 939 374 q 883 174 939 261 q 733 38 828 88 q 524 -11 639 -11 l 524 -11 q 316 38 410 -11 q 167 174 222 88 q 111 374 111 261 l 111 1022 l 313 1022 l 313 378 m 278 1186 q 309 1259 278 1231 q 378 1288 340 1288 q 444 1259 413 1288 q 475 1186 475 1231 q 444 1114 475 1142 q 378 1086 413 1086 q 309 1114 340 1086 q 278 1186 278 1142 l 278 1186 m 556 1186 q 587 1259 556 1231 q 656 1288 618 1288 q 722 1259 690 1288 q 753 1186 753 1231 q 722 1114 753 1142 q 656 1086 690 1086 q 587 1114 618 1086 q 556 1186 556 1142 l 556 1186 z "},"Ụ":{"ha":1050,"x_min":111,"x_max":939,"o":"m 313 378 q 342 285 313 329 q 419 213 371 240 q 524 185 467 185 q 635 213 586 185 q 712 285 683 240 q 740 378 740 329 l 740 1022 l 939 1022 l 939 374 q 883 174 939 261 q 733 38 828 88 q 524 -11 639 -11 l 524 -11 q 316 38 410 -11 q 167 174 222 88 q 111 374 111 261 l 111 1022 l 313 1022 l 313 378 m 415 -162 q 449 -92 415 -119 q 522 -64 483 -64 q 594 -92 561 -64 q 626 -162 626 -119 q 594 -233 626 -206 q 522 -260 561 -260 q 449 -233 483 -260 q 415 -162 415 -206 z "},"Ù":{"ha":1050,"x_min":111,"x_max":939,"o":"m 313 378 q 342 285 313 329 q 419 213 371 240 q 524 185 467 185 q 635 213 586 185 q 712 285 683 240 q 740 378 740 329 l 740 1022 l 939 1022 l 939 374 q 883 174 939 261 q 733 38 828 88 q 524 -11 639 -11 l 524 -11 q 316 38 410 -11 q 167 174 222 88 q 111 374 111 261 l 111 1022 l 313 1022 l 313 378 m 267 1282 l 482 1282 l 568 1094 l 450 1094 l 267 1282 z "},"Ủ":{"ha":1050,"x_min":111,"x_max":939,"o":"m 313 378 q 342 285 313 329 q 419 213 371 240 q 524 185 467 185 q 635 213 586 185 q 712 285 683 240 q 740 378 740 329 l 740 1022 l 939 1022 l 939 374 q 883 174 939 261 q 733 38 828 88 q 524 -11 639 -11 l 524 -11 q 316 38 410 -11 q 167 174 222 88 q 111 374 111 261 l 111 1022 l 313 1022 l 313 378 m 511 1164 q 550 1197 535 1181 q 565 1238 565 1214 q 556 1270 565 1257 q 525 1283 547 1283 q 492 1272 507 1283 q 471 1246 478 1261 l 401 1288 q 467 1363 425 1339 q 551 1388 508 1388 q 622 1369 596 1388 q 660 1322 649 1350 q 672 1265 672 1293 q 636 1175 672 1211 q 551 1113 600 1139 l 511 1164 z "},"Ư":{"ha":1099,"x_min":111,"x_max":1147,"o":"m 313 378 q 342 285 313 329 q 419 213 371 240 q 524 185 467 185 q 635 213 586 185 q 712 285 683 240 q 740 378 740 329 l 740 1022 l 939 1022 l 939 374 q 883 174 939 261 q 733 38 828 88 q 524 -11 639 -11 l 524 -11 q 316 38 410 -11 q 167 174 222 88 q 111 374 111 261 l 111 1022 l 313 1022 l 313 378 m 908 925 q 974 947 957 925 q 1004 1028 992 968 l 1147 1028 q 1101 890 1132 938 q 1022 826 1069 843 q 908 810 974 810 l 908 925 z "},"Ứ":{"ha":1099,"x_min":111,"x_max":1147,"o":"m 313 378 q 342 285 313 329 q 419 213 371 240 q 524 185 467 185 q 635 213 586 185 q 712 285 683 240 q 740 378 740 329 l 740 1022 l 939 1022 l 939 374 q 883 174 939 261 q 733 38 828 88 q 524 -11 639 -11 l 524 -11 q 316 38 410 -11 q 167 174 222 88 q 111 374 111 261 l 111 1022 l 313 1022 l 313 378 m 908 925 q 974 947 957 925 q 1004 1028 992 968 l 1147 1028 q 1101 890 1132 938 q 1022 826 1069 843 q 908 810 974 810 l 908 925 m 783 1276 l 578 1089 l 460 1089 l 568 1276 l 783 1276 z "},"Ự":{"ha":1099,"x_min":111,"x_max":1147,"o":"m 313 378 q 342 285 313 329 q 419 213 371 240 q 524 185 467 185 q 635 213 586 185 q 712 285 683 240 q 740 378 740 329 l 740 1022 l 939 1022 l 939 374 q 883 174 939 261 q 733 38 828 88 q 524 -11 639 -11 l 524 -11 q 316 38 410 -11 q 167 174 222 88 q 111 374 111 261 l 111 1022 l 313 1022 l 313 378 m 908 925 q 974 947 957 925 q 1004 1028 992 968 l 1147 1028 q 1101 890 1132 938 q 1022 826 1069 843 q 908 810 974 810 l 908 925 m 415 -162 q 449 -92 415 -119 q 522 -64 483 -64 q 594 -92 561 -64 q 626 -162 626 -119 q 594 -233 626 -206 q 522 -260 561 -260 q 449 -233 483 -260 q 415 -162 415 -206 z "},"Ừ":{"ha":1099,"x_min":111,"x_max":1147,"o":"m 313 378 q 342 285 313 329 q 419 213 371 240 q 524 185 467 185 q 635 213 586 185 q 712 285 683 240 q 740 378 740 329 l 740 1022 l 939 1022 l 939 374 q 883 174 939 261 q 733 38 828 88 q 524 -11 639 -11 l 524 -11 q 316 38 410 -11 q 167 174 222 88 q 111 374 111 261 l 111 1022 l 313 1022 l 313 378 m 908 925 q 974 947 957 925 q 1004 1028 992 968 l 1147 1028 q 1101 890 1132 938 q 1022 826 1069 843 q 908 810 974 810 l 908 925 m 267 1282 l 482 1282 l 568 1094 l 450 1094 l 267 1282 z "},"Ử":{"ha":1099,"x_min":111,"x_max":1147,"o":"m 313 378 q 342 285 313 329 q 419 213 371 240 q 524 185 467 185 q 635 213 586 185 q 712 285 683 240 q 740 378 740 329 l 740 1022 l 939 1022 l 939 374 q 883 174 939 261 q 733 38 828 88 q 524 -11 639 -11 l 524 -11 q 316 38 410 -11 q 167 174 222 88 q 111 374 111 261 l 111 1022 l 313 1022 l 313 378 m 908 925 q 974 947 957 925 q 1004 1028 992 968 l 1147 1028 q 1101 890 1132 938 q 1022 826 1069 843 q 908 810 974 810 l 908 925 m 511 1164 q 550 1197 535 1181 q 565 1238 565 1214 q 556 1270 565 1257 q 525 1283 547 1283 q 492 1272 507 1283 q 471 1246 478 1261 l 401 1288 q 467 1363 425 1339 q 551 1388 508 1388 q 622 1369 596 1388 q 660 1322 649 1350 q 672 1265 672 1293 q 636 1175 672 1211 q 551 1113 600 1139 l 511 1164 z "},"Ữ":{"ha":1099,"x_min":111,"x_max":1147,"o":"m 313 378 q 342 285 313 329 q 419 213 371 240 q 524 185 467 185 q 635 213 586 185 q 712 285 683 240 q 740 378 740 329 l 740 1022 l 939 1022 l 939 374 q 883 174 939 261 q 733 38 828 88 q 524 -11 639 -11 l 524 -11 q 316 38 410 -11 q 167 174 222 88 q 111 374 111 261 l 111 1022 l 313 1022 l 313 378 m 908 925 q 974 947 957 925 q 1004 1028 992 968 l 1147 1028 q 1101 890 1132 938 q 1022 826 1069 843 q 908 810 974 810 l 908 925 m 633 1143 q 554 1163 586 1143 q 496 1204 522 1183 q 466 1226 481 1217 q 435 1236 451 1236 q 398 1206 407 1236 q 393 1146 389 1176 l 296 1146 q 305 1249 289 1200 q 356 1328 321 1297 q 446 1358 392 1358 q 508 1339 481 1358 q 560 1300 536 1319 q 596 1271 579 1283 q 629 1258 613 1258 q 660 1290 656 1258 q 664 1354 665 1321 l 761 1354 q 756 1247 771 1294 q 708 1171 740 1199 q 633 1143 675 1143 z "},"Ű":{"ha":1050,"x_min":111,"x_max":939,"o":"m 313 378 q 342 285 313 329 q 419 213 371 240 q 524 185 467 185 q 635 213 586 185 q 712 285 683 240 q 740 378 740 329 l 740 1022 l 939 1022 l 939 374 q 883 174 939 261 q 733 38 828 88 q 524 -11 639 -11 l 524 -11 q 316 38 410 -11 q 167 174 222 88 q 111 374 111 261 l 111 1022 l 313 1022 l 313 378 m 599 1285 l 393 1097 l 275 1097 l 383 1285 l 599 1285 m 854 1282 l 649 1094 l 531 1094 l 639 1282 l 854 1282 z "},"Ȗ":{"ha":1050,"x_min":111,"x_max":939,"o":"m 313 378 q 342 285 313 329 q 419 213 371 240 q 524 185 467 185 q 635 213 586 185 q 712 285 683 240 q 740 378 740 329 l 740 1022 l 939 1022 l 939 374 q 883 174 939 261 q 733 38 828 88 q 524 -11 639 -11 l 524 -11 q 316 38 410 -11 q 167 174 222 88 q 111 374 111 261 l 111 1022 l 313 1022 l 313 378 m 517 1311 q 672 1247 615 1311 q 750 1051 728 1183 l 621 1051 q 587 1147 608 1111 q 517 1182 565 1182 q 447 1147 468 1182 q 414 1051 426 1111 l 285 1051 q 364 1249 308 1188 q 517 1311 419 1311 z "},"Ū":{"ha":1050,"x_min":111,"x_max":939,"o":"m 313 378 q 342 285 313 329 q 419 213 371 240 q 524 185 467 185 q 635 213 586 185 q 712 285 683 240 q 740 378 740 329 l 740 1022 l 939 1022 l 939 374 q 883 174 939 261 q 733 38 828 88 q 524 -11 639 -11 l 524 -11 q 316 38 410 -11 q 167 174 222 88 q 111 374 111 261 l 111 1022 l 313 1022 l 313 378 m 342 1232 l 696 1232 l 696 1097 l 342 1097 l 342 1232 z "},"Ų":{"ha":1050,"x_min":111,"x_max":939,"o":"m 676 -322 q 533 -273 592 -322 q 474 -143 474 -224 q 504 -53 474 -97 q 592 14 535 -8 l 649 96 l 671 13 q 524 -11 600 -11 q 306 39 399 -11 q 162 176 213 89 q 111 374 111 263 l 111 1022 l 313 1022 l 313 378 q 342 285 313 329 q 419 213 371 240 q 524 185 467 185 q 635 213 586 185 q 712 285 683 240 q 740 378 740 329 l 740 1022 l 939 1022 l 939 361 q 910 218 939 278 q 837 115 881 158 q 749 36 793 72 q 668 -40 703 -3 q 633 -128 633 -78 q 652 -174 633 -162 q 694 -186 671 -186 q 794 -118 749 -186 l 864 -218 q 779 -293 833 -264 q 676 -322 725 -322 z "},"Ů":{"ha":1050,"x_min":111,"x_max":939,"o":"m 313 378 q 342 285 313 329 q 419 213 371 240 q 524 185 467 185 q 635 213 586 185 q 712 285 683 240 q 740 378 740 329 l 740 1022 l 939 1022 l 939 374 q 883 174 939 261 q 733 38 828 88 q 524 -11 639 -11 l 524 -11 q 316 38 410 -11 q 167 174 222 88 q 111 374 111 261 l 111 1022 l 313 1022 l 313 378 m 375 1222 q 419 1328 375 1289 q 531 1367 463 1367 q 640 1328 596 1367 q 685 1222 685 1289 q 640 1117 685 1157 q 531 1076 596 1076 q 419 1117 464 1076 q 375 1222 375 1157 m 476 1219 q 491 1178 476 1193 q 531 1163 506 1163 q 570 1178 556 1163 q 585 1219 585 1193 q 570 1263 585 1249 q 531 1278 556 1278 q 491 1263 506 1278 q 476 1219 476 1249 z "},"Ũ":{"ha":1050,"x_min":111,"x_max":939,"o":"m 313 378 q 342 285 313 329 q 419 213 371 240 q 524 185 467 185 q 635 213 586 185 q 712 285 683 240 q 740 378 740 329 l 740 1022 l 939 1022 l 939 374 q 883 174 939 261 q 733 38 828 88 q 524 -11 639 -11 l 524 -11 q 316 38 410 -11 q 167 174 222 88 q 111 374 111 261 l 111 1022 l 313 1022 l 313 378 m 633 1143 q 554 1163 586 1143 q 496 1204 522 1183 q 466 1226 481 1217 q 435 1236 451 1236 q 398 1206 407 1236 q 393 1146 389 1176 l 296 1146 q 305 1249 289 1200 q 356 1328 321 1297 q 446 1358 392 1358 q 508 1339 481 1358 q 560 1300 536 1319 q 596 1271 579 1283 q 629 1258 613 1258 q 660 1290 656 1258 q 664 1354 665 1321 l 761 1354 q 756 1247 771 1294 q 708 1171 740 1199 q 633 1143 675 1143 z "},"V":{"ha":1022,"x_min":44,"x_max":978,"o":"m 286 1022 l 585 286 l 468 310 l 739 1022 l 978 1022 l 511 -47 l 44 1022 l 286 1022 z "},"W":{"ha":1421,"x_min":44,"x_max":1376,"o":"m 44 1015 l 281 1015 l 499 374 l 467 388 l 657 861 l 750 585 l 456 -47 l 44 1015 m 557 1015 l 757 1015 l 1008 394 l 972 400 l 1160 1015 l 1376 1015 l 982 -44 l 557 1015 z "},"Ẃ":{"ha":1421,"x_min":44,"x_max":1376,"o":"m 44 1015 l 281 1015 l 499 374 l 467 388 l 657 861 l 750 585 l 456 -47 l 44 1015 m 557 1015 l 757 1015 l 1008 394 l 972 400 l 1160 1015 l 1376 1015 l 982 -44 l 557 1015 m 969 1263 l 764 1075 l 646 1075 l 754 1263 l 969 1263 z "},"Ŵ":{"ha":1421,"x_min":44,"x_max":1376,"o":"m 44 1015 l 281 1015 l 499 374 l 467 388 l 657 861 l 750 585 l 456 -47 l 44 1015 m 557 1015 l 757 1015 l 1008 394 l 972 400 l 1160 1015 l 1376 1015 l 982 -44 l 557 1015 m 785 1092 l 676 1194 l 724 1208 l 614 1092 l 439 1092 l 696 1347 l 697 1347 l 960 1092 l 785 1092 z "},"Ẅ":{"ha":1421,"x_min":44,"x_max":1376,"o":"m 44 1015 l 281 1015 l 499 374 l 467 388 l 657 861 l 750 585 l 456 -47 l 44 1015 m 557 1015 l 757 1015 l 1008 394 l 972 400 l 1160 1015 l 1376 1015 l 982 -44 l 557 1015 m 464 1172 q 495 1245 464 1217 q 564 1274 526 1274 q 630 1245 599 1274 q 661 1172 661 1217 q 630 1100 661 1128 q 564 1072 599 1072 q 495 1100 526 1072 q 464 1172 464 1128 l 464 1172 m 742 1172 q 773 1245 742 1217 q 842 1274 804 1274 q 908 1245 876 1274 q 939 1172 939 1217 q 908 1100 939 1128 q 842 1072 876 1072 q 773 1100 804 1072 q 742 1172 742 1128 l 742 1172 z "},"Ẁ":{"ha":1421,"x_min":44,"x_max":1376,"o":"m 44 1015 l 281 1015 l 499 374 l 467 388 l 657 861 l 750 585 l 456 -47 l 44 1015 m 557 1015 l 757 1015 l 1008 394 l 972 400 l 1160 1015 l 1376 1015 l 982 -44 l 557 1015 m 453 1268 l 668 1268 l 754 1081 l 636 1081 l 453 1268 z "},"X":{"ha":1007,"x_min":35,"x_max":972,"o":"m 49 1022 l 306 1022 l 972 0 l 713 0 l 49 1022 m 35 0 l 399 572 l 493 369 l 285 0 l 35 0 m 507 647 l 718 1022 l 963 1022 l 611 474 l 507 647 z "},"Y":{"ha":1003,"x_min":21,"x_max":982,"o":"m 397 318 l 21 1022 l 269 1022 l 533 492 l 474 488 l 733 1022 l 982 1022 l 599 318 l 599 0 l 397 0 l 397 318 z "},"Ý":{"ha":1003,"x_min":21,"x_max":982,"o":"m 397 318 l 21 1022 l 269 1022 l 533 492 l 474 488 l 733 1022 l 982 1022 l 599 318 l 599 0 l 397 0 l 397 318 m 788 1276 l 582 1089 l 464 1089 l 572 1276 l 788 1276 z "},"Ŷ":{"ha":1003,"x_min":21,"x_max":982,"o":"m 397 318 l 21 1022 l 269 1022 l 533 492 l 474 488 l 733 1022 l 982 1022 l 599 318 l 599 0 l 397 0 l 397 318 m 603 1106 l 494 1208 l 542 1222 l 432 1106 l 257 1106 l 514 1361 l 515 1361 l 778 1106 l 603 1106 z "},"Ÿ":{"ha":1003,"x_min":21,"x_max":982,"o":"m 397 318 l 21 1022 l 269 1022 l 533 492 l 474 488 l 733 1022 l 982 1022 l 599 318 l 599 0 l 397 0 l 397 318 m 282 1186 q 313 1259 282 1231 q 382 1288 344 1288 q 448 1259 417 1288 q 479 1186 479 1231 q 448 1114 479 1142 q 382 1086 417 1086 q 313 1114 344 1086 q 282 1186 282 1142 l 282 1186 m 560 1186 q 591 1259 560 1231 q 660 1288 622 1288 q 726 1259 694 1288 q 757 1186 757 1231 q 726 1114 757 1142 q 660 1086 694 1086 q 591 1114 622 1086 q 560 1186 560 1142 l 560 1186 z "},"Ỵ":{"ha":1003,"x_min":21,"x_max":982,"o":"m 397 318 l 21 1022 l 269 1022 l 533 492 l 474 488 l 733 1022 l 982 1022 l 599 318 l 599 0 l 397 0 l 397 318 m 392 -162 q 426 -92 392 -119 q 499 -64 460 -64 q 570 -92 538 -64 q 603 -162 603 -119 q 570 -233 603 -206 q 499 -260 538 -260 q 426 -233 460 -260 q 392 -162 392 -206 z "},"Ỳ":{"ha":1003,"x_min":21,"x_max":982,"o":"m 397 318 l 21 1022 l 269 1022 l 533 492 l 474 488 l 733 1022 l 982 1022 l 599 318 l 599 0 l 397 0 l 397 318 m 271 1282 l 486 1282 l 572 1094 l 454 1094 l 271 1282 z "},"Ỷ":{"ha":1003,"x_min":21,"x_max":982,"o":"m 397 318 l 21 1022 l 269 1022 l 533 492 l 474 488 l 733 1022 l 982 1022 l 599 318 l 599 0 l 397 0 l 397 318 m 515 1164 q 554 1197 539 1181 q 569 1238 569 1214 q 560 1270 569 1257 q 529 1283 551 1283 q 497 1272 511 1283 q 475 1246 482 1261 l 406 1288 q 471 1363 429 1339 q 556 1388 513 1388 q 626 1369 600 1388 q 665 1322 653 1350 q 676 1265 676 1293 q 640 1175 676 1211 q 556 1113 604 1139 l 515 1164 z "},"Ȳ":{"ha":1003,"x_min":21,"x_max":982,"o":"m 397 318 l 21 1022 l 269 1022 l 533 492 l 474 488 l 733 1022 l 982 1022 l 599 318 l 599 0 l 397 0 l 397 318 m 346 1232 l 700 1232 l 700 1097 l 346 1097 l 346 1232 z "},"Ỹ":{"ha":1003,"x_min":21,"x_max":982,"o":"m 397 318 l 21 1022 l 269 1022 l 533 492 l 474 488 l 733 1022 l 982 1022 l 599 318 l 599 0 l 397 0 l 397 318 m 638 1143 q 558 1163 590 1143 q 500 1204 526 1183 q 470 1226 485 1217 q 439 1236 456 1236 q 402 1206 411 1236 q 397 1146 393 1176 l 300 1146 q 309 1249 293 1200 q 360 1328 325 1297 q 450 1358 396 1358 q 513 1339 485 1358 q 564 1300 540 1319 q 600 1271 583 1283 q 633 1258 617 1258 q 665 1290 660 1258 q 668 1354 669 1321 l 765 1354 q 760 1247 775 1294 q 712 1171 744 1199 q 638 1143 679 1143 z "},"Z":{"ha":1003,"x_min":63,"x_max":933,"o":"m 63 0 q 86 38 63 0 q 149 138 110 75 q 238 279 189 200 q 340 442 288 358 q 441 604 392 525 q 530 746 490 683 q 593 846 569 808 q 617 883 617 883 l 639 828 l 271 828 q 210 841 242 828 q 158 877 179 854 q 136 928 136 900 l 136 1074 l 321 1074 l 321 1054 q 331 1023 321 1024 q 365 1022 340 1022 l 933 1022 l 394 172 l 383 194 l 932 194 l 932 0 l 63 0 z "},"Ź":{"ha":1003,"x_min":63,"x_max":933,"o":"m 63 0 q 86 38 63 0 q 149 138 110 75 q 238 279 189 200 q 340 442 288 358 q 441 604 392 525 q 530 746 490 683 q 593 846 569 808 q 617 883 617 883 l 639 828 l 271 828 q 210 841 242 828 q 158 877 179 854 q 136 928 136 900 l 136 1074 l 321 1074 l 321 1054 q 331 1023 321 1024 q 365 1022 340 1022 l 933 1022 l 394 172 l 383 194 l 932 194 l 932 0 l 63 0 m 760 1249 l 554 1061 l 436 1061 l 544 1249 l 760 1249 z "},"Ž":{"ha":1003,"x_min":63,"x_max":933,"o":"m 63 0 q 86 38 63 0 q 149 138 110 75 q 238 279 189 200 q 340 442 288 358 q 441 604 392 525 q 530 746 490 683 q 593 846 569 808 q 617 883 617 883 l 639 828 l 271 828 q 210 841 242 828 q 158 877 179 854 q 136 928 136 900 l 136 1074 l 321 1074 l 321 1054 q 331 1023 321 1024 q 365 1022 340 1022 l 933 1022 l 394 172 l 383 194 l 932 194 l 932 0 l 63 0 m 413 1301 l 521 1199 l 474 1185 l 583 1301 l 758 1301 l 501 1046 l 500 1046 l 238 1301 l 413 1301 z "},"Ż":{"ha":1003,"x_min":63,"x_max":933,"o":"m 63 0 q 86 38 63 0 q 149 138 110 75 q 238 279 189 200 q 340 442 288 358 q 441 604 392 525 q 530 746 490 683 q 593 846 569 808 q 617 883 617 883 l 639 828 l 271 828 q 210 841 242 828 q 158 877 179 854 q 136 928 136 900 l 136 1074 l 321 1074 l 321 1054 q 331 1023 321 1024 q 365 1022 340 1022 l 933 1022 l 394 172 l 383 194 l 932 194 l 932 0 l 63 0 m 396 1154 q 430 1225 396 1197 q 503 1253 464 1253 q 574 1225 542 1253 q 607 1154 607 1197 q 574 1084 607 1111 q 503 1057 542 1057 q 430 1084 464 1057 q 396 1154 396 1111 z "},"a":{"ha":853,"x_min":53,"x_max":753,"o":"m 356 -17 q 202 17 271 -17 q 93 122 133 51 q 53 303 53 193 q 94 481 53 406 q 204 597 136 556 q 349 638 272 638 q 485 608 439 638 q 563 542 532 578 l 554 518 l 572 607 l 753 607 l 753 0 l 558 0 l 558 132 l 574 90 q 557 74 571 90 q 516 37 543 58 q 449 -1 489 15 q 356 -17 410 -17 m 411 142 q 500 165 464 142 q 558 233 536 188 l 558 382 q 501 453 542 426 q 404 479 460 479 q 327 458 363 479 q 271 399 292 436 q 250 313 250 361 q 272 225 250 264 q 331 164 294 186 q 411 142 368 142 z "},"á":{"ha":853,"x_min":53,"x_max":753,"o":"m 356 -17 q 202 17 271 -17 q 93 122 133 51 q 53 303 53 193 q 94 481 53 406 q 204 597 136 556 q 349 638 272 638 q 485 608 439 638 q 563 542 532 578 l 554 518 l 572 607 l 753 607 l 753 0 l 558 0 l 558 132 l 574 90 q 557 74 571 90 q 516 37 543 58 q 449 -1 489 15 q 356 -17 410 -17 m 411 142 q 500 165 464 142 q 558 233 536 188 l 558 382 q 501 453 542 426 q 404 479 460 479 q 327 458 363 479 q 271 399 292 436 q 250 313 250 361 q 272 225 250 264 q 331 164 294 186 q 411 142 368 142 m 658 894 l 453 707 l 335 707 l 443 894 l 658 894 z "},"ă":{"ha":853,"x_min":53,"x_max":753,"o":"m 356 -17 q 202 17 271 -17 q 93 122 133 51 q 53 303 53 193 q 94 481 53 406 q 204 597 136 556 q 349 638 272 638 q 485 608 439 638 q 563 542 532 578 l 554 518 l 572 607 l 753 607 l 753 0 l 558 0 l 558 132 l 574 90 q 557 74 571 90 q 516 37 543 58 q 449 -1 489 15 q 356 -17 410 -17 m 411 142 q 500 165 464 142 q 558 233 536 188 l 558 382 q 501 453 542 426 q 404 479 460 479 q 327 458 363 479 q 271 399 292 436 q 250 313 250 361 q 272 225 250 264 q 331 164 294 186 q 411 142 368 142 m 460 681 q 306 745 363 681 q 226 940 250 810 l 356 940 q 390 845 368 881 q 460 810 411 810 q 529 845 508 810 q 563 940 550 881 l 692 940 q 613 743 669 806 q 460 681 557 681 z "},"ắ":{"ha":853,"x_min":53,"x_max":753,"o":"m 356 -17 q 202 17 271 -17 q 93 122 133 51 q 53 303 53 193 q 94 481 53 406 q 204 597 136 556 q 349 638 272 638 q 485 608 439 638 q 563 542 532 578 l 554 518 l 572 607 l 753 607 l 753 0 l 558 0 l 558 132 l 574 90 q 557 74 571 90 q 516 37 543 58 q 449 -1 489 15 q 356 -17 410 -17 m 411 142 q 500 165 464 142 q 558 233 536 188 l 558 382 q 501 453 542 426 q 404 479 460 479 q 327 458 363 479 q 271 399 292 436 q 250 313 250 361 q 272 225 250 264 q 331 164 294 186 q 411 142 368 142 m 460 681 q 306 745 363 681 q 226 940 250 810 l 356 940 q 390 845 368 881 q 460 810 411 810 q 529 845 508 810 q 563 940 550 881 l 692 940 q 613 743 669 806 q 460 681 557 681 m 642 1160 l 436 972 l 318 972 l 426 1160 l 642 1160 z "},"ặ":{"ha":853,"x_min":53,"x_max":753,"o":"m 356 -17 q 202 17 271 -17 q 93 122 133 51 q 53 303 53 193 q 94 481 53 406 q 204 597 136 556 q 349 638 272 638 q 485 608 439 638 q 563 542 532 578 l 554 518 l 572 607 l 753 607 l 753 0 l 558 0 l 558 132 l 574 90 q 557 74 571 90 q 516 37 543 58 q 449 -1 489 15 q 356 -17 410 -17 m 411 142 q 500 165 464 142 q 558 233 536 188 l 558 382 q 501 453 542 426 q 404 479 460 479 q 327 458 363 479 q 271 399 292 436 q 250 313 250 361 q 272 225 250 264 q 331 164 294 186 q 411 142 368 142 m 338 -151 q 365 -94 338 -117 q 426 -71 393 -71 q 485 -94 458 -71 q 513 -151 513 -117 q 485 -210 513 -187 q 426 -232 458 -232 q 365 -210 393 -232 q 338 -151 338 -187 m 460 681 q 306 745 363 681 q 226 940 250 810 l 356 940 q 390 845 368 881 q 460 810 411 810 q 529 845 508 810 q 563 940 550 881 l 692 940 q 613 743 669 806 q 460 681 557 681 z "},"ằ":{"ha":853,"x_min":53,"x_max":753,"o":"m 356 -17 q 202 17 271 -17 q 93 122 133 51 q 53 303 53 193 q 94 481 53 406 q 204 597 136 556 q 349 638 272 638 q 485 608 439 638 q 563 542 532 578 l 554 518 l 572 607 l 753 607 l 753 0 l 558 0 l 558 132 l 574 90 q 557 74 571 90 q 516 37 543 58 q 449 -1 489 15 q 356 -17 410 -17 m 411 142 q 500 165 464 142 q 558 233 536 188 l 558 382 q 501 453 542 426 q 404 479 460 479 q 327 458 363 479 q 271 399 292 436 q 250 313 250 361 q 272 225 250 264 q 331 164 294 186 q 411 142 368 142 m 460 681 q 306 745 363 681 q 226 940 250 810 l 356 940 q 390 845 368 881 q 460 810 411 810 q 529 845 508 810 q 563 940 550 881 l 692 940 q 613 743 669 806 q 460 681 557 681 m 224 1161 l 439 1161 l 525 974 l 407 974 l 224 1161 z "},"ẳ":{"ha":853,"x_min":53,"x_max":753,"o":"m 356 -17 q 202 17 271 -17 q 93 122 133 51 q 53 303 53 193 q 94 481 53 406 q 204 597 136 556 q 349 638 272 638 q 485 608 439 638 q 563 542 532 578 l 554 518 l 572 607 l 753 607 l 753 0 l 558 0 l 558 132 l 574 90 q 557 74 571 90 q 516 37 543 58 q 449 -1 489 15 q 356 -17 410 -17 m 411 142 q 500 165 464 142 q 558 233 536 188 l 558 382 q 501 453 542 426 q 404 479 460 479 q 327 458 363 479 q 271 399 292 436 q 250 313 250 361 q 272 225 250 264 q 331 164 294 186 q 411 142 368 142 m 460 681 q 306 745 363 681 q 226 940 250 810 l 356 940 q 390 845 368 881 q 460 810 411 810 q 529 845 508 810 q 563 940 550 881 l 692 940 q 613 743 669 806 q 460 681 557 681 m 456 1015 q 494 1049 479 1032 q 510 1089 510 1065 q 501 1122 510 1108 q 469 1135 492 1135 q 437 1124 451 1135 q 415 1097 422 1113 l 346 1139 q 411 1215 369 1190 q 496 1239 453 1239 q 567 1220 540 1239 q 605 1173 593 1201 q 617 1117 617 1144 q 581 1026 617 1063 q 496 964 544 990 l 456 1015 z "},"ẵ":{"ha":853,"x_min":53,"x_max":753,"o":"m 356 -17 q 202 17 271 -17 q 93 122 133 51 q 53 303 53 193 q 94 481 53 406 q 204 597 136 556 q 349 638 272 638 q 485 608 439 638 q 563 542 532 578 l 554 518 l 572 607 l 753 607 l 753 0 l 558 0 l 558 132 l 574 90 q 557 74 571 90 q 516 37 543 58 q 449 -1 489 15 q 356 -17 410 -17 m 411 142 q 500 165 464 142 q 558 233 536 188 l 558 382 q 501 453 542 426 q 404 479 460 479 q 327 458 363 479 q 271 399 292 436 q 250 313 250 361 q 272 225 250 264 q 331 164 294 186 q 411 142 368 142 m 460 681 q 306 745 363 681 q 226 940 250 810 l 356 940 q 390 845 368 881 q 460 810 411 810 q 529 845 508 810 q 563 940 550 881 l 692 940 q 613 743 669 806 q 460 681 557 681 m 578 981 q 499 1001 531 981 q 440 1042 467 1021 q 410 1064 425 1054 q 379 1074 396 1074 q 342 1044 351 1074 q 338 983 333 1014 l 240 983 q 249 1086 233 1038 q 301 1165 265 1135 q 390 1196 336 1196 q 453 1176 425 1196 q 504 1138 481 1157 q 540 1108 524 1121 q 574 1096 557 1096 q 605 1127 600 1096 q 608 1192 610 1158 l 706 1192 q 700 1084 715 1132 q 652 1008 685 1036 q 578 981 619 981 z "},"â":{"ha":853,"x_min":53,"x_max":753,"o":"m 356 -17 q 202 17 271 -17 q 93 122 133 51 q 53 303 53 193 q 94 481 53 406 q 204 597 136 556 q 349 638 272 638 q 485 608 439 638 q 563 542 532 578 l 554 518 l 572 607 l 753 607 l 753 0 l 558 0 l 558 132 l 574 90 q 557 74 571 90 q 516 37 543 58 q 449 -1 489 15 q 356 -17 410 -17 m 411 142 q 500 165 464 142 q 558 233 536 188 l 558 382 q 501 453 542 426 q 404 479 460 479 q 327 458 363 479 q 271 399 292 436 q 250 313 250 361 q 272 225 250 264 q 331 164 294 186 q 411 142 368 142 m 538 707 l 429 810 l 476 824 l 367 707 l 192 707 l 449 963 l 450 963 l 713 707 l 538 707 z "},"ấ":{"ha":853,"x_min":53,"x_max":903,"o":"m 356 -17 q 202 17 271 -17 q 93 122 133 51 q 53 303 53 193 q 94 481 53 406 q 204 597 136 556 q 349 638 272 638 q 485 608 439 638 q 563 542 532 578 l 554 518 l 572 607 l 753 607 l 753 0 l 558 0 l 558 132 l 574 90 q 557 74 571 90 q 516 37 543 58 q 449 -1 489 15 q 356 -17 410 -17 m 411 142 q 500 165 464 142 q 558 233 536 188 l 558 382 q 501 453 542 426 q 404 479 460 479 q 327 458 363 479 q 271 399 292 436 q 250 313 250 361 q 272 225 250 264 q 331 164 294 186 q 411 142 368 142 m 546 707 l 438 810 l 485 824 l 375 707 l 200 707 l 457 963 l 458 963 l 721 707 l 546 707 m 903 1043 l 697 856 l 579 856 l 688 1043 l 903 1043 z "},"ậ":{"ha":853,"x_min":53,"x_max":753,"o":"m 356 -17 q 202 17 271 -17 q 93 122 133 51 q 53 303 53 193 q 94 481 53 406 q 204 597 136 556 q 349 638 272 638 q 485 608 439 638 q 563 542 532 578 l 554 518 l 572 607 l 753 607 l 753 0 l 558 0 l 558 132 l 574 90 q 557 74 571 90 q 516 37 543 58 q 449 -1 489 15 q 356 -17 410 -17 m 411 142 q 500 165 464 142 q 558 233 536 188 l 558 382 q 501 453 542 426 q 404 479 460 479 q 327 458 363 479 q 271 399 292 436 q 250 313 250 361 q 272 225 250 264 q 331 164 294 186 q 411 142 368 142 m 338 -151 q 365 -94 338 -117 q 426 -71 393 -71 q 485 -94 458 -71 q 513 -151 513 -117 q 485 -210 513 -187 q 426 -232 458 -232 q 365 -210 393 -232 q 338 -151 338 -187 m 538 707 l 429 810 l 476 824 l 367 707 l 192 707 l 449 963 l 450 963 l 713 707 l 538 707 z "},"ầ":{"ha":853,"x_min":-39,"x_max":753,"o":"m 356 -17 q 202 17 271 -17 q 93 122 133 51 q 53 303 53 193 q 94 481 53 406 q 204 597 136 556 q 349 638 272 638 q 485 608 439 638 q 563 542 532 578 l 554 518 l 572 607 l 753 607 l 753 0 l 558 0 l 558 132 l 574 90 q 557 74 571 90 q 516 37 543 58 q 449 -1 489 15 q 356 -17 410 -17 m 411 142 q 500 165 464 142 q 558 233 536 188 l 558 382 q 501 453 542 426 q 404 479 460 479 q 327 458 363 479 q 271 399 292 436 q 250 313 250 361 q 272 225 250 264 q 331 164 294 186 q 411 142 368 142 m 535 707 l 426 810 l 474 824 l 364 707 l 189 707 l 446 963 l 447 963 l 710 707 l 535 707 m -39 1049 l 176 1049 l 263 861 l 144 861 l -39 1049 z "},"ẩ":{"ha":853,"x_min":53,"x_max":878,"o":"m 356 -17 q 202 17 271 -17 q 93 122 133 51 q 53 303 53 193 q 94 481 53 406 q 204 597 136 556 q 349 638 272 638 q 485 608 439 638 q 563 542 532 578 l 554 518 l 572 607 l 753 607 l 753 0 l 558 0 l 558 132 l 574 90 q 557 74 571 90 q 516 37 543 58 q 449 -1 489 15 q 356 -17 410 -17 m 411 142 q 500 165 464 142 q 558 233 536 188 l 558 382 q 501 453 542 426 q 404 479 460 479 q 327 458 363 479 q 271 399 292 436 q 250 313 250 361 q 272 225 250 264 q 331 164 294 186 q 411 142 368 142 m 540 707 l 432 810 l 479 824 l 369 707 l 194 707 l 451 963 l 453 963 l 715 707 l 540 707 m 717 861 q 756 894 740 878 q 771 935 771 911 q 762 967 771 954 q 731 981 753 981 q 698 969 713 981 q 676 943 683 958 l 607 985 q 672 1060 631 1036 q 757 1085 714 1085 q 828 1066 801 1085 q 866 1019 854 1047 q 878 963 878 990 q 842 872 878 908 q 757 810 806 836 l 717 861 z "},"ẫ":{"ha":853,"x_min":53,"x_max":753,"o":"m 356 -17 q 202 17 271 -17 q 93 122 133 51 q 53 303 53 193 q 94 481 53 406 q 204 597 136 556 q 349 638 272 638 q 485 608 439 638 q 563 542 532 578 l 554 518 l 572 607 l 753 607 l 753 0 l 558 0 l 558 132 l 574 90 q 557 74 571 90 q 516 37 543 58 q 449 -1 489 15 q 356 -17 410 -17 m 411 142 q 500 165 464 142 q 558 233 536 188 l 558 382 q 501 453 542 426 q 404 479 460 479 q 327 458 363 479 q 271 399 292 436 q 250 313 250 361 q 272 225 250 264 q 331 164 294 186 q 411 142 368 142 m 529 707 l 421 810 l 468 824 l 358 707 l 183 707 l 440 963 l 442 963 l 704 707 l 529 707 m 556 1003 q 476 1023 508 1003 q 418 1064 444 1043 q 388 1086 403 1076 q 357 1096 374 1096 q 320 1066 329 1096 q 315 1006 311 1036 l 218 1006 q 227 1108 211 1060 q 278 1188 243 1157 q 368 1218 314 1218 q 431 1199 403 1218 q 482 1160 458 1179 q 518 1131 501 1143 q 551 1118 535 1118 q 583 1149 578 1118 q 586 1214 588 1181 l 683 1214 q 678 1106 693 1154 q 630 1031 663 1058 q 556 1003 597 1003 z "},"ȁ":{"ha":853,"x_min":53,"x_max":753,"o":"m 356 -17 q 202 17 271 -17 q 93 122 133 51 q 53 303 53 193 q 94 481 53 406 q 204 597 136 556 q 349 638 272 638 q 485 608 439 638 q 563 542 532 578 l 554 518 l 572 607 l 753 607 l 753 0 l 558 0 l 558 132 l 574 90 q 557 74 571 90 q 516 37 543 58 q 449 -1 489 15 q 356 -17 410 -17 m 411 142 q 500 165 464 142 q 558 233 536 188 l 558 382 q 501 453 542 426 q 404 479 460 479 q 327 458 363 479 q 271 399 292 436 q 250 313 250 361 q 272 225 250 264 q 331 164 294 186 q 411 142 368 142 m 107 894 l 322 894 l 408 707 l 290 707 l 107 894 m 343 894 l 558 894 l 644 707 l 526 707 l 343 894 z "},"ä":{"ha":853,"x_min":53,"x_max":753,"o":"m 356 -17 q 202 17 271 -17 q 93 122 133 51 q 53 303 53 193 q 94 481 53 406 q 204 597 136 556 q 349 638 272 638 q 485 608 439 638 q 563 542 532 578 l 554 518 l 572 607 l 753 607 l 753 0 l 558 0 l 558 132 l 574 90 q 557 74 571 90 q 516 37 543 58 q 449 -1 489 15 q 356 -17 410 -17 m 411 142 q 500 165 464 142 q 558 233 536 188 l 558 382 q 501 453 542 426 q 404 479 460 479 q 327 458 363 479 q 271 399 292 436 q 250 313 250 361 q 272 225 250 264 q 331 164 294 186 q 411 142 368 142 m 214 781 q 245 853 214 825 q 314 882 276 882 q 380 853 349 882 q 411 781 411 825 q 380 708 411 736 q 314 681 349 681 q 245 708 276 681 q 214 781 214 736 l 214 781 m 492 781 q 523 853 492 825 q 592 882 554 882 q 658 853 626 882 q 689 781 689 825 q 658 708 689 736 q 592 681 626 681 q 523 708 554 681 q 492 781 492 736 l 492 781 z "},"ạ":{"ha":853,"x_min":53,"x_max":753,"o":"m 356 -17 q 202 17 271 -17 q 93 122 133 51 q 53 303 53 193 q 94 481 53 406 q 204 597 136 556 q 349 638 272 638 q 485 608 439 638 q 563 542 532 578 l 554 518 l 572 607 l 753 607 l 753 0 l 558 0 l 558 132 l 574 90 q 557 74 571 90 q 516 37 543 58 q 449 -1 489 15 q 356 -17 410 -17 m 411 142 q 500 165 464 142 q 558 233 536 188 l 558 382 q 501 453 542 426 q 404 479 460 479 q 327 458 363 479 q 271 399 292 436 q 250 313 250 361 q 272 225 250 264 q 331 164 294 186 q 411 142 368 142 m 338 -151 q 365 -94 338 -117 q 426 -71 393 -71 q 485 -94 458 -71 q 513 -151 513 -117 q 485 -210 513 -187 q 426 -232 458 -232 q 365 -210 393 -232 q 338 -151 338 -187 z "},"à":{"ha":853,"x_min":53,"x_max":753,"o":"m 356 -17 q 202 17 271 -17 q 93 122 133 51 q 53 303 53 193 q 94 481 53 406 q 204 597 136 556 q 349 638 272 638 q 485 608 439 638 q 563 542 532 578 l 554 518 l 572 607 l 753 607 l 753 0 l 558 0 l 558 132 l 574 90 q 557 74 571 90 q 516 37 543 58 q 449 -1 489 15 q 356 -17 410 -17 m 411 142 q 500 165 464 142 q 558 233 536 188 l 558 382 q 501 453 542 426 q 404 479 460 479 q 327 458 363 479 q 271 399 292 436 q 250 313 250 361 q 272 225 250 264 q 331 164 294 186 q 411 142 368 142 m 210 894 l 425 894 l 511 707 l 393 707 l 210 894 z "},"ả":{"ha":853,"x_min":53,"x_max":753,"o":"m 356 -17 q 202 17 271 -17 q 93 122 133 51 q 53 303 53 193 q 94 481 53 406 q 204 597 136 556 q 349 638 272 638 q 485 608 439 638 q 563 542 532 578 l 554 518 l 572 607 l 753 607 l 753 0 l 558 0 l 558 132 l 574 90 q 557 74 571 90 q 516 37 543 58 q 449 -1 489 15 q 356 -17 410 -17 m 411 142 q 500 165 464 142 q 558 233 536 188 l 558 382 q 501 453 542 426 q 404 479 460 479 q 327 458 363 479 q 271 399 292 436 q 250 313 250 361 q 272 225 250 264 q 331 164 294 186 q 411 142 368 142 m 414 750 q 453 783 438 767 q 468 824 468 800 q 459 856 468 843 q 428 869 450 869 q 395 858 410 869 q 374 832 381 847 l 304 874 q 369 949 328 925 q 454 974 411 974 q 525 955 499 974 q 563 908 551 936 q 575 851 575 879 q 539 761 575 797 q 454 699 503 725 l 414 750 z "},"ȃ":{"ha":853,"x_min":53,"x_max":753,"o":"m 356 -17 q 202 17 271 -17 q 93 122 133 51 q 53 303 53 193 q 94 481 53 406 q 204 597 136 556 q 349 638 272 638 q 485 608 439 638 q 563 542 532 578 l 554 518 l 572 607 l 753 607 l 753 0 l 558 0 l 558 132 l 574 90 q 557 74 571 90 q 516 37 543 58 q 449 -1 489 15 q 356 -17 410 -17 m 411 142 q 500 165 464 142 q 558 233 536 188 l 558 382 q 501 453 542 426 q 404 479 460 479 q 327 458 363 479 q 271 399 292 436 q 250 313 250 361 q 272 225 250 264 q 331 164 294 186 q 411 142 368 142 m 460 940 q 615 876 558 940 q 693 681 671 813 l 564 681 q 530 776 551 740 q 460 811 508 811 q 390 776 411 811 q 357 681 369 740 l 228 681 q 307 878 251 817 q 460 940 363 940 z "},"ā":{"ha":853,"x_min":53,"x_max":753,"o":"m 356 -17 q 202 17 271 -17 q 93 122 133 51 q 53 303 53 193 q 94 481 53 406 q 204 597 136 556 q 349 638 272 638 q 485 608 439 638 q 563 542 532 578 l 554 518 l 572 607 l 753 607 l 753 0 l 558 0 l 558 132 l 574 90 q 557 74 571 90 q 516 37 543 58 q 449 -1 489 15 q 356 -17 410 -17 m 411 142 q 500 165 464 142 q 558 233 536 188 l 558 382 q 501 453 542 426 q 404 479 460 479 q 327 458 363 479 q 271 399 292 436 q 250 313 250 361 q 272 225 250 264 q 331 164 294 186 q 411 142 368 142 m 278 814 l 632 814 l 632 679 l 278 679 l 278 814 z "},"ą":{"ha":863,"x_min":58,"x_max":842,"o":"m 354 -17 q 205 17 272 -17 q 98 122 138 51 q 58 303 58 193 q 100 481 58 406 q 210 597 142 556 q 354 638 278 638 q 454 624 415 638 q 519 588 493 610 q 565 542 546 567 l 578 607 l 758 607 l 758 0 q 653 -55 694 -26 q 611 -128 611 -83 q 630 -174 611 -162 q 672 -186 649 -186 q 772 -118 726 -186 l 842 -218 q 757 -293 811 -264 q 654 -322 703 -322 q 510 -273 569 -322 q 451 -143 451 -224 q 482 -53 451 -97 q 569 14 513 -8 l 586 -10 l 564 -36 l 564 132 l 579 90 q 536 52 564 78 q 464 5 508 26 q 354 -17 419 -17 m 410 142 q 503 165 465 142 q 564 233 540 188 l 564 382 q 506 453 547 426 q 410 479 465 479 q 333 458 368 479 q 276 399 297 436 q 256 313 256 361 q 276 225 256 264 q 333 164 297 186 q 410 142 368 142 z "},"å":{"ha":853,"x_min":53,"x_max":753,"o":"m 356 -17 q 202 17 271 -17 q 93 122 133 51 q 53 303 53 193 q 94 481 53 406 q 204 597 136 556 q 349 638 272 638 q 485 608 439 638 q 563 542 532 578 l 554 518 l 572 607 l 753 607 l 753 0 l 558 0 l 558 132 l 574 90 q 557 74 571 90 q 516 37 543 58 q 449 -1 489 15 q 356 -17 410 -17 m 411 142 q 500 165 464 142 q 558 233 536 188 l 558 382 q 501 453 542 426 q 404 479 460 479 q 327 458 363 479 q 271 399 292 436 q 250 313 250 361 q 272 225 250 264 q 331 164 294 186 q 411 142 368 142 m 279 814 q 323 919 279 881 q 435 958 367 958 q 544 919 500 958 q 589 814 589 881 q 544 708 589 749 q 435 668 500 668 q 324 708 368 668 q 279 814 279 749 m 381 811 q 395 769 381 785 q 435 754 410 754 q 474 769 460 754 q 489 811 489 785 q 474 855 489 840 q 435 869 460 869 q 395 855 410 869 q 381 811 381 840 z "},"ǻ":{"ha":853,"x_min":53,"x_max":753,"o":"m 356 -17 q 202 17 271 -17 q 93 122 133 51 q 53 303 53 193 q 94 481 53 406 q 204 597 136 556 q 349 638 272 638 q 485 608 439 638 q 563 542 532 578 l 554 518 l 572 607 l 753 607 l 753 0 l 558 0 l 558 132 l 574 90 q 557 74 571 90 q 516 37 543 58 q 449 -1 489 15 q 356 -17 410 -17 m 411 142 q 500 165 464 142 q 558 233 536 188 l 558 382 q 501 453 542 426 q 404 479 460 479 q 327 458 363 479 q 271 399 292 436 q 250 313 250 361 q 272 225 250 264 q 331 164 294 186 q 411 142 368 142 m 279 814 q 323 919 279 881 q 435 958 367 958 q 544 919 500 958 q 589 814 589 881 q 544 708 589 749 q 435 668 500 668 q 324 708 368 668 q 279 814 279 749 m 381 811 q 395 769 381 785 q 435 754 410 754 q 474 769 460 754 q 489 811 489 785 q 474 855 489 840 q 435 869 460 869 q 395 855 410 869 q 381 811 381 840 m 658 1218 l 453 1031 l 335 1031 l 443 1218 l 658 1218 z "},"ã":{"ha":853,"x_min":53,"x_max":753,"o":"m 356 -17 q 202 17 271 -17 q 93 122 133 51 q 53 303 53 193 q 94 481 53 406 q 204 597 136 556 q 349 638 272 638 q 485 608 439 638 q 563 542 532 578 l 554 518 l 572 607 l 753 607 l 753 0 l 558 0 l 558 132 l 574 90 q 557 74 571 90 q 516 37 543 58 q 449 -1 489 15 q 356 -17 410 -17 m 411 142 q 500 165 464 142 q 558 233 536 188 l 558 382 q 501 453 542 426 q 404 479 460 479 q 327 458 363 479 q 271 399 292 436 q 250 313 250 361 q 272 225 250 264 q 331 164 294 186 q 411 142 368 142 m 564 675 q 485 695 517 675 q 426 736 453 715 q 397 758 411 749 q 365 768 382 768 q 328 738 338 768 q 324 678 319 708 l 226 678 q 235 781 219 732 q 287 860 251 829 q 376 890 322 890 q 439 871 411 890 q 490 832 467 851 q 526 803 510 815 q 560 790 543 790 q 591 822 586 790 q 594 886 596 853 l 692 886 q 686 778 701 826 q 638 703 671 731 q 564 675 606 675 z "},"æ":{"ha":1179,"x_min":53,"x_max":1138,"o":"m 292 -15 q 111 39 169 -15 q 53 178 53 93 q 90 278 53 236 q 189 344 128 321 q 318 367 250 367 q 438 352 379 367 q 528 319 497 338 l 497 208 q 433 235 458 228 q 364 242 408 242 q 293 228 319 242 q 267 182 267 214 q 289 135 267 151 q 347 118 311 118 q 425 140 386 118 q 482 188 464 163 l 482 240 l 554 240 l 554 101 q 446 15 513 46 q 292 -15 379 -15 m 464 315 l 464 365 q 440 435 464 411 q 388 469 417 460 q 344 478 360 478 q 249 448 289 478 q 189 389 208 418 l 92 511 q 206 598 138 560 q 372 636 275 636 q 510 612 447 636 q 613 540 574 588 q 651 418 651 492 l 651 390 l 464 315 m 810 -17 q 622 25 699 -17 q 504 140 544 67 q 464 310 464 214 q 511 475 464 401 q 638 592 558 549 q 814 636 717 636 q 1028 560 944 636 q 1138 342 1113 485 l 665 192 l 622 297 l 964 413 l 924 394 q 884 458 913 431 q 799 485 856 485 q 694 440 733 485 q 656 321 656 396 q 701 192 656 236 q 814 149 747 149 q 876 160 846 149 q 935 189 906 171 l 1021 44 q 916 0 972 17 q 810 -17 860 -17 z "},"ǽ":{"ha":1179,"x_min":53,"x_max":1138,"o":"m 292 -15 q 111 39 169 -15 q 53 178 53 93 q 90 278 53 236 q 189 344 128 321 q 318 367 250 367 q 438 352 379 367 q 528 319 497 338 l 497 208 q 433 235 458 228 q 364 242 408 242 q 293 228 319 242 q 267 182 267 214 q 289 135 267 151 q 347 118 311 118 q 425 140 386 118 q 482 188 464 163 l 482 240 l 554 240 l 554 101 q 446 15 513 46 q 292 -15 379 -15 m 464 315 l 464 365 q 440 435 464 411 q 388 469 417 460 q 344 478 360 478 q 249 448 289 478 q 189 389 208 418 l 92 511 q 206 598 138 560 q 372 636 275 636 q 510 612 447 636 q 613 540 574 588 q 651 418 651 492 l 651 390 l 464 315 m 810 -17 q 622 25 699 -17 q 504 140 544 67 q 464 310 464 214 q 511 475 464 401 q 638 592 558 549 q 814 636 717 636 q 1028 560 944 636 q 1138 342 1113 485 l 665 192 l 622 297 l 964 413 l 924 394 q 884 458 913 431 q 799 485 856 485 q 694 440 733 485 q 656 321 656 396 q 701 192 656 236 q 814 149 747 149 q 876 160 846 149 q 935 189 906 171 l 1021 44 q 916 0 972 17 q 810 -17 860 -17 m 792 867 l 586 679 l 468 679 l 576 867 l 792 867 z "},"b":{"ha":867,"x_min":100,"x_max":814,"o":"m 499 -17 q 370 9 422 -17 q 279 76 318 35 l 294 118 l 294 0 l 100 0 l 100 1096 l 293 1096 l 293 503 l 293 565 q 389 617 329 596 q 525 638 449 638 q 669 600 604 638 q 774 491 735 563 q 814 317 814 419 q 770 139 814 214 q 654 24 726 64 q 499 -17 582 -17 m 456 147 q 535 169 499 147 q 594 231 572 192 q 617 318 617 269 q 594 404 617 367 q 535 463 572 442 q 456 485 499 485 q 356 458 399 485 q 294 388 313 432 l 294 239 q 359 170 319 193 q 456 147 399 147 z "},"c":{"ha":665,"x_min":53,"x_max":621,"o":"m 615 54 q 515 3 575 22 q 396 -17 454 -17 q 215 22 292 -17 q 95 131 138 60 q 53 304 53 203 q 99 477 53 406 q 219 586 144 549 q 375 624 293 624 q 517 601 457 624 q 621 543 578 579 l 526 418 q 473 449 507 433 q 393 465 439 465 q 319 444 353 465 q 267 388 286 424 q 247 304 247 351 q 268 222 247 260 q 326 163 289 185 q 413 142 363 142 q 472 151 444 142 q 518 176 499 160 l 615 54 z "},"ć":{"ha":665,"x_min":53,"x_max":621,"o":"m 615 54 q 515 3 575 22 q 396 -17 454 -17 q 215 22 292 -17 q 95 131 138 60 q 53 304 53 203 q 99 477 53 406 q 219 586 144 549 q 375 624 293 624 q 517 601 457 624 q 621 543 578 579 l 526 418 q 473 449 507 433 q 393 465 439 465 q 319 444 353 465 q 267 388 286 424 q 247 304 247 351 q 268 222 247 260 q 326 163 289 185 q 413 142 363 142 q 472 151 444 142 q 518 176 499 160 l 615 54 m 560 881 l 354 693 l 236 693 l 344 881 l 560 881 z "},"č":{"ha":665,"x_min":53,"x_max":631,"o":"m 615 54 q 515 3 575 22 q 396 -17 454 -17 q 215 22 292 -17 q 95 131 138 60 q 53 304 53 203 q 99 477 53 406 q 219 586 144 549 q 375 624 293 624 q 517 601 457 624 q 621 543 578 579 l 526 418 q 473 449 507 433 q 393 465 439 465 q 319 444 353 465 q 267 388 286 424 q 247 304 247 351 q 268 222 247 260 q 326 163 289 185 q 413 142 363 142 q 472 151 444 142 q 518 176 499 160 l 615 54 m 285 949 l 393 846 l 346 832 l 456 949 l 631 949 l 374 693 l 372 693 l 110 949 l 285 949 z "},"ç":{"ha":665,"x_min":53,"x_max":621,"o":"m 615 54 q 515 3 575 22 q 396 -17 454 -17 q 215 22 292 -17 q 95 131 138 60 q 53 304 53 203 q 99 477 53 406 q 219 586 144 549 q 375 624 293 624 q 517 601 457 624 q 621 543 578 579 l 526 418 q 473 449 507 433 q 393 465 439 465 q 319 444 353 465 q 267 388 286 424 q 247 304 247 351 q 268 222 247 260 q 326 163 289 185 q 413 142 363 142 q 472 151 444 142 q 518 176 499 160 l 615 54 m 218 -189 q 253 -216 232 -206 q 301 -226 275 -226 q 351 -214 325 -226 q 376 -176 376 -201 q 363 -146 376 -161 q 303 -131 349 -131 q 260 -135 281 -131 q 219 -146 239 -140 l 193 -54 l 289 17 l 438 17 l 331 -103 l 294 -54 q 324 -50 310 -51 q 353 -47 339 -49 q 484 -76 431 -44 q 538 -174 538 -108 q 506 -260 538 -226 q 426 -311 475 -294 q 321 -328 376 -328 q 221 -309 260 -328 q 158 -265 182 -290 l 218 -189 z "},"ĉ":{"ha":665,"x_min":53,"x_max":621,"o":"m 615 54 q 515 3 575 22 q 396 -17 454 -17 q 215 22 292 -17 q 95 131 138 60 q 53 304 53 203 q 99 477 53 406 q 219 586 144 549 q 375 624 293 624 q 517 601 457 624 q 621 543 578 579 l 526 418 q 473 449 507 433 q 393 465 439 465 q 319 444 353 465 q 267 388 286 424 q 247 304 247 351 q 268 222 247 260 q 326 163 289 185 q 413 142 363 142 q 472 151 444 142 q 518 176 499 160 l 615 54 m 439 693 l 331 796 l 378 810 l 268 693 l 93 693 l 350 949 l 351 949 l 614 693 l 439 693 z "},"ċ":{"ha":665,"x_min":53,"x_max":621,"o":"m 615 54 q 515 3 575 22 q 396 -17 454 -17 q 215 22 292 -17 q 95 131 138 60 q 53 304 53 203 q 99 477 53 406 q 219 586 144 549 q 375 624 293 624 q 517 601 457 624 q 621 543 578 579 l 526 418 q 473 449 507 433 q 393 465 439 465 q 319 444 353 465 q 267 388 286 424 q 247 304 247 351 q 268 222 247 260 q 326 163 289 185 q 413 142 363 142 q 472 151 444 142 q 518 176 499 160 l 615 54 m 251 836 q 285 907 251 879 q 358 935 319 935 q 430 907 397 935 q 463 836 463 879 q 430 766 463 793 q 358 739 397 739 q 285 766 319 739 q 251 836 251 793 z "},"d":{"ha":867,"x_min":53,"x_max":767,"o":"m 347 -17 q 196 23 263 -17 q 91 138 129 63 q 53 315 53 213 q 94 490 53 418 q 208 600 136 563 q 372 638 281 638 q 484 619 431 638 q 574 564 538 601 l 574 503 l 574 1096 l 767 1096 l 767 0 l 572 0 l 572 118 l 588 76 q 482 10 540 38 q 347 -17 424 -17 m 411 147 q 508 170 469 147 q 572 239 547 193 l 572 388 q 513 458 556 432 q 411 485 469 485 q 331 463 368 485 q 272 404 294 442 q 250 318 250 367 q 272 231 250 269 q 331 169 294 192 q 411 147 368 147 z "},"ð":{"ha":793,"x_min":53,"x_max":740,"o":"m 379 -17 q 215 22 289 -17 q 97 135 140 61 q 53 311 53 208 q 92 478 53 404 q 199 594 132 551 q 350 636 267 636 q 465 606 415 636 q 549 528 515 576 q 601 422 583 479 q 618 311 618 365 l 544 353 q 524 556 544 469 q 463 710 504 642 q 360 840 422 778 q 215 968 299 901 l 360 1096 q 513 963 443 1042 q 634 788 583 883 q 713 586 685 692 q 740 375 740 481 q 718 235 740 304 q 651 108 696 165 q 538 17 606 51 q 379 -17 471 -17 m 396 142 q 504 190 464 142 q 544 310 544 238 q 504 430 544 382 q 396 478 464 478 q 321 456 354 478 q 268 396 288 433 q 249 310 249 358 q 268 224 249 263 q 321 164 288 186 q 396 142 354 142 m 683 926 l 297 690 l 235 819 l 621 1056 l 683 926 z "},"ď":{"ha":1024,"x_min":53,"x_max":1057,"o":"m 347 -17 q 196 23 263 -17 q 91 138 129 63 q 53 315 53 213 q 94 490 53 418 q 208 600 136 563 q 372 638 281 638 q 484 619 431 638 q 574 564 538 601 l 574 503 l 574 1096 l 767 1096 l 767 0 l 572 0 l 572 118 l 588 76 q 482 10 540 38 q 347 -17 424 -17 m 411 147 q 508 170 469 147 q 572 239 547 193 l 572 388 q 513 458 556 432 q 411 485 469 485 q 331 463 368 485 q 272 404 294 442 q 250 318 250 367 q 272 231 250 269 q 331 169 294 192 q 411 147 368 147 m 940 874 l 840 913 q 890 993 871 940 q 900 1094 910 1046 l 1049 1104 q 1042 1018 1057 1065 q 1001 932 1028 971 q 940 874 974 893 l 940 874 z "},"đ":{"ha":867,"x_min":53,"x_max":878,"o":"m 347 -17 q 196 23 263 -17 q 91 138 129 63 q 53 315 53 213 q 94 490 53 418 q 208 600 136 563 q 372 638 281 638 q 484 619 431 638 q 574 564 538 601 l 574 503 l 574 1096 l 767 1096 l 767 0 l 572 0 l 572 118 l 588 76 q 482 10 540 38 q 347 -17 424 -17 m 411 147 q 508 170 469 147 q 572 239 547 193 l 572 388 q 513 458 556 432 q 411 485 469 485 q 331 463 368 485 q 272 404 294 442 q 250 318 250 367 q 272 231 250 269 q 331 169 294 192 q 411 147 368 147 m 440 976 l 878 976 l 878 796 l 440 796 l 440 976 z "},"ǳ":{"ha":1592,"x_min":53,"x_max":1514,"o":"m 347 -17 q 196 23 263 -17 q 91 138 129 63 q 53 315 53 213 q 94 490 53 418 q 208 600 136 563 q 372 638 281 638 q 484 619 431 638 q 574 564 538 601 l 574 503 l 574 1096 l 767 1096 l 767 0 l 572 0 l 572 118 l 588 76 q 482 10 540 38 q 347 -17 424 -17 m 411 147 q 508 170 469 147 q 572 239 547 193 l 572 388 q 513 458 556 432 q 411 485 469 485 q 331 463 368 485 q 272 404 294 442 q 250 318 250 367 q 272 231 250 269 q 331 169 294 192 q 411 147 368 147 m 1061 449 q 974 485 1011 449 q 936 582 936 521 l 936 665 l 1082 665 l 1082 646 q 1092 612 1082 617 q 1129 607 1103 607 l 1514 607 l 1178 118 l 1142 158 l 1510 158 l 1510 0 l 894 0 l 1240 504 l 1269 449 l 1061 449 z "},"ǆ":{"ha":1592,"x_min":53,"x_max":1514,"o":"m 347 -17 q 196 23 263 -17 q 91 138 129 63 q 53 315 53 213 q 94 490 53 418 q 208 600 136 563 q 372 638 281 638 q 484 619 431 638 q 574 564 538 601 l 574 503 l 574 1096 l 767 1096 l 767 0 l 572 0 l 572 118 l 588 76 q 482 10 540 38 q 347 -17 424 -17 m 411 147 q 508 170 469 147 q 572 239 547 193 l 572 388 q 513 458 556 432 q 411 485 469 485 q 331 463 368 485 q 272 404 294 442 q 250 318 250 367 q 272 231 250 269 q 331 169 294 192 q 411 147 368 147 m 1061 449 q 974 485 1011 449 q 936 582 936 521 l 936 665 l 1082 665 l 1082 646 q 1092 612 1082 617 q 1129 607 1103 607 l 1514 607 l 1178 118 l 1142 158 l 1510 158 l 1510 0 l 894 0 l 1240 504 l 1269 449 l 1061 449 m 1158 935 l 1267 832 l 1219 818 l 1329 935 l 1504 935 l 1247 679 l 1246 679 l 983 935 l 1158 935 z "},"e":{"ha":768,"x_min":53,"x_max":726,"o":"m 399 -17 q 210 25 288 -17 q 93 140 133 67 q 53 310 53 214 q 100 475 53 401 q 226 592 147 549 q 403 636 306 636 q 617 560 533 636 q 726 342 701 485 l 254 192 l 211 297 l 553 413 l 513 394 q 473 458 501 431 q 388 485 444 485 q 283 440 322 485 q 244 321 244 396 q 290 192 244 236 q 403 149 336 149 q 465 160 435 149 q 524 189 494 171 l 610 44 q 505 0 561 17 q 399 -17 449 -17 z "},"é":{"ha":768,"x_min":53,"x_max":726,"o":"m 399 -17 q 210 25 288 -17 q 93 140 133 67 q 53 310 53 214 q 100 475 53 401 q 226 592 147 549 q 403 636 306 636 q 617 560 533 636 q 726 342 701 485 l 254 192 l 211 297 l 553 413 l 513 394 q 473 458 501 431 q 388 485 444 485 q 283 440 322 485 q 244 321 244 396 q 290 192 244 236 q 403 149 336 149 q 465 160 435 149 q 524 189 494 171 l 610 44 q 505 0 561 17 q 399 -17 449 -17 m 607 896 l 401 708 l 283 708 l 392 896 l 607 896 z "},"ĕ":{"ha":768,"x_min":53,"x_max":726,"o":"m 399 -17 q 210 25 288 -17 q 93 140 133 67 q 53 310 53 214 q 100 475 53 401 q 226 592 147 549 q 403 636 306 636 q 617 560 533 636 q 726 342 701 485 l 254 192 l 211 297 l 553 413 l 513 394 q 473 458 501 431 q 388 485 444 485 q 283 440 322 485 q 244 321 244 396 q 290 192 244 236 q 403 149 336 149 q 465 160 435 149 q 524 189 494 171 l 610 44 q 505 0 561 17 q 399 -17 449 -17 m 408 682 q 255 747 311 682 q 175 942 199 811 l 304 942 q 338 847 317 882 q 408 811 360 811 q 478 847 457 811 q 511 942 499 882 l 640 942 q 562 744 618 807 q 408 682 506 682 z "},"ě":{"ha":768,"x_min":53,"x_max":726,"o":"m 399 -17 q 210 25 288 -17 q 93 140 133 67 q 53 310 53 214 q 100 475 53 401 q 226 592 147 549 q 403 636 306 636 q 617 560 533 636 q 726 342 701 485 l 254 192 l 211 297 l 553 413 l 513 394 q 473 458 501 431 q 388 485 444 485 q 283 440 322 485 q 244 321 244 396 q 290 192 244 236 q 403 149 336 149 q 465 160 435 149 q 524 189 494 171 l 610 44 q 505 0 561 17 q 399 -17 449 -17 m 332 964 l 440 861 l 393 847 l 503 964 l 678 964 l 421 708 l 419 708 l 157 964 l 332 964 z "},"ê":{"ha":768,"x_min":53,"x_max":726,"o":"m 399 -17 q 210 25 288 -17 q 93 140 133 67 q 53 310 53 214 q 100 475 53 401 q 226 592 147 549 q 403 636 306 636 q 617 560 533 636 q 726 342 701 485 l 254 192 l 211 297 l 553 413 l 513 394 q 473 458 501 431 q 388 485 444 485 q 283 440 322 485 q 244 321 244 396 q 290 192 244 236 q 403 149 336 149 q 465 160 435 149 q 524 189 494 171 l 610 44 q 505 0 561 17 q 399 -17 449 -17 m 486 708 l 378 811 l 425 825 l 315 708 l 140 708 l 397 964 l 399 964 l 661 708 l 486 708 z "},"ế":{"ha":768,"x_min":53,"x_max":851,"o":"m 399 -17 q 210 25 288 -17 q 93 140 133 67 q 53 310 53 214 q 100 475 53 401 q 226 592 147 549 q 403 636 306 636 q 617 560 533 636 q 726 342 701 485 l 254 192 l 211 297 l 553 413 l 513 394 q 473 458 501 431 q 388 485 444 485 q 283 440 322 485 q 244 321 244 396 q 290 192 244 236 q 403 149 336 149 q 465 160 435 149 q 524 189 494 171 l 610 44 q 505 0 561 17 q 399 -17 449 -17 m 494 708 l 386 811 l 433 825 l 324 708 l 149 708 l 406 964 l 407 964 l 669 708 l 494 708 m 851 1044 l 646 857 l 528 857 l 636 1044 l 851 1044 z "},"ệ":{"ha":768,"x_min":53,"x_max":726,"o":"m 399 -17 q 210 25 288 -17 q 93 140 133 67 q 53 310 53 214 q 100 475 53 401 q 226 592 147 549 q 403 636 306 636 q 617 560 533 636 q 726 342 701 485 l 254 192 l 211 297 l 553 413 l 513 394 q 473 458 501 431 q 388 485 444 485 q 283 440 322 485 q 244 321 244 396 q 290 192 244 236 q 403 149 336 149 q 465 160 435 149 q 524 189 494 171 l 610 44 q 505 0 561 17 q 399 -17 449 -17 m 297 -151 q 325 -94 297 -117 q 386 -71 353 -71 q 445 -94 418 -71 q 472 -151 472 -117 q 445 -210 472 -187 q 386 -232 418 -232 q 325 -210 353 -232 q 297 -151 297 -187 m 486 708 l 378 811 l 425 825 l 315 708 l 140 708 l 397 964 l 399 964 l 661 708 l 486 708 z "},"ề":{"ha":768,"x_min":-90,"x_max":726,"o":"m 399 -17 q 210 25 288 -17 q 93 140 133 67 q 53 310 53 214 q 100 475 53 401 q 226 592 147 549 q 403 636 306 636 q 617 560 533 636 q 726 342 701 485 l 254 192 l 211 297 l 553 413 l 513 394 q 473 458 501 431 q 388 485 444 485 q 283 440 322 485 q 244 321 244 396 q 290 192 244 236 q 403 149 336 149 q 465 160 435 149 q 524 189 494 171 l 610 44 q 505 0 561 17 q 399 -17 449 -17 m 483 708 l 375 811 l 422 825 l 313 708 l 138 708 l 394 964 l 396 964 l 658 708 l 483 708 m -90 1050 l 125 1050 l 211 863 l 93 863 l -90 1050 z "},"ể":{"ha":768,"x_min":53,"x_max":826,"o":"m 399 -17 q 210 25 288 -17 q 93 140 133 67 q 53 310 53 214 q 100 475 53 401 q 226 592 147 549 q 403 636 306 636 q 617 560 533 636 q 726 342 701 485 l 254 192 l 211 297 l 553 413 l 513 394 q 473 458 501 431 q 388 485 444 485 q 283 440 322 485 q 244 321 244 396 q 290 192 244 236 q 403 149 336 149 q 465 160 435 149 q 524 189 494 171 l 610 44 q 505 0 561 17 q 399 -17 449 -17 m 489 708 l 381 811 l 428 825 l 318 708 l 143 708 l 400 964 l 401 964 l 664 708 l 489 708 m 665 863 q 704 896 689 879 q 719 936 719 913 q 710 969 719 956 q 679 982 701 982 q 647 971 661 982 q 625 944 632 960 l 556 986 q 621 1062 579 1038 q 706 1086 663 1086 q 776 1067 750 1086 q 815 1020 803 1049 q 826 964 826 992 q 790 874 826 910 q 706 811 754 838 l 665 863 z "},"ễ":{"ha":768,"x_min":53,"x_max":726,"o":"m 399 -17 q 210 25 288 -17 q 93 140 133 67 q 53 310 53 214 q 100 475 53 401 q 226 592 147 549 q 403 636 306 636 q 617 560 533 636 q 726 342 701 485 l 254 192 l 211 297 l 553 413 l 513 394 q 473 458 501 431 q 388 485 444 485 q 283 440 322 485 q 244 321 244 396 q 290 192 244 236 q 403 149 336 149 q 465 160 435 149 q 524 189 494 171 l 610 44 q 505 0 561 17 q 399 -17 449 -17 m 478 708 l 369 811 l 417 825 l 307 708 l 132 708 l 389 964 l 390 964 l 653 708 l 478 708 m 504 1004 q 425 1024 457 1004 q 367 1065 393 1044 q 337 1088 351 1078 q 306 1097 322 1097 q 269 1067 278 1097 q 264 1007 260 1038 l 167 1007 q 176 1110 160 1061 q 227 1189 192 1158 q 317 1219 263 1219 q 379 1200 351 1219 q 431 1161 407 1181 q 467 1132 450 1144 q 500 1119 483 1119 q 531 1151 526 1119 q 535 1215 536 1182 l 632 1215 q 626 1108 642 1156 q 578 1032 611 1060 q 504 1004 546 1004 z "},"ȅ":{"ha":768,"x_min":53,"x_max":726,"o":"m 399 -17 q 210 25 288 -17 q 93 140 133 67 q 53 310 53 214 q 100 475 53 401 q 226 592 147 549 q 403 636 306 636 q 617 560 533 636 q 726 342 701 485 l 254 192 l 211 297 l 553 413 l 513 394 q 473 458 501 431 q 388 485 444 485 q 283 440 322 485 q 244 321 244 396 q 290 192 244 236 q 403 149 336 149 q 465 160 435 149 q 524 189 494 171 l 610 44 q 505 0 561 17 q 399 -17 449 -17 m 56 896 l 271 896 l 357 708 l 239 708 l 56 896 m 292 896 l 507 896 l 593 708 l 475 708 l 292 896 z "},"ë":{"ha":768,"x_min":53,"x_max":726,"o":"m 399 -17 q 210 25 288 -17 q 93 140 133 67 q 53 310 53 214 q 100 475 53 401 q 226 592 147 549 q 403 636 306 636 q 617 560 533 636 q 726 342 701 485 l 254 192 l 211 297 l 553 413 l 513 394 q 473 458 501 431 q 388 485 444 485 q 283 440 322 485 q 244 321 244 396 q 290 192 244 236 q 403 149 336 149 q 465 160 435 149 q 524 189 494 171 l 610 44 q 505 0 561 17 q 399 -17 449 -17 m 163 782 q 194 855 163 826 q 263 883 225 883 q 328 855 297 883 q 360 782 360 826 q 328 710 360 738 q 263 682 297 682 q 194 710 225 682 q 163 782 163 738 l 163 782 m 440 782 q 472 855 440 826 q 540 883 503 883 q 606 855 575 883 q 638 782 638 826 q 606 710 638 738 q 540 682 575 682 q 472 710 503 682 q 440 782 440 738 l 440 782 z "},"ė":{"ha":768,"x_min":53,"x_max":726,"o":"m 399 -17 q 210 25 288 -17 q 93 140 133 67 q 53 310 53 214 q 100 475 53 401 q 226 592 147 549 q 403 636 306 636 q 617 560 533 636 q 726 342 701 485 l 254 192 l 211 297 l 553 413 l 513 394 q 473 458 501 431 q 388 485 444 485 q 283 440 322 485 q 244 321 244 396 q 290 192 244 236 q 403 149 336 149 q 465 160 435 149 q 524 189 494 171 l 610 44 q 505 0 561 17 q 399 -17 449 -17 m 299 851 q 333 922 299 894 q 406 950 367 950 q 477 922 444 950 q 510 851 510 894 q 477 781 510 808 q 406 754 444 754 q 333 781 367 754 q 299 851 299 808 z "},"ẹ":{"ha":768,"x_min":53,"x_max":726,"o":"m 399 -17 q 210 25 288 -17 q 93 140 133 67 q 53 310 53 214 q 100 475 53 401 q 226 592 147 549 q 403 636 306 636 q 617 560 533 636 q 726 342 701 485 l 254 192 l 211 297 l 553 413 l 513 394 q 473 458 501 431 q 388 485 444 485 q 283 440 322 485 q 244 321 244 396 q 290 192 244 236 q 403 149 336 149 q 465 160 435 149 q 524 189 494 171 l 610 44 q 505 0 561 17 q 399 -17 449 -17 m 297 -151 q 325 -94 297 -117 q 386 -71 353 -71 q 445 -94 418 -71 q 472 -151 472 -117 q 445 -210 472 -187 q 386 -232 418 -232 q 325 -210 353 -232 q 297 -151 297 -187 z "},"è":{"ha":768,"x_min":53,"x_max":726,"o":"m 399 -17 q 210 25 288 -17 q 93 140 133 67 q 53 310 53 214 q 100 475 53 401 q 226 592 147 549 q 403 636 306 636 q 617 560 533 636 q 726 342 701 485 l 254 192 l 211 297 l 553 413 l 513 394 q 473 458 501 431 q 388 485 444 485 q 283 440 322 485 q 244 321 244 396 q 290 192 244 236 q 403 149 336 149 q 465 160 435 149 q 524 189 494 171 l 610 44 q 505 0 561 17 q 399 -17 449 -17 m 158 896 l 374 896 l 460 708 l 342 708 l 158 896 z "},"ẻ":{"ha":768,"x_min":53,"x_max":726,"o":"m 399 -17 q 210 25 288 -17 q 93 140 133 67 q 53 310 53 214 q 100 475 53 401 q 226 592 147 549 q 403 636 306 636 q 617 560 533 636 q 726 342 701 485 l 254 192 l 211 297 l 553 413 l 513 394 q 473 458 501 431 q 388 485 444 485 q 283 440 322 485 q 244 321 244 396 q 290 192 244 236 q 403 149 336 149 q 465 160 435 149 q 524 189 494 171 l 610 44 q 505 0 561 17 q 399 -17 449 -17 m 363 751 q 401 785 386 768 q 417 825 417 801 q 408 858 417 844 q 376 871 399 871 q 344 860 358 871 q 322 833 329 849 l 253 875 q 318 951 276 926 q 403 975 360 975 q 474 956 447 975 q 512 909 500 938 q 524 853 524 881 q 488 763 524 799 q 403 700 451 726 l 363 751 z "},"ȇ":{"ha":768,"x_min":53,"x_max":726,"o":"m 399 -17 q 210 25 288 -17 q 93 140 133 67 q 53 310 53 214 q 100 475 53 401 q 226 592 147 549 q 403 636 306 636 q 617 560 533 636 q 726 342 701 485 l 254 192 l 211 297 l 553 413 l 513 394 q 473 458 501 431 q 388 485 444 485 q 283 440 322 485 q 244 321 244 396 q 290 192 244 236 q 403 149 336 149 q 465 160 435 149 q 524 189 494 171 l 610 44 q 505 0 561 17 q 399 -17 449 -17 m 408 942 q 563 878 507 942 q 642 682 619 814 l 513 682 q 478 777 500 742 q 408 813 457 813 q 339 777 360 813 q 306 682 318 742 l 176 682 q 256 880 200 818 q 408 942 311 942 z "},"ē":{"ha":768,"x_min":53,"x_max":726,"o":"m 399 -17 q 210 25 288 -17 q 93 140 133 67 q 53 310 53 214 q 100 475 53 401 q 226 592 147 549 q 403 636 306 636 q 617 560 533 636 q 726 342 701 485 l 254 192 l 211 297 l 553 413 l 513 394 q 473 458 501 431 q 388 485 444 485 q 283 440 322 485 q 244 321 244 396 q 290 192 244 236 q 403 149 336 149 q 465 160 435 149 q 524 189 494 171 l 610 44 q 505 0 561 17 q 399 -17 449 -17 m 226 815 l 581 815 l 581 681 l 226 681 l 226 815 z "},"ę":{"ha":774,"x_min":58,"x_max":732,"o":"m 447 -322 q 294 -273 350 -322 q 238 -143 238 -224 q 268 -53 238 -97 q 356 14 299 -8 l 561 44 q 517 14 549 28 q 454 -8 486 0 q 404 -17 422 -17 q 216 25 293 -17 q 99 140 139 67 q 58 310 58 214 q 106 475 58 401 q 232 592 153 549 q 408 636 311 636 q 623 560 539 636 q 732 342 707 485 l 260 192 l 217 297 l 558 413 l 518 394 q 478 458 507 431 q 393 485 450 485 q 289 440 328 485 q 250 321 250 396 q 296 192 250 236 q 408 149 342 149 q 470 160 440 149 q 529 189 500 171 l 615 44 q 539 9 578 24 q 468 -21 500 -6 q 417 -58 436 -36 q 397 -112 397 -79 q 419 -167 397 -147 q 465 -186 442 -186 q 518 -169 493 -186 q 565 -118 543 -153 l 635 -218 q 550 -293 604 -264 q 447 -322 496 -322 z "},"ẽ":{"ha":768,"x_min":53,"x_max":726,"o":"m 399 -17 q 210 25 288 -17 q 93 140 133 67 q 53 310 53 214 q 100 475 53 401 q 226 592 147 549 q 403 636 306 636 q 617 560 533 636 q 726 342 701 485 l 254 192 l 211 297 l 553 413 l 513 394 q 473 458 501 431 q 388 485 444 485 q 283 440 322 485 q 244 321 244 396 q 290 192 244 236 q 403 149 336 149 q 465 160 435 149 q 524 189 494 171 l 610 44 q 505 0 561 17 q 399 -17 449 -17 m 513 676 q 433 697 465 676 q 375 738 401 717 q 345 760 360 750 q 314 769 331 769 q 277 740 286 769 q 272 679 268 710 l 175 679 q 184 782 168 733 q 235 861 200 831 q 325 892 271 892 q 388 872 360 892 q 439 833 415 853 q 475 804 458 817 q 508 792 492 792 q 540 823 535 792 q 543 888 544 854 l 640 888 q 635 780 650 828 q 587 704 619 732 q 513 676 554 676 z "},"ə":{"ha":768,"x_min":42,"x_max":715,"o":"m 369 624 q 558 582 481 624 q 675 467 635 540 q 715 297 715 393 q 668 133 715 207 q 542 15 621 58 q 365 -29 463 -29 q 151 47 235 -29 q 42 265 67 122 l 514 415 l 557 310 l 215 194 l 256 213 q 295 150 267 178 q 381 122 324 122 q 485 167 446 122 q 524 286 524 211 q 478 415 524 372 q 365 458 432 458 q 303 448 333 458 q 244 418 274 438 l 158 563 q 263 607 207 590 q 369 624 319 624 z "},"f":{"ha":604,"x_min":56,"x_max":597,"o":"m 158 0 l 158 438 l 56 438 l 56 610 l 158 610 l 158 821 q 227 1016 158 940 q 426 1092 296 1092 q 513 1080 465 1092 q 597 1042 561 1068 l 515 901 q 483 926 501 919 q 447 932 464 932 q 379 904 406 932 q 353 815 353 876 l 353 610 l 536 610 l 536 438 l 353 438 l 353 0 l 158 0 z "},"g":{"ha":879,"x_min":53,"x_max":779,"o":"m 414 -306 q 276 -286 332 -306 q 181 -239 219 -267 q 111 -186 142 -211 l 225 -53 q 299 -109 257 -82 q 411 -136 342 -136 q 533 -101 481 -136 q 585 3 585 -65 l 585 136 l 592 101 q 511 19 569 54 q 358 -17 453 -17 q 206 26 276 -17 q 94 141 136 68 q 53 307 53 214 q 97 477 53 403 q 213 594 142 551 q 363 638 283 638 q 499 615 442 638 q 586 558 557 592 l 579 540 l 600 607 l 779 607 l 779 0 q 729 -158 779 -89 q 597 -266 679 -226 q 414 -306 514 -306 m 249 313 q 271 225 249 264 q 331 164 293 186 q 417 142 369 142 q 517 165 476 142 q 585 233 558 188 l 585 382 q 521 453 565 426 q 417 479 476 479 q 331 458 369 479 q 271 399 293 436 q 249 313 249 361 z "},"ğ":{"ha":879,"x_min":53,"x_max":779,"o":"m 414 -306 q 276 -286 332 -306 q 181 -239 219 -267 q 111 -186 142 -211 l 225 -53 q 299 -109 257 -82 q 411 -136 342 -136 q 533 -101 481 -136 q 585 3 585 -65 l 585 136 l 592 101 q 511 19 569 54 q 358 -17 453 -17 q 206 26 276 -17 q 94 141 136 68 q 53 307 53 214 q 97 477 53 403 q 213 594 142 551 q 363 638 283 638 q 499 615 442 638 q 586 558 557 592 l 579 540 l 600 607 l 779 607 l 779 0 q 729 -158 779 -89 q 597 -266 679 -226 q 414 -306 514 -306 m 249 313 q 271 225 249 264 q 331 164 293 186 q 417 142 369 142 q 517 165 476 142 q 585 233 558 188 l 585 382 q 521 453 565 426 q 417 479 476 479 q 331 458 369 479 q 271 399 293 436 q 249 313 249 361 m 444 681 q 291 745 347 681 q 211 940 235 810 l 340 940 q 374 845 353 881 q 444 810 396 810 q 514 845 493 810 q 547 940 535 881 l 676 940 q 598 743 654 806 q 444 681 542 681 z "},"ǧ":{"ha":879,"x_min":53,"x_max":779,"o":"m 414 -306 q 276 -286 332 -306 q 181 -239 219 -267 q 111 -186 142 -211 l 225 -53 q 299 -109 257 -82 q 411 -136 342 -136 q 533 -101 481 -136 q 585 3 585 -65 l 585 136 l 592 101 q 511 19 569 54 q 358 -17 453 -17 q 206 26 276 -17 q 94 141 136 68 q 53 307 53 214 q 97 477 53 403 q 213 594 142 551 q 363 638 283 638 q 499 615 442 638 q 586 558 557 592 l 579 540 l 600 607 l 779 607 l 779 0 q 729 -158 779 -89 q 597 -266 679 -226 q 414 -306 514 -306 m 249 313 q 271 225 249 264 q 331 164 293 186 q 417 142 369 142 q 517 165 476 142 q 585 233 558 188 l 585 382 q 521 453 565 426 q 417 479 476 479 q 331 458 369 479 q 271 399 293 436 q 249 313 249 361 m 368 963 l 476 860 l 429 846 l 539 963 l 714 963 l 457 707 l 456 707 l 193 963 l 368 963 z "},"ĝ":{"ha":879,"x_min":53,"x_max":779,"o":"m 414 -306 q 276 -286 332 -306 q 181 -239 219 -267 q 111 -186 142 -211 l 225 -53 q 299 -109 257 -82 q 411 -136 342 -136 q 533 -101 481 -136 q 585 3 585 -65 l 585 136 l 592 101 q 511 19 569 54 q 358 -17 453 -17 q 206 26 276 -17 q 94 141 136 68 q 53 307 53 214 q 97 477 53 403 q 213 594 142 551 q 363 638 283 638 q 499 615 442 638 q 586 558 557 592 l 579 540 l 600 607 l 779 607 l 779 0 q 729 -158 779 -89 q 597 -266 679 -226 q 414 -306 514 -306 m 249 313 q 271 225 249 264 q 331 164 293 186 q 417 142 369 142 q 517 165 476 142 q 585 233 558 188 l 585 382 q 521 453 565 426 q 417 479 476 479 q 331 458 369 479 q 271 399 293 436 q 249 313 249 361 m 522 707 l 414 810 l 461 824 l 351 707 l 176 707 l 433 963 l 435 963 l 697 707 l 522 707 z "},"ģ":{"ha":831,"x_min":53,"x_max":779,"o":"m 313 704 q 374 851 344 778 q 435 996 404 924 l 590 996 q 535 851 563 924 q 481 704 508 778 l 313 704 m 414 -306 q 276 -286 332 -306 q 181 -239 219 -267 q 111 -186 142 -211 l 225 -53 q 299 -109 257 -82 q 411 -136 342 -136 q 533 -101 481 -136 q 585 3 585 -65 l 585 136 l 592 101 q 511 19 569 54 q 358 -17 453 -17 q 206 26 276 -17 q 94 141 136 68 q 53 307 53 214 q 97 477 53 403 q 213 594 142 551 q 363 638 283 638 q 499 615 442 638 q 586 558 557 592 l 579 540 l 600 607 l 779 607 l 779 0 q 729 -158 779 -89 q 597 -266 679 -226 q 414 -306 514 -306 m 249 313 q 271 225 249 264 q 331 164 293 186 q 417 142 369 142 q 517 165 476 142 q 585 233 558 188 l 585 382 q 521 453 565 426 q 417 479 476 479 q 331 458 369 479 q 271 399 293 436 q 249 313 249 361 z "},"ġ":{"ha":879,"x_min":53,"x_max":779,"o":"m 414 -306 q 276 -286 332 -306 q 181 -239 219 -267 q 111 -186 142 -211 l 225 -53 q 299 -109 257 -82 q 411 -136 342 -136 q 533 -101 481 -136 q 585 3 585 -65 l 585 136 l 592 101 q 511 19 569 54 q 358 -17 453 -17 q 206 26 276 -17 q 94 141 136 68 q 53 307 53 214 q 97 477 53 403 q 213 594 142 551 q 363 638 283 638 q 499 615 442 638 q 586 558 557 592 l 579 540 l 600 607 l 779 607 l 779 0 q 729 -158 779 -89 q 597 -266 679 -226 q 414 -306 514 -306 m 249 313 q 271 225 249 264 q 331 164 293 186 q 417 142 369 142 q 517 165 476 142 q 585 233 558 188 l 585 382 q 521 453 565 426 q 417 479 476 479 q 331 458 369 479 q 271 399 293 436 q 249 313 249 361 m 335 850 q 369 921 335 893 q 442 949 403 949 q 513 921 481 949 q 546 850 546 893 q 513 780 546 807 q 442 753 481 753 q 369 780 403 753 q 335 850 335 807 z "},"h":{"ha":825,"x_min":100,"x_max":725,"o":"m 100 0 l 100 1096 l 290 1096 l 290 485 l 289 508 q 379 601 321 565 q 522 636 438 636 q 666 585 608 636 q 725 454 724 535 l 725 0 l 531 0 l 531 382 q 509 447 529 422 q 442 471 489 471 q 334 408 374 471 q 294 247 294 344 l 294 0 l 100 0 z "},"ħ":{"ha":825,"x_min":-8,"x_max":725,"o":"m 100 0 l 100 1096 l 290 1096 l 290 485 l 289 508 q 379 601 321 565 q 522 636 438 636 q 666 585 608 636 q 725 454 724 535 l 725 0 l 531 0 l 531 382 q 509 447 529 422 q 442 471 489 471 q 334 408 374 471 q 294 247 294 344 l 294 0 l 100 0 m -8 953 l 429 953 l 429 772 l -8 772 l -8 953 z "},"ĥ":{"ha":825,"x_min":-76,"x_max":725,"o":"m 100 0 l 100 1096 l 290 1096 l 290 485 l 289 508 q 379 601 321 565 q 522 636 438 636 q 666 585 608 636 q 725 454 724 535 l 725 0 l 531 0 l 531 382 q 509 447 529 422 q 442 471 489 471 q 334 408 374 471 q 294 247 294 344 l 294 0 l 100 0 m 269 1151 l 161 1254 l 208 1268 l 99 1151 l -76 1151 l 181 1407 l 182 1407 l 444 1151 l 269 1151 z "},"i":{"ha":394,"x_min":96,"x_max":307,"o":"m 100 607 l 294 607 l 294 0 l 100 0 l 100 607 m 96 822 q 130 893 96 865 q 203 921 164 921 q 274 893 242 921 q 307 822 307 865 q 274 752 307 779 q 203 725 242 725 q 130 752 164 725 q 96 822 96 779 z "},"ı":{"ha":394,"x_min":100,"x_max":294,"o":"m 100 607 l 294 607 l 294 0 l 100 0 l 100 607 z "},"í":{"ha":394,"x_min":81,"x_max":404,"o":"m 100 607 l 294 607 l 294 0 l 100 0 l 100 607 m 404 867 l 199 679 l 81 679 l 189 867 l 404 867 z "},"ĭ":{"ha":394,"x_min":-28,"x_max":438,"o":"m 100 607 l 294 607 l 294 0 l 100 0 l 100 607 m 206 653 q 52 717 108 653 q -28 913 -4 782 l 101 913 q 135 817 114 853 q 206 782 157 782 q 275 817 254 782 q 308 913 296 853 l 438 913 q 359 715 415 778 q 206 653 303 653 z "},"î":{"ha":394,"x_min":-62,"x_max":458,"o":"m 100 607 l 294 607 l 294 0 l 100 0 l 100 607 m 283 679 l 175 782 l 222 796 l 113 679 l -62 679 l 194 935 l 196 935 l 458 679 l 283 679 z "},"ȉ":{"ha":394,"x_min":-147,"x_max":390,"o":"m 100 607 l 294 607 l 294 0 l 100 0 l 100 607 m -147 867 l 68 867 l 154 679 l 36 679 l -147 867 m 89 867 l 304 867 l 390 679 l 272 679 l 89 867 z "},"ï":{"ha":394,"x_min":-40,"x_max":435,"o":"m 100 607 l 294 607 l 294 0 l 100 0 l 100 607 m -40 753 q -9 826 -40 797 q 60 854 22 854 q 126 826 94 854 q 157 753 157 797 q 126 681 157 708 q 60 653 94 653 q -9 681 22 653 q -40 753 -40 708 l -40 753 m 238 753 q 269 826 238 797 q 338 854 300 854 q 403 826 372 854 q 435 753 435 797 q 403 681 435 708 q 338 653 372 653 q 269 681 300 653 q 238 753 238 708 l 238 753 z "},"ị":{"ha":394,"x_min":96,"x_max":307,"o":"m 100 607 l 294 607 l 294 0 l 100 0 l 100 607 m 96 822 q 130 893 96 865 q 203 921 164 921 q 274 893 242 921 q 307 822 307 865 q 274 752 307 779 q 203 725 242 725 q 130 752 164 725 q 96 822 96 779 m 110 -151 q 138 -94 110 -117 q 199 -71 165 -71 q 258 -94 231 -71 q 285 -151 285 -117 q 258 -210 285 -187 q 199 -232 231 -232 q 138 -210 165 -232 q 110 -151 110 -187 z "},"ì":{"ha":394,"x_min":-44,"x_max":294,"o":"m 100 607 l 294 607 l 294 0 l 100 0 l 100 607 m -44 867 l 171 867 l 257 679 l 139 679 l -44 867 z "},"ỉ":{"ha":394,"x_min":50,"x_max":321,"o":"m 100 607 l 294 607 l 294 0 l 100 0 l 100 607 m 160 722 q 199 756 183 739 q 214 796 214 772 q 205 828 214 815 q 174 842 196 842 q 141 831 156 842 q 119 804 126 819 l 50 846 q 115 922 74 897 q 200 946 157 946 q 271 927 244 946 q 309 880 297 908 q 321 824 321 851 q 285 733 321 769 q 200 671 249 697 l 160 722 z "},"ȋ":{"ha":394,"x_min":-26,"x_max":439,"o":"m 100 607 l 294 607 l 294 0 l 100 0 l 100 607 m 206 913 q 360 849 304 913 q 439 653 417 785 l 310 653 q 276 748 297 713 q 206 783 254 783 q 136 748 157 783 q 103 653 115 713 l -26 653 q 53 851 -3 789 q 206 913 108 913 z "},"ĳ":{"ha":778,"x_min":96,"x_max":672,"o":"m 100 607 l 294 607 l 294 0 l 100 0 l 100 607 m 96 822 q 130 893 96 865 q 203 921 164 921 q 274 893 242 921 q 307 822 307 865 q 274 752 307 779 q 203 725 242 725 q 130 752 164 725 q 96 822 96 779 m 493 -293 l 381 -172 q 445 -97 422 -142 q 468 11 468 -53 l 468 607 l 663 607 l 663 0 q 624 -180 663 -108 q 493 -293 585 -251 m 461 822 q 495 893 461 865 q 568 921 529 921 q 640 893 607 921 q 672 822 672 865 q 640 752 672 779 q 568 725 607 725 q 495 752 529 725 q 461 822 461 779 z "},"ī":{"ha":394,"x_min":24,"x_max":378,"o":"m 100 607 l 294 607 l 294 0 l 100 0 l 100 607 m 24 786 l 378 786 l 378 651 l 24 651 l 24 786 z "},"į":{"ha":403,"x_min":-7,"x_max":383,"o":"m 196 -322 q 52 -273 111 -322 q -7 -143 -7 -224 q 24 -53 -7 -97 q 111 14 54 -8 l 261 14 l 297 0 q 192 -54 232 -26 q 153 -128 153 -82 q 172 -174 153 -162 q 214 -186 190 -186 q 314 -118 268 -186 l 383 -218 q 299 -293 353 -264 q 196 -322 244 -322 m 100 607 l 294 607 l 294 0 l 100 0 l 100 607 m 93 836 q 127 907 93 879 q 200 935 161 935 q 272 907 239 935 q 304 836 304 879 q 272 766 304 793 q 200 739 239 739 q 127 766 161 739 q 93 836 93 793 z "},"ĩ":{"ha":394,"x_min":-35,"x_max":447,"o":"m 100 607 l 294 607 l 294 0 l 100 0 l 100 607 m 310 647 q 231 667 263 647 q 172 708 199 688 q 142 731 157 721 q 111 740 128 740 q 74 710 83 740 q 69 650 65 681 l -28 650 q -19 753 -35 704 q 33 832 -3 801 q 122 863 68 863 q 185 843 157 863 q 236 804 213 824 q 272 775 256 788 q 306 763 289 763 q 337 794 332 763 q 340 858 342 825 l 438 858 q 432 751 447 799 q 384 675 417 703 q 310 647 351 647 z "},"j":{"ha":410,"x_min":28,"x_max":319,"o":"m 140 -293 l 28 -172 q 92 -97 69 -142 q 115 11 115 -53 l 115 607 l 310 607 l 310 0 q 271 -180 310 -108 q 140 -293 232 -251 m 108 822 q 142 893 108 865 q 215 921 176 921 q 287 893 254 921 q 319 822 319 865 q 287 752 319 779 q 215 725 254 725 q 142 752 176 725 q 108 822 108 779 z "},"ȷ":{"ha":410,"x_min":28,"x_max":310,"o":"m 140 -293 l 28 -172 q 92 -97 69 -142 q 115 11 115 -53 l 115 607 l 310 607 l 310 0 q 271 -180 310 -108 q 140 -293 232 -251 z "},"ĵ":{"ha":410,"x_min":-50,"x_max":471,"o":"m 140 -293 l 28 -172 q 92 -97 69 -142 q 115 11 115 -53 l 115 607 l 310 607 l 310 0 q 271 -180 310 -108 q 140 -293 232 -251 m 296 679 l 188 782 l 235 796 l 125 679 l -50 679 l 207 935 l 208 935 l 471 679 l 296 679 z "},"k":{"ha":758,"x_min":100,"x_max":724,"o":"m 100 0 l 100 1096 l 294 1096 l 294 0 l 100 0 m 449 413 l 724 0 l 497 0 l 321 301 l 449 413 m 236 168 l 217 353 l 583 622 l 701 518 l 236 168 z "},"ķ":{"ha":758,"x_min":100,"x_max":724,"o":"m 100 0 l 100 1096 l 294 1096 l 294 0 l 100 0 m 449 413 l 724 0 l 497 0 l 321 301 l 449 413 m 236 168 l 217 353 l 583 622 l 701 518 l 236 168 m 344 -297 l 244 -231 q 288 -145 275 -201 q 292 -40 301 -89 l 461 -42 q 456 -130 469 -81 q 415 -224 443 -179 q 344 -297 386 -269 z "},"ĸ":{"ha":781,"x_min":100,"x_max":732,"o":"m 282 161 l 253 332 l 499 607 l 732 607 l 282 161 m 294 0 l 100 0 l 100 607 l 294 607 l 294 0 m 458 353 l 726 0 l 503 0 l 308 269 l 458 353 z "},"l":{"ha":394,"x_min":100,"x_max":294,"o":"m 100 1096 l 294 1096 l 294 0 l 100 0 l 100 1096 z "},"ĺ":{"ha":394,"x_min":100,"x_max":456,"o":"m 100 1096 l 294 1096 l 294 0 l 100 0 l 100 1096 m 456 1347 l 250 1160 l 132 1160 l 240 1347 l 456 1347 z "},"ľ":{"ha":551,"x_min":100,"x_max":578,"o":"m 100 1096 l 294 1096 l 294 0 l 100 0 l 100 1096 m 461 860 l 361 899 q 411 979 392 926 q 421 1081 431 1032 l 569 1090 q 563 1004 578 1051 q 522 918 549 957 q 461 860 494 879 l 461 860 z "},"ļ":{"ha":394,"x_min":64,"x_max":294,"o":"m 100 1096 l 294 1096 l 294 0 l 100 0 l 100 1096 m 164 -297 l 64 -231 q 108 -145 94 -201 q 111 -40 121 -89 l 281 -42 q 276 -130 289 -81 q 234 -224 263 -179 q 164 -297 206 -269 z "},"ŀ":{"ha":557,"x_min":100,"x_max":576,"o":"m 100 1096 l 294 1096 l 294 0 l 100 0 l 100 1096 m 379 471 q 410 543 379 514 q 479 572 442 572 q 545 543 514 572 q 576 471 576 514 q 545 398 576 425 q 479 371 514 371 q 410 398 442 371 q 379 471 379 425 l 379 471 z "},"ǉ":{"ha":804,"x_min":100,"x_max":714,"o":"m 100 1096 l 294 1096 l 294 0 l 100 0 l 100 1096 m 535 -293 l 422 -172 q 487 -97 464 -142 q 510 11 510 -53 l 510 607 l 704 607 l 704 0 q 665 -180 704 -108 q 535 -293 626 -251 m 503 822 q 537 893 503 865 q 610 921 571 921 q 681 893 649 921 q 714 822 714 865 q 681 752 714 779 q 610 725 649 725 q 537 752 571 725 q 503 822 503 779 z "},"ł":{"ha":438,"x_min":21,"x_max":417,"o":"m 417 574 l 417 406 l 21 313 l 21 481 l 417 574 m 114 1096 l 308 1096 l 308 0 l 114 0 l 114 1096 z "},"m":{"ha":1199,"x_min":100,"x_max":1099,"o":"m 276 607 l 292 500 l 289 508 q 379 603 325 569 q 510 638 433 638 q 633 607 583 638 q 699 513 683 576 l 692 511 q 785 603 731 568 q 900 638 840 638 q 1044 587 990 638 q 1099 456 1097 536 l 1099 0 l 906 0 l 906 375 q 893 441 904 415 q 842 469 882 467 q 762 437 794 469 q 713 353 729 404 q 697 249 697 303 l 697 0 l 503 0 l 503 375 q 488 441 501 415 q 435 469 475 467 q 358 437 389 469 q 310 354 326 404 q 294 251 294 304 l 294 0 l 100 0 l 100 607 l 276 607 z "},"n":{"ha":825,"x_min":100,"x_max":725,"o":"m 276 607 l 292 499 l 289 508 q 379 601 321 565 q 522 636 438 636 q 666 585 608 636 q 725 454 724 535 l 725 0 l 531 0 l 531 382 q 509 447 529 422 q 442 471 489 471 q 334 408 374 471 q 294 247 294 344 l 294 0 l 100 0 l 100 607 l 276 607 z "},"ń":{"ha":825,"x_min":100,"x_max":725,"o":"m 276 607 l 292 499 l 289 508 q 379 601 321 565 q 522 636 438 636 q 666 585 608 636 q 725 454 724 535 l 725 0 l 531 0 l 531 382 q 509 447 529 422 q 442 471 489 471 q 334 408 374 471 q 294 247 294 344 l 294 0 l 100 0 l 100 607 l 276 607 m 617 881 l 411 693 l 293 693 l 401 881 l 617 881 z "},"ŉ":{"ha":861,"x_min":-83,"x_max":761,"o":"m 17 588 l -83 654 q -40 740 -53 683 q -36 844 -26 796 l 133 843 q 128 755 142 804 q 87 660 115 706 q 17 588 58 615 m 313 607 l 328 499 l 325 508 q 415 601 357 565 q 558 636 474 636 q 702 585 644 636 q 761 454 760 535 l 761 0 l 567 0 l 567 382 q 545 447 565 422 q 478 471 525 471 q 370 408 410 471 q 331 247 331 344 l 331 0 l 136 0 l 136 607 l 313 607 z "},"ň":{"ha":825,"x_min":100,"x_max":725,"o":"m 276 607 l 292 499 l 289 508 q 379 601 321 565 q 522 636 438 636 q 666 585 608 636 q 725 454 724 535 l 725 0 l 531 0 l 531 382 q 509 447 529 422 q 442 471 489 471 q 334 408 374 471 q 294 247 294 344 l 294 0 l 100 0 l 100 607 l 276 607 m 342 949 l 450 846 l 403 832 l 513 949 l 688 949 l 431 693 l 429 693 l 167 949 l 342 949 z "},"ņ":{"ha":825,"x_min":100,"x_max":725,"o":"m 276 607 l 292 499 l 289 508 q 379 601 321 565 q 522 636 438 636 q 666 585 608 636 q 725 454 724 535 l 725 0 l 531 0 l 531 382 q 509 447 529 422 q 442 471 489 471 q 334 408 374 471 q 294 247 294 344 l 294 0 l 100 0 l 100 607 l 276 607 m 379 -297 l 279 -231 q 323 -145 310 -201 q 326 -40 336 -89 l 496 -42 q 491 -130 504 -81 q 449 -224 478 -179 q 379 -297 421 -269 z "},"ŋ":{"ha":825,"x_min":100,"x_max":725,"o":"m 725 10 q 684 -169 725 -90 q 556 -293 643 -247 l 444 -172 q 508 -97 486 -142 q 531 11 531 -53 l 531 382 q 509 447 529 422 q 442 471 489 471 q 334 408 374 471 q 294 247 294 344 l 294 0 l 100 0 l 100 607 l 276 607 l 290 508 q 380 601 322 565 q 522 636 438 636 q 666 585 608 636 q 725 454 724 535 l 725 10 z "},"ɲ":{"ha":825,"x_min":18,"x_max":725,"o":"m 129 -293 l 18 -172 q 82 -97 60 -142 q 104 11 104 -53 l 104 53 l 299 53 l 299 0 q 253 -174 299 -101 q 129 -293 207 -247 m 276 607 l 292 499 l 289 508 q 379 601 321 565 q 522 636 438 636 q 666 585 608 636 q 725 454 724 535 l 725 0 l 531 0 l 531 382 q 509 447 529 422 q 442 471 489 471 q 334 408 374 471 q 294 247 294 344 l 294 0 l 100 0 l 100 607 l 276 607 z "},"ǌ":{"ha":1214,"x_min":100,"x_max":1108,"o":"m 276 607 l 292 499 l 289 508 q 379 601 321 565 q 522 636 438 636 q 666 585 608 636 q 725 454 724 535 l 725 0 l 531 0 l 531 382 q 509 447 529 422 q 442 471 489 471 q 334 408 374 471 q 294 247 294 344 l 294 0 l 100 0 l 100 607 l 276 607 m 929 -293 l 817 -172 q 881 -97 858 -142 q 904 11 904 -53 l 904 607 l 1099 607 l 1099 0 q 1060 -180 1099 -108 q 929 -293 1021 -251 m 897 822 q 931 893 897 865 q 1004 921 965 921 q 1076 893 1043 921 q 1108 822 1108 865 q 1076 752 1108 779 q 1004 725 1043 725 q 931 752 965 725 q 897 822 897 779 z "},"ñ":{"ha":825,"x_min":100,"x_max":725,"o":"m 276 607 l 292 499 l 289 508 q 379 601 321 565 q 522 636 438 636 q 666 585 608 636 q 725 454 724 535 l 725 0 l 531 0 l 531 382 q 509 447 529 422 q 442 471 489 471 q 334 408 374 471 q 294 247 294 344 l 294 0 l 100 0 l 100 607 l 276 607 m 522 661 q 443 681 475 661 q 385 722 411 701 q 355 744 369 735 q 324 754 340 754 q 287 724 296 754 q 282 664 278 694 l 185 664 q 194 767 178 718 q 245 846 210 815 q 335 876 281 876 q 397 857 369 876 q 449 818 425 838 q 485 789 468 801 q 518 776 501 776 q 549 808 544 776 q 553 872 554 839 l 650 872 q 644 765 660 813 q 597 689 629 717 q 522 661 564 661 z "},"o":{"ha":793,"x_min":53,"x_max":740,"o":"m 53 311 q 97 478 53 404 q 219 594 140 551 q 401 636 299 636 q 582 594 506 636 q 699 478 658 551 q 740 311 740 404 q 699 144 740 218 q 582 26 658 69 q 399 -17 506 -17 q 220 22 299 -17 q 97 135 142 61 q 53 311 53 208 m 249 310 q 268 224 249 263 q 321 164 288 186 q 396 142 354 142 q 504 190 464 142 q 544 310 544 238 q 504 430 544 382 q 396 478 464 478 q 321 456 354 478 q 268 396 288 433 q 249 310 249 358 z "},"ó":{"ha":793,"x_min":53,"x_max":740,"o":"m 53 311 q 97 478 53 404 q 219 594 140 551 q 401 636 299 636 q 582 594 506 636 q 699 478 658 551 q 740 311 740 404 q 699 144 740 218 q 582 26 658 69 q 399 -17 506 -17 q 220 22 299 -17 q 97 135 142 61 q 53 311 53 208 m 249 310 q 268 224 249 263 q 321 164 288 186 q 396 142 354 142 q 504 190 464 142 q 544 310 544 238 q 504 430 544 382 q 396 478 464 478 q 321 456 354 478 q 268 396 288 433 q 249 310 249 358 m 601 894 l 396 707 l 278 707 l 386 894 l 601 894 z "},"ŏ":{"ha":793,"x_min":53,"x_max":740,"o":"m 53 311 q 97 478 53 404 q 219 594 140 551 q 401 636 299 636 q 582 594 506 636 q 699 478 658 551 q 740 311 740 404 q 699 144 740 218 q 582 26 658 69 q 399 -17 506 -17 q 220 22 299 -17 q 97 135 142 61 q 53 311 53 208 m 249 310 q 268 224 249 263 q 321 164 288 186 q 396 142 354 142 q 504 190 464 142 q 544 310 544 238 q 504 430 544 382 q 396 478 464 478 q 321 456 354 478 q 268 396 288 433 q 249 310 249 358 m 403 681 q 249 745 306 681 q 169 940 193 810 l 299 940 q 333 845 311 881 q 403 810 354 810 q 472 845 451 810 q 506 940 493 881 l 635 940 q 556 743 613 806 q 403 681 500 681 z "},"ô":{"ha":793,"x_min":53,"x_max":740,"o":"m 53 311 q 97 478 53 404 q 219 594 140 551 q 401 636 299 636 q 582 594 506 636 q 699 478 658 551 q 740 311 740 404 q 699 144 740 218 q 582 26 658 69 q 399 -17 506 -17 q 220 22 299 -17 q 97 135 142 61 q 53 311 53 208 m 249 310 q 268 224 249 263 q 321 164 288 186 q 396 142 354 142 q 504 190 464 142 q 544 310 544 238 q 504 430 544 382 q 396 478 464 478 q 321 456 354 478 q 268 396 288 433 q 249 310 249 358 m 481 707 l 372 810 l 419 824 l 310 707 l 135 707 l 392 963 l 393 963 l 656 707 l 481 707 z "},"ố":{"ha":793,"x_min":53,"x_max":846,"o":"m 53 311 q 97 478 53 404 q 219 594 140 551 q 401 636 299 636 q 582 594 506 636 q 699 478 658 551 q 740 311 740 404 q 699 144 740 218 q 582 26 658 69 q 399 -17 506 -17 q 220 22 299 -17 q 97 135 142 61 q 53 311 53 208 m 249 310 q 268 224 249 263 q 321 164 288 186 q 396 142 354 142 q 504 190 464 142 q 544 310 544 238 q 504 430 544 382 q 396 478 464 478 q 321 456 354 478 q 268 396 288 433 q 249 310 249 358 m 489 707 l 381 810 l 428 824 l 318 707 l 143 707 l 400 963 l 401 963 l 664 707 l 489 707 m 846 1043 l 640 856 l 522 856 l 631 1043 l 846 1043 z "},"ộ":{"ha":793,"x_min":53,"x_max":740,"o":"m 53 311 q 97 478 53 404 q 219 594 140 551 q 401 636 299 636 q 582 594 506 636 q 699 478 658 551 q 740 311 740 404 q 699 144 740 218 q 582 26 658 69 q 399 -17 506 -17 q 220 22 299 -17 q 97 135 142 61 q 53 311 53 208 m 249 310 q 268 224 249 263 q 321 164 288 186 q 396 142 354 142 q 504 190 464 142 q 544 310 544 238 q 504 430 544 382 q 396 478 464 478 q 321 456 354 478 q 268 396 288 433 q 249 310 249 358 m 308 -151 q 336 -94 308 -117 q 397 -71 364 -71 q 456 -94 429 -71 q 483 -151 483 -117 q 456 -210 483 -187 q 397 -232 429 -232 q 336 -210 364 -232 q 308 -151 308 -187 m 481 707 l 372 810 l 419 824 l 310 707 l 135 707 l 392 963 l 393 963 l 656 707 l 481 707 z "},"ồ":{"ha":793,"x_min":-96,"x_max":740,"o":"m 53 311 q 97 478 53 404 q 219 594 140 551 q 401 636 299 636 q 582 594 506 636 q 699 478 658 551 q 740 311 740 404 q 699 144 740 218 q 582 26 658 69 q 399 -17 506 -17 q 220 22 299 -17 q 97 135 142 61 q 53 311 53 208 m 249 310 q 268 224 249 263 q 321 164 288 186 q 396 142 354 142 q 504 190 464 142 q 544 310 544 238 q 504 430 544 382 q 396 478 464 478 q 321 456 354 478 q 268 396 288 433 q 249 310 249 358 m 478 707 l 369 810 l 417 824 l 307 707 l 132 707 l 389 963 l 390 963 l 653 707 l 478 707 m -96 1049 l 119 1049 l 206 861 l 88 861 l -96 1049 z "},"ổ":{"ha":793,"x_min":53,"x_max":821,"o":"m 53 311 q 97 478 53 404 q 219 594 140 551 q 401 636 299 636 q 582 594 506 636 q 699 478 658 551 q 740 311 740 404 q 699 144 740 218 q 582 26 658 69 q 399 -17 506 -17 q 220 22 299 -17 q 97 135 142 61 q 53 311 53 208 m 249 310 q 268 224 249 263 q 321 164 288 186 q 396 142 354 142 q 504 190 464 142 q 544 310 544 238 q 504 430 544 382 q 396 478 464 478 q 321 456 354 478 q 268 396 288 433 q 249 310 249 358 m 483 707 l 375 810 l 422 824 l 313 707 l 138 707 l 394 963 l 396 963 l 658 707 l 483 707 m 660 861 q 699 894 683 878 q 714 935 714 911 q 705 967 714 954 q 674 981 696 981 q 641 969 656 981 q 619 943 626 958 l 550 985 q 615 1060 574 1036 q 700 1085 657 1085 q 771 1066 744 1085 q 809 1019 797 1047 q 821 963 821 990 q 785 872 821 908 q 700 810 749 836 l 660 861 z "},"ỗ":{"ha":793,"x_min":53,"x_max":740,"o":"m 53 311 q 97 478 53 404 q 219 594 140 551 q 401 636 299 636 q 582 594 506 636 q 699 478 658 551 q 740 311 740 404 q 699 144 740 218 q 582 26 658 69 q 399 -17 506 -17 q 220 22 299 -17 q 97 135 142 61 q 53 311 53 208 m 249 310 q 268 224 249 263 q 321 164 288 186 q 396 142 354 142 q 504 190 464 142 q 544 310 544 238 q 504 430 544 382 q 396 478 464 478 q 321 456 354 478 q 268 396 288 433 q 249 310 249 358 m 472 707 l 364 810 l 411 824 l 301 707 l 126 707 l 383 963 l 385 963 l 647 707 l 472 707 m 499 1003 q 419 1023 451 1003 q 361 1064 388 1043 q 331 1086 346 1076 q 300 1096 317 1096 q 263 1066 272 1096 q 258 1006 254 1036 l 161 1006 q 170 1108 154 1060 q 222 1188 186 1157 q 311 1218 257 1218 q 374 1199 346 1218 q 425 1160 401 1179 q 461 1131 444 1143 q 494 1118 478 1118 q 526 1149 521 1118 q 529 1214 531 1181 l 626 1214 q 621 1106 636 1154 q 573 1031 606 1058 q 499 1003 540 1003 z "},"ȍ":{"ha":793,"x_min":50,"x_max":740,"o":"m 53 311 q 97 478 53 404 q 219 594 140 551 q 401 636 299 636 q 582 594 506 636 q 699 478 658 551 q 740 311 740 404 q 699 144 740 218 q 582 26 658 69 q 399 -17 506 -17 q 220 22 299 -17 q 97 135 142 61 q 53 311 53 208 m 249 310 q 268 224 249 263 q 321 164 288 186 q 396 142 354 142 q 504 190 464 142 q 544 310 544 238 q 504 430 544 382 q 396 478 464 478 q 321 456 354 478 q 268 396 288 433 q 249 310 249 358 m 50 894 l 265 894 l 351 707 l 233 707 l 50 894 m 286 894 l 501 894 l 588 707 l 469 707 l 286 894 z "},"ö":{"ha":793,"x_min":53,"x_max":740,"o":"m 53 311 q 97 478 53 404 q 219 594 140 551 q 401 636 299 636 q 582 594 506 636 q 699 478 658 551 q 740 311 740 404 q 699 144 740 218 q 582 26 658 69 q 399 -17 506 -17 q 220 22 299 -17 q 97 135 142 61 q 53 311 53 208 m 249 310 q 268 224 249 263 q 321 164 288 186 q 396 142 354 142 q 504 190 464 142 q 544 310 544 238 q 504 430 544 382 q 396 478 464 478 q 321 456 354 478 q 268 396 288 433 q 249 310 249 358 m 157 781 q 188 853 157 825 q 257 882 219 882 q 323 853 292 882 q 354 781 354 825 q 323 708 354 736 q 257 681 292 681 q 188 708 219 681 q 157 781 157 736 l 157 781 m 435 781 q 466 853 435 825 q 535 882 497 882 q 601 853 569 882 q 632 781 632 825 q 601 708 632 736 q 535 681 569 681 q 466 708 497 681 q 435 781 435 736 l 435 781 z "},"ȫ":{"ha":793,"x_min":53,"x_max":740,"o":"m 53 311 q 97 478 53 404 q 219 594 140 551 q 401 636 299 636 q 582 594 506 636 q 699 478 658 551 q 740 311 740 404 q 699 144 740 218 q 582 26 658 69 q 399 -17 506 -17 q 220 22 299 -17 q 97 135 142 61 q 53 311 53 208 m 249 310 q 268 224 249 263 q 321 164 288 186 q 396 142 354 142 q 504 190 464 142 q 544 310 544 238 q 504 430 544 382 q 396 478 464 478 q 321 456 354 478 q 268 396 288 433 q 249 310 249 358 m 157 781 q 188 853 157 825 q 257 882 219 882 q 323 853 292 882 q 354 781 354 825 q 323 708 354 736 q 257 681 292 681 q 188 708 219 681 q 157 781 157 736 l 157 781 m 435 781 q 466 853 435 825 q 535 882 497 882 q 601 853 569 882 q 632 781 632 825 q 601 708 632 736 q 535 681 569 681 q 466 708 497 681 q 435 781 435 736 l 435 781 m 221 1061 l 575 1061 l 575 926 l 221 926 l 221 1061 z "},"ȱ":{"ha":793,"x_min":53,"x_max":740,"o":"m 53 311 q 97 478 53 404 q 219 594 140 551 q 401 636 299 636 q 582 594 506 636 q 699 478 658 551 q 740 311 740 404 q 699 144 740 218 q 582 26 658 69 q 399 -17 506 -17 q 220 22 299 -17 q 97 135 142 61 q 53 311 53 208 m 249 310 q 268 224 249 263 q 321 164 288 186 q 396 142 354 142 q 504 190 464 142 q 544 310 544 238 q 504 430 544 382 q 396 478 464 478 q 321 456 354 478 q 268 396 288 433 q 249 310 249 358 m 293 850 q 327 921 293 893 q 400 949 361 949 q 472 921 439 949 q 504 850 504 893 q 472 780 504 807 q 400 753 439 753 q 327 780 361 753 q 293 850 293 807 m 221 1128 l 575 1128 l 575 993 l 221 993 l 221 1128 z "},"ọ":{"ha":793,"x_min":53,"x_max":740,"o":"m 53 311 q 97 478 53 404 q 219 594 140 551 q 401 636 299 636 q 582 594 506 636 q 699 478 658 551 q 740 311 740 404 q 699 144 740 218 q 582 26 658 69 q 399 -17 506 -17 q 220 22 299 -17 q 97 135 142 61 q 53 311 53 208 m 249 310 q 268 224 249 263 q 321 164 288 186 q 396 142 354 142 q 504 190 464 142 q 544 310 544 238 q 504 430 544 382 q 396 478 464 478 q 321 456 354 478 q 268 396 288 433 q 249 310 249 358 m 308 -151 q 336 -94 308 -117 q 397 -71 364 -71 q 456 -94 429 -71 q 483 -151 483 -117 q 456 -210 483 -187 q 397 -232 429 -232 q 336 -210 364 -232 q 308 -151 308 -187 z "},"ò":{"ha":793,"x_min":53,"x_max":740,"o":"m 53 311 q 97 478 53 404 q 219 594 140 551 q 401 636 299 636 q 582 594 506 636 q 699 478 658 551 q 740 311 740 404 q 699 144 740 218 q 582 26 658 69 q 399 -17 506 -17 q 220 22 299 -17 q 97 135 142 61 q 53 311 53 208 m 249 310 q 268 224 249 263 q 321 164 288 186 q 396 142 354 142 q 504 190 464 142 q 544 310 544 238 q 504 430 544 382 q 396 478 464 478 q 321 456 354 478 q 268 396 288 433 q 249 310 249 358 m 153 894 l 368 894 l 454 707 l 336 707 l 153 894 z "},"ỏ":{"ha":793,"x_min":53,"x_max":740,"o":"m 53 311 q 97 478 53 404 q 219 594 140 551 q 401 636 299 636 q 582 594 506 636 q 699 478 658 551 q 740 311 740 404 q 699 144 740 218 q 582 26 658 69 q 399 -17 506 -17 q 220 22 299 -17 q 97 135 142 61 q 53 311 53 208 m 249 310 q 268 224 249 263 q 321 164 288 186 q 396 142 354 142 q 504 190 464 142 q 544 310 544 238 q 504 430 544 382 q 396 478 464 478 q 321 456 354 478 q 268 396 288 433 q 249 310 249 358 m 357 750 q 396 783 381 767 q 411 824 411 800 q 402 856 411 843 q 371 869 393 869 q 338 858 353 869 q 317 832 324 847 l 247 874 q 313 949 271 925 q 397 974 354 974 q 468 955 442 974 q 506 908 494 936 q 518 851 518 879 q 482 761 518 797 q 397 699 446 725 l 357 750 z "},"ơ":{"ha":793,"x_min":53,"x_max":783,"o":"m 53 311 q 97 478 53 404 q 219 594 140 551 q 401 636 299 636 q 582 594 506 636 q 699 478 658 551 q 740 311 740 404 q 699 144 740 218 q 582 26 658 69 q 399 -17 506 -17 q 220 22 299 -17 q 97 135 142 61 q 53 311 53 208 m 249 310 q 268 224 249 263 q 321 164 288 186 q 396 142 354 142 q 504 190 464 142 q 544 310 544 238 q 504 430 544 382 q 396 478 464 478 q 321 456 354 478 q 268 396 288 433 q 249 310 249 358 m 522 607 q 599 637 571 607 q 640 726 628 667 l 783 726 q 731 585 768 636 q 641 513 694 533 q 522 492 588 492 l 522 607 z "},"ớ":{"ha":793,"x_min":53,"x_max":783,"o":"m 53 311 q 97 478 53 404 q 219 594 140 551 q 401 636 299 636 q 582 594 506 636 q 699 478 658 551 q 740 311 740 404 q 699 144 740 218 q 582 26 658 69 q 399 -17 506 -17 q 220 22 299 -17 q 97 135 142 61 q 53 311 53 208 m 249 310 q 268 224 249 263 q 321 164 288 186 q 396 142 354 142 q 504 190 464 142 q 544 310 544 238 q 504 430 544 382 q 396 478 464 478 q 321 456 354 478 q 268 396 288 433 q 249 310 249 358 m 522 607 q 599 637 571 607 q 640 726 628 667 l 783 726 q 731 585 768 636 q 641 513 694 533 q 522 492 588 492 l 522 607 m 601 867 l 396 679 l 278 679 l 386 867 l 601 867 z "},"ợ":{"ha":793,"x_min":53,"x_max":783,"o":"m 53 311 q 97 478 53 404 q 219 594 140 551 q 401 636 299 636 q 582 594 506 636 q 699 478 658 551 q 740 311 740 404 q 699 144 740 218 q 582 26 658 69 q 399 -17 506 -17 q 220 22 299 -17 q 97 135 142 61 q 53 311 53 208 m 249 310 q 268 224 249 263 q 321 164 288 186 q 396 142 354 142 q 504 190 464 142 q 544 310 544 238 q 504 430 544 382 q 396 478 464 478 q 321 456 354 478 q 268 396 288 433 q 249 310 249 358 m 522 607 q 599 637 571 607 q 640 726 628 667 l 783 726 q 731 585 768 636 q 641 513 694 533 q 522 492 588 492 l 522 607 m 308 -151 q 336 -94 308 -117 q 397 -71 364 -71 q 456 -94 429 -71 q 483 -151 483 -117 q 456 -210 483 -187 q 397 -232 429 -232 q 336 -210 364 -232 q 308 -151 308 -187 z "},"ờ":{"ha":793,"x_min":53,"x_max":783,"o":"m 53 311 q 97 478 53 404 q 219 594 140 551 q 401 636 299 636 q 582 594 506 636 q 699 478 658 551 q 740 311 740 404 q 699 144 740 218 q 582 26 658 69 q 399 -17 506 -17 q 220 22 299 -17 q 97 135 142 61 q 53 311 53 208 m 249 310 q 268 224 249 263 q 321 164 288 186 q 396 142 354 142 q 504 190 464 142 q 544 310 544 238 q 504 430 544 382 q 396 478 464 478 q 321 456 354 478 q 268 396 288 433 q 249 310 249 358 m 522 607 q 599 637 571 607 q 640 726 628 667 l 783 726 q 731 585 768 636 q 641 513 694 533 q 522 492 588 492 l 522 607 m 153 894 l 368 894 l 454 707 l 336 707 l 153 894 z "},"ở":{"ha":793,"x_min":53,"x_max":783,"o":"m 53 311 q 97 478 53 404 q 219 594 140 551 q 401 636 299 636 q 582 594 506 636 q 699 478 658 551 q 740 311 740 404 q 699 144 740 218 q 582 26 658 69 q 399 -17 506 -17 q 220 22 299 -17 q 97 135 142 61 q 53 311 53 208 m 249 310 q 268 224 249 263 q 321 164 288 186 q 396 142 354 142 q 504 190 464 142 q 544 310 544 238 q 504 430 544 382 q 396 478 464 478 q 321 456 354 478 q 268 396 288 433 q 249 310 249 358 m 522 607 q 599 637 571 607 q 640 726 628 667 l 783 726 q 731 585 768 636 q 641 513 694 533 q 522 492 588 492 l 522 607 m 357 750 q 396 783 381 767 q 411 824 411 800 q 402 856 411 843 q 371 869 393 869 q 338 858 353 869 q 317 832 324 847 l 247 874 q 313 949 271 925 q 397 974 354 974 q 468 955 442 974 q 506 908 494 936 q 518 851 518 879 q 482 761 518 797 q 397 699 446 725 l 357 750 z "},"ỡ":{"ha":793,"x_min":53,"x_max":783,"o":"m 447 690 q 382 707 408 690 q 335 740 356 724 q 309 758 321 750 q 285 767 297 767 q 253 742 261 767 q 249 692 246 718 l 169 692 q 176 776 164 736 q 219 842 189 817 q 293 867 249 867 q 344 851 321 867 q 388 818 367 836 q 417 795 403 806 q 444 785 431 785 q 470 810 465 785 q 472 864 475 836 l 553 864 q 549 775 561 814 q 509 713 536 736 q 447 690 482 690 m 53 311 q 97 478 53 404 q 219 594 140 551 q 401 636 299 636 q 582 594 506 636 q 699 478 658 551 q 740 311 740 404 q 699 144 740 218 q 582 26 658 69 q 399 -17 506 -17 q 220 22 299 -17 q 97 135 142 61 q 53 311 53 208 m 249 310 q 268 224 249 263 q 321 164 288 186 q 396 142 354 142 q 504 190 464 142 q 544 310 544 238 q 504 430 544 382 q 396 478 464 478 q 321 456 354 478 q 268 396 288 433 q 249 310 249 358 m 522 607 q 599 637 571 607 q 640 726 628 667 l 783 726 q 731 585 768 636 q 641 513 694 533 q 522 492 588 492 l 522 607 z "},"ő":{"ha":793,"x_min":53,"x_max":754,"o":"m 53 311 q 97 478 53 404 q 219 594 140 551 q 401 636 299 636 q 582 594 506 636 q 699 478 658 551 q 740 311 740 404 q 699 144 740 218 q 582 26 658 69 q 399 -17 506 -17 q 220 22 299 -17 q 97 135 142 61 q 53 311 53 208 m 249 310 q 268 224 249 263 q 321 164 288 186 q 396 142 354 142 q 504 190 464 142 q 544 310 544 238 q 504 430 544 382 q 396 478 464 478 q 321 456 354 478 q 268 396 288 433 q 249 310 249 358 m 499 894 l 293 707 l 175 707 l 283 894 l 499 894 m 754 892 l 549 704 l 431 704 l 539 892 l 754 892 z "}}}
